<?xml version="1.0" standalone="no"?>
<!DOCTYPE svg PUBLIC "-//W3C//DTD SVG 1.1//EN" "http://www.w3.org/Graphics/SVG/1.1/DTD/svg11.dtd" >
<svg>
<metadata>
Created by FontForge 20120731 at Sat Apr  2 15:03:31 2016
 By ,,,
(c) 2005, 2007 Adobe Systems Incorporated. All rights reserved.
</metadata>
<defs>
<font id="GaramondPremrPro-BdItCapt" horiz-adv-x="565" >
  <font-face 
    font-family="Garamond Premr Pro Capt"
    font-weight="700"
    font-style="italic"
    font-variant="small-caps"
    font-stretch="normal"
    units-per-em="1000"
    panose-1="2 2 7 2 5 5 6 9 4 3"
    ascent="725"
    descent="-275"
    x-height="425"
    cap-height="601"
    bbox="-214 -392 1418 922.696"
    underline-thickness="50"
    underline-position="-50"
    slope="-18"
    unicode-range="U+0020-FB06"
  />
<missing-glyph horiz-adv-x="500" 
d="M0 0v700h500v-700h-500zM250 395l170 255h-340zM280 350l170 -255v510zM80 50h340l-170 255zM50 605v-510l170 255z" />
    <glyph glyph-name="f_f" unicode="ff" horiz-adv-x="595" 
d="M413 640q37 0 68 -11t45 -27q2 -4 8 0q71 62 146 62q48 0 72.5 -25t22.5 -51q-2 -36 -27 -54q-15 -11 -37 -11q-9 0 -18 11t-12 18q-19 49 -30 57q-6 5 -14 5q-13 0 -29 -25q-27 -43 -54 -171q-1 -4 2.5 -8t6.5 -4l74 3q14 0 14 -14q0 -15 -10 -28q-5 -6 -12 -9
q-17 -5 -79 -5q-3 0 -8.5 -4.5t-6.5 -11.5q-60 -269 -85 -351q-15 -52 -48 -87t-84 -67q-59 -36 -127 -36q-27 0 -60.5 10.5t-50.5 26.5q-6 6 -17 -3q-79 -60 -143 -60q-30 0 -57 16t-26 42q1 15 12.5 37t22.5 25q6 2 18.5 -0.5t19.5 -9.5q39 -39 69 -39q11 0 16.5 2.5
t13 15.5t14.5 40q20 71 55.5 226t45.5 207q0 12 -7 12l-64 -1q-3 0 -5.5 5t-2.5 8q0 12 10 25.5t14 13.5q3 0 27.5 2t34.5 2q10 3 13 11q44 134 135 191q27 17 66 28t68 11zM371 586q-31 0 -56 -40q-27 -45 -46 -133q-1 -4 2.5 -8t6.5 -4l138 2q10 3 13 11q16 51 39 94
q1 2 2 9t0 8q-12 26 -41.5 43.5t-57.5 17.5zM244 -140q50 0 67 65q21 71 54.5 216t43.5 196q0 4 -1 5l-2.5 2.5t-3.5 4.5q-6 -2 -137 -2q-12 0 -15 -16q-58 -255 -91 -368q-7 -23 -14 -38q-3 -10 0 -14q49 -51 99 -51z" />
    <glyph glyph-name="f_f_i" unicode="ffi" horiz-adv-x="861" 
d="M412 640q65 0 113 -38q2 -2 7.5 -2t8.5 2q29 25 76 41.5t87 16.5q62 0 93 -26t31 -52q0 -25 -19.5 -50.5t-44.5 -25.5q-6 0 -17.5 9t-13.5 13q-1 2 -6.5 14t-8.5 18t-9.5 16.5t-13 16t-15.5 10t-19 4.5q-69 0 -109 -190q-1 -4 2.5 -8t6.5 -4l143 5q63 3 103 9
q5 1 12.5 -9.5t5.5 -16.5l-95 -277q-7 -22 6 -22q14 0 61 39q5 4 12 7.5t13.5 1.5t6.5 -12q0 -28 -25 -55q-29 -34 -82.5 -61.5t-96.5 -27.5q-25 0 -32 29.5t4 49.5q1 1 88 267q9 27 -17 27q-5 -1 -56 -4t-64 -3q-4 0 -8.5 -5.5t-5.5 -9.5q-60 -269 -85 -351
q-15 -52 -48 -87t-84 -67q-59 -36 -130 -36q-26 0 -55.5 11.5t-47.5 28.5q-7 7 -18 -3q-84 -64 -147 -64q-27 0 -53 15t-25 40q3 56 30 64q24 8 36 -4q44 -44 75 -44q14 0 23 11.5t19 47.5q44 156 99 431q0 12 -7 12l-64 -1q-3 0 -5.5 5t-2.5 8q0 12 6 26.5t9 14.5t32 2
t39 2q10 3 13 11q44 134 135 191q27 17 66 28t68 11zM242 -139q51 0 68 64q21 71 54 216t44 198q0 4 -1 5l-2.5 2.5t-3.5 4.5q-12 -4 -137 -4q-12 0 -15 -16q-64 -283 -89 -368q-7 -23 -14 -38q-3 -10 0 -14q49 -50 96 -50zM380 586q-81 0 -112 -173q-1 -4 2.5 -8t6.5 -4
l138 4q9 3 13 11q30 80 39 92q6 7 0 19q-13 27 -36.5 43t-50.5 16z" />
    <glyph glyph-name="f_f_l" unicode="ffl" horiz-adv-x="863" 
d="M370 586q-31 0 -56 -40q-27 -45 -46 -133q-1 -4 2.5 -8t6.5 -4l138 2q10 3 13 11q16 51 39 94q1 2 2 9t0 8q-12 26 -41.5 43.5t-57.5 17.5zM243 -140q50 0 67 65q21 71 54.5 216t43.5 196q0 4 -1 5l-2.5 2.5t-3.5 4.5q-6 -2 -137 -2q-12 0 -15 -16q-58 -255 -91 -368
q-7 -23 -14 -38q-3 -10 0 -14q50 -51 99 -51zM407 640q37 0 70.5 -11t47.5 -27q2 -4 8 0q29 26 72 42t83 16q54 0 95 -24q9 -6 18 -1q7 4 20 10t15 7q13 8 27 8q3 0 7.5 -5t6.5 -15t-1 -24q-8 -29 -45 -157t-61 -215t-33 -129q-2 -12 0.5 -23t9.5 -11q20 0 76 44
q5 3 11.5 -1t6.5 -10q0 -20 -9 -34q-28 -45 -75 -69.5t-94 -24.5q-20 0 -37.5 18.5t-17.5 40.5q0 39 45 205q52 187 73 277q1 4 0.5 14t-2.5 15q-18 47 -65 47q-11 0 -28 -11.5t-26 -25.5q-12 -19 -17.5 -30t-15 -41t-19.5 -77q-1 -4 2.5 -8t6.5 -4l75 3q6 0 10 -4.5t4 -9.5
q0 -8 -8 -21t-18 -16q-17 -5 -78 -5q-8 0 -12 -11q-62 -275 -86 -356q-15 -52 -48 -87t-84 -67q-59 -36 -127 -36q-27 0 -60.5 10.5t-50.5 26.5q-6 6 -17 -3q-79 -60 -143 -60q-30 0 -57 16t-26 42q1 15 12.5 37t22.5 25q6 2 18.5 -0.5t19.5 -9.5q39 -39 69 -39
q11 0 16.5 2.5t13 15.5t14.5 40q20 71 55.5 226t45.5 207q0 12 -7 12l-64 -1q-3 0 -5.5 5t-2.5 8q0 12 10 25.5t14 13.5q3 0 27.5 2t34.5 2q10 3 13 11q44 134 135 191q62 39 129 39z" />
    <glyph glyph-name="longs_t" unicode="&#x17f;t" horiz-adv-x="602" 
d="M424 660q73 0 107.5 -29.5t35.5 -73.5q0 -6 -4.5 -25t-12.5 -52.5t-14 -59.5q-3 -13 8 -13l84 1q3 0 5.5 -5.5t2.5 -9.5q0 -7 -7.5 -27.5t-13.5 -19.5l-89 5q-8 0 -12 -8q-8 -26 -31 -95.5t-34 -106.5q-11 -38 4 -38q9 0 35.5 17.5t51.5 39.5q2 1 6 -1.5t7 -8t3 -10.5
q0 -24 -21 -47q-28 -31 -88.5 -69t-97.5 -38q-21 0 -34.5 19.5t-13.5 34.5t10 49q1 2 32.5 99t47.5 150q3 12 -4 12q-5 0 -23.5 1.5t-28.5 1.5q-12 2 -12 14q0 7 4 16.5t8 15.5t6 6q46 0 64 2q1 0 5 4.5t3 7.5q11 23 25 68.5t16 59.5q4 28 -16 46q-16 16 -51 16
q-42 0 -75.5 -50t-68.5 -183q-15 -57 -44 -208t-45 -209q-14 -52 -47 -86t-86 -67q-58 -35 -118 -35q-19 0 -46.5 16.5t-26.5 40.5q1 15 15.5 33.5t31.5 23.5t27 -5q41 -41 61 -41q11 0 18.5 2.5t17 16.5t16.5 40q13 52 44.5 201.5t38.5 181.5q33 145 79.5 219.5
t118.5 120.5q26 16 64.5 27.5t61.5 11.5z" />
    <glyph glyph-name="T_h" unicode="Th" horiz-adv-x="1086" 
d="M978 425q26 0 49 -28.5t23 -70.5q0 -54 -13 -108.5t-25 -82.5t-23 -46q-4 -7 -9 -13t-13 -12.5t-12.5 -10.5t-15.5 -11t-14.5 -9t-17 -10.5t-15.5 -9.5q-18 -11 -44.5 -23t-33.5 -12q-20 0 -36 12.5t-17 24.5q0 11 11.5 31t21.5 27q1 1 6 2t7 0t21.5 -15.5t26.5 -14.5
q5 0 7.5 1.5t4.5 3.5t6 9q16 30 33 107t17 127q0 45 -28 45q-26 0 -62 -40q-62 -69 -149 -274q-7 -17 -16 -26.5t-15 -9.5q-13 0 -32.5 7.5t-28.5 18.5q-12 14 -3 56q1 2 51 209t57 239q2 10 -1.5 19.5t-10.5 9.5q-10 0 -85.5 -1.5t-81.5 -1.5q-3 0 -8.5 -4.5t-6.5 -10.5
q-13 -38 -53 -191t-58 -228q-2 -10 -2 -17.5t1 -13t7 -10.5t9 -8t14 -7t15.5 -5.5t19.5 -5.5q25 -7 25 -25q-1 -9 -10 -15.5t-22 -6.5q-12 0 -45 2t-56 2q-45 0 -119 -4t-79 -4q-17 0 -25.5 7.5t-7.5 14.5q2 18 34 26q43 10 61.5 26.5t32.5 60.5q7 21 110 399q2 12 -8 14
l-41 4q-40 3 -48 3q-60 0 -128 -81q-8 -9 -16 -9q-7 0 -15.5 12t-5.5 19t26 53t32 72q1 4 9 9.5t12 5.5q2 0 16 -7q26 -14 51 -19q16 -4 108 -4h321q40 0 52 13q2 2 8.5 10.5t12 14.5t13 11.5t13.5 5.5t33.5 -5.5t40.5 -11.5q11 -5 8 -25q-8 -34 -39.5 -139t-45.5 -165
q0 -3 2.5 -7t6.5 0q60 63 103 92q49 33 102 33z" />
    <glyph glyph-name="f_b" unicode="fb" horiz-adv-x="810" 
d="M404 656q59 0 94 -20q9 -6 18 -1q7 4 20 10t15 7q13 8 27 8q4 0 9 -5t9 -15.5t1 -22.5q-62 -184 -86 -280q-1 -4 3.5 -6t7.5 0q106 93 183 93q32 0 55 -28q10 -10 17.5 -32t7.5 -42q0 -70 -48 -152t-125 -133q-79 -52 -161 -52q-49 0 -82.5 32t-33.5 88q0 21 4 35
q96 355 102 387q1 4 0.5 14t-2.5 15q-18 47 -65 47q-11 0 -28 -11.5t-26 -25.5q-12 -19 -17.5 -30t-15 -41t-19.5 -77q-1 -4 2.5 -8t6.5 -4l75 3q6 0 10 -4.5t4 -9.5q0 -8 -8 -21t-18 -16q-18 -5 -78 -5q-9 0 -12 -13q-66 -295 -92 -381q-15 -52 -49.5 -87t-87.5 -68
q-58 -35 -103 -35q-32 0 -56.5 16.5t-23.5 39.5q0 8 11.5 34.5t21.5 29.5q23 8 37 -6q43 -43 69 -43q12 0 17 1.5t13 14t15 39.5q43 152 101 443q0 12 -7 12l-64 -2q-3 0 -5.5 5t-2.5 8q0 12 7.5 25.5t11.5 13.5q3 0 30 2t37 2q10 3 13 11q46 142 146 205q56 36 115 36z
M630 338q-23 0 -46 -15.5t-60 -57.5q-19 -21 -45 -84t-26 -101q0 -13 17 -27.5t30 -14.5t37 20q41 34 79 107t38 135q0 14 -6 26t-18 12z" />
    <glyph glyph-name="f_f_b" unicode="ffb" horiz-adv-x="1096" 
d="M413 640q37 0 68 -11t45 -27q2 -4 8 0q29 26 72 42t83 16q54 0 95 -24q9 -6 18 -1q7 4 20 10t15 7q13 8 27 8q4 0 9 -5t9 -15.5t1 -22.5q-62 -184 -86 -280q-1 -4 3.5 -6t7.5 0q106 93 183 93q32 0 55 -28q10 -10 17.5 -32t7.5 -42q0 -70 -48 -152t-125 -133
q-79 -52 -161 -52q-49 0 -82.5 32t-33.5 88q0 21 4 35q96 355 102 387q1 4 0.5 14t-2.5 15q-18 47 -65 47q-11 0 -28 -11.5t-26 -25.5q-12 -19 -17.5 -30t-15 -41t-19.5 -77q-1 -4 2.5 -8t6.5 -4l75 3q6 0 10 -4.5t4 -9.5q0 -8 -8 -21t-18 -16q-18 -5 -78 -5q-8 0 -12 -11
q-62 -275 -86 -356q-15 -52 -48 -87t-84 -67q-59 -36 -127 -36q-27 0 -60.5 10.5t-50.5 26.5q-6 6 -17 -3q-79 -60 -143 -60q-30 0 -57 16t-26 42q1 15 12.5 37t22.5 25q6 2 18.5 -0.5t19.5 -9.5q39 -39 69 -39q11 0 16.5 2.5t13 15.5t14.5 40q20 71 55.5 226t45.5 207
q0 12 -7 12l-64 -1q-3 0 -5.5 5t-2.5 8q0 12 10 25.5t14 13.5q3 0 27.5 2t34.5 2q10 3 13 11q44 134 135 191q27 17 66 28t68 11zM381 586q-41 0 -66 -40q-27 -45 -46 -133q-1 -4 2.5 -8t6.5 -4l138 2q10 3 13 11q16 51 39 94q1 2 2 9t0 8q-13 27 -37.5 44t-51.5 17z
M244 -140q50 0 67 65q21 71 54.5 216t43.5 196q0 4 -1 5l-2.5 2.5t-3.5 4.5q-6 -2 -137 -2q-12 0 -15 -16q-58 -255 -91 -368q-7 -23 -14 -38q-3 -10 0 -14q49 -51 99 -51zM916 338q-23 0 -46 -15.5t-60 -57.5q-19 -21 -45 -84t-26 -101q0 -13 17 -27.5t30 -14.5t37 20
q41 34 79 107t38 135q0 14 -6 26t-18 12z" />
    <glyph glyph-name="f_f_h" unicode="ffh" horiz-adv-x="1118" 
d="M408 640q37 0 70.5 -11t47.5 -27q2 -4 8 0q29 26 72 42t83 16q54 0 95 -24q9 -6 18 -1q7 4 20 10t15 7q13 8 27 8q4 0 9.5 -5t9 -15.5t0.5 -22.5t-37.5 -128t-49.5 -182q0 -3 2.5 -7t6.5 0q60 63 103 92q49 33 102 33q26 0 49 -28.5t23 -70.5q0 -54 -13 -108.5t-25 -82.5
t-23 -46q-4 -7 -9 -13t-13 -12.5t-12.5 -10.5t-15.5 -11t-14.5 -9t-17 -10.5t-15.5 -9.5q-18 -11 -44.5 -23t-33.5 -12q-20 0 -36 12.5t-17 24.5q0 11 11.5 31t21.5 27q1 1 6 2t7 0t21.5 -15.5t26.5 -14.5q5 0 7.5 1.5t4.5 3.5t6 9q16 30 33 107t17 127q0 45 -28 45
q-26 0 -62 -40q-62 -69 -149 -274q-7 -17 -16 -26.5t-15 -9.5q-13 0 -32.5 7.5t-28.5 18.5q-12 14 -3 56q80 340 106 457q1 4 0.5 14t-2.5 15q-18 47 -65 47q-11 0 -28 -11.5t-26 -25.5q-12 -19 -17.5 -30t-15 -41t-19.5 -77q-1 -4 2.5 -8t6.5 -4l75 3q6 0 10 -4.5t4 -9.5
q0 -8 -8 -21t-18 -16q-18 -5 -78 -5q-8 0 -12 -11q-62 -275 -86 -356q-15 -52 -48 -87t-84 -67q-59 -36 -127 -36q-27 0 -60.5 10.5t-50.5 26.5q-6 6 -17 -3q-79 -60 -143 -60q-30 0 -57 16t-26 42q1 15 12.5 37t22.5 25q6 2 18.5 -0.5t19.5 -9.5q39 -39 69 -39
q11 0 16.5 2.5t13 15.5t14.5 40q20 71 55.5 226t45.5 207q0 12 -7 12l-64 -1q-3 0 -5.5 5t-2.5 8q0 12 10 25.5t14 13.5q3 0 27.5 2t34.5 2q10 3 13 11q44 134 135 191q62 39 129 39zM371 586q-31 0 -56 -40q-27 -45 -46 -133q-1 -4 2.5 -8t6.5 -4l138 2q10 3 13 11
q16 51 39 94q1 2 2 9t0 8q-12 26 -41.5 43.5t-57.5 17.5zM244 -140q50 0 67 65q21 71 54.5 216t43.5 196q0 4 -1 5l-2.5 2.5t-3.5 4.5q-6 -2 -137 -2q-12 0 -15 -16q-58 -255 -91 -368q-7 -23 -14 -38q-3 -10 0 -14q49 -51 99 -51z" />
    <glyph glyph-name="f_f_j" unicode="ffj" horiz-adv-x="854" 
d="M413 640q65 0 113 -38q2 -2 7.5 -2t8.5 2q29 25 76 41.5t87 16.5q62 0 93 -26t31 -52q0 -25 -19.5 -50.5t-44.5 -25.5q-6 0 -17.5 9t-13.5 13q-1 2 -6.5 14t-8.5 18t-9.5 16.5t-13 16t-15.5 10t-19 4.5q-69 0 -109 -190q-1 -4 2.5 -8t6.5 -4l143 5q63 3 103 9
q5 1 12.5 -9.5t5.5 -16.5q-13 -65 -45.5 -199.5t-49.5 -179.5q-19 -51 -63 -97t-83 -67q-45 -25 -82 -25q-26 0 -44.5 13t-18.5 29q0 13 13 32t27 27q3 2 11.5 1.5t11.5 -2.5q4 -3 14.5 -11.5t14.5 -11.5t11.5 -6t14.5 -3q12 0 19.5 9t18.5 41q13 38 50.5 200t42.5 189
q3 9 -4.5 17t-12.5 8q-2 0 -58 -2.5t-65 -2.5q-4 0 -8.5 -5.5t-5.5 -9.5q-60 -269 -85 -351q-15 -52 -48 -87t-84 -67q-59 -36 -130 -36q-26 0 -55.5 11.5t-47.5 28.5q-7 7 -18 -3q-84 -64 -147 -64q-27 0 -53 15t-25 40q3 56 30 64q24 8 36 -4q44 -44 75 -44q14 0 23 11.5
t19 47.5q44 156 99 431q0 12 -7 12l-64 -1q-3 0 -5.5 5t-2.5 8q0 12 6 26.5t9 14.5t32 2t39 2q10 3 13 11q44 134 135 191q27 17 66 28t68 11zM381 586q-81 0 -112 -173q-1 -4 2.5 -8t6.5 -4l138 4q9 3 13 11q30 80 39 92q6 7 0 19q-13 27 -36.5 43t-50.5 16zM243 -139
q51 0 68 64q21 71 54 216t44 198q0 4 -1 5l-2.5 2.5t-3.5 4.5q-12 -4 -137 -4q-12 0 -15 -16q-64 -283 -89 -368q-7 -23 -14 -38q-3 -10 0 -14q49 -50 96 -50z" />
    <glyph glyph-name="f_f_k" unicode="ffk" horiz-adv-x="1090" 
d="M370 586q-31 0 -56 -40q-27 -45 -46 -133q-1 -4 2.5 -8t6.5 -4l138 2q10 3 13 11q16 51 39 94q1 2 2 9t0 8q-12 26 -41.5 43.5t-57.5 17.5zM243 -140q50 0 67 65q21 71 54.5 216t43.5 196q0 4 -1 5l-2.5 2.5t-3.5 4.5q-6 -2 -137 -2q-12 0 -15 -16q-58 -255 -91 -368
q-7 -23 -14 -38q-3 -10 0 -14q50 -51 99 -51zM407 640q37 0 70.5 -11t47.5 -27q2 -4 8 0q29 26 72 42t83 16q54 0 95 -24q9 -6 18 -1q7 4 20 10t15 7q13 8 27 8q3 0 7.5 -5t7 -15t0.5 -21q-2 -9 -15 -52t-34 -113t-37 -129q-1 -3 2 -6.5t6 -0.5q55 51 110 83q43 24 66 24
q28 0 53.5 -19t25.5 -53q0 -50 -47 -92q-9 -9 -27.5 -20.5t-33 -19t-32.5 -17t-19 -9.5q-9 -6 -4 -13q11 -14 46 -67q14 -22 31 -22q24 0 64 40q14 14 24 14q6 0 9 -14.5t-2 -25.5q-29 -62 -66.5 -92t-75.5 -30q-29 0 -47.5 16t-44.5 59q-7 12 -16 31.5t-14 27.5
q-18 30 -34 30q-5 0 -14 -15q-8 -13 -18 -36t-22.5 -54t-19.5 -47q-1 -4 -10.5 -7.5t-15.5 -3.5q-19 0 -42.5 18.5t-23.5 33.5q0 5 5 27q5 17 26.5 95.5t51.5 192.5t43 174q1 4 0.5 14t-2.5 15q-18 47 -65 47q-11 0 -28 -11.5t-26 -25.5q-12 -19 -17.5 -30t-15 -41
t-19.5 -77q-1 -4 2.5 -8t6.5 -4l75 3q6 0 10 -4.5t4 -9.5q0 -8 -8 -21t-18 -16q-17 -5 -78 -5q-8 0 -12 -11q-62 -275 -86 -356q-15 -52 -48 -87t-84 -67q-59 -36 -127 -36q-27 0 -60.5 10.5t-50.5 26.5q-6 6 -17 -3q-79 -60 -143 -60q-30 0 -57 16t-26 42q1 15 12.5 37
t22.5 25q6 2 18.5 -0.5t19.5 -9.5q39 -39 69 -39q11 0 16.5 2.5t13 15.5t14.5 40q20 71 55.5 226t45.5 207q0 12 -7 12l-64 -1q-3 0 -5.5 5t-2.5 8q0 12 10 25.5t14 13.5q3 0 27.5 2t34.5 2q10 3 13 11q44 134 135 191q62 39 129 39zM906 336q-25 0 -58 -27.5t-61 -96.5
q-1 -4 1.5 -10t8.5 -6q38 0 85.5 39.5t47.5 76.5q0 24 -24 24z" />
    <glyph glyph-name="f_f_t" unicode="fft" horiz-adv-x="902" 
d="M412 640q37 0 68 -11t45 -27q2 -4 8 0q71 62 148 62q50 0 76 -20t24 -43q-2 -33 -32 -55q-15 -11 -37 -11q-9 0 -18 11t-12 18q-13 28 -22 39t-23 11q-15 0 -32 -26q-24 -38 -52 -171q-1 -4 2.5 -8t6.5 -4q115 -1 143 2q1 0 5.5 4t5.5 6q3 5 17 35.5t20 42.5q4 8 32.5 18
t35.5 10q18 0 26 -9.5t8 -17.5q0 -14 -19 -77q-3 -12 8 -12l84 1q3 0 5.5 -5.5t2.5 -9.5q0 -7 -7.5 -24t-13.5 -16l-89 -2q-8 0 -12 -8q-8 -26 -31 -95.5t-34 -106.5q-11 -38 4 -38q9 0 35.5 17.5t51.5 39.5q2 1 6 -1.5t7 -8t3 -10.5q0 -24 -21 -47q-28 -31 -88.5 -69
t-97.5 -38q-21 0 -34.5 19.5t-13.5 34.5t10 49q1 2 33 100.5t48 151.5q3 12 -4 12q-17 0 -64.5 -0.5t-74.5 -0.5q-3 0 -8.5 -4.5t-6.5 -11.5q-60 -264 -85 -350q-15 -52 -48 -87t-84 -67q-59 -36 -127 -36q-25 0 -57.5 14t-51.5 31q-7 7 -17 -3q-29 -30 -70.5 -49t-74.5 -19
q-30 0 -57 16t-26 42q1 15 12.5 37t22.5 25q6 2 18.5 -0.5t19.5 -9.5q39 -39 69 -39q11 0 16.5 2.5t13 15.5t14.5 40q20 71 55.5 226t45.5 207q0 12 -7 12l-64 -1q-3 0 -5.5 5t-2.5 8q0 12 10 25.5t14 13.5q3 0 27.5 2t34.5 2q10 3 13 11q43 130 140 191q62 39 129 39z
M243 -140q50 0 67 65q21 71 54.5 216t43.5 196q0 4 -1 5l-2.5 2.5t-3.5 4.5q-6 -2 -137 -2q-12 0 -15 -16q-56 -250 -89 -360q-7 -23 -14 -38q-3 -10 0 -14q57 -59 97 -59zM370 586q-31 0 -56 -40q-27 -45 -46 -133q-1 -4 2.5 -8t6.5 -4l138 2q10 3 13 11q16 51 39 94
q1 2 2 9t0 8q-12 26 -41.5 43.5t-57.5 17.5z" />
    <glyph glyph-name="f_h" unicode="fh" horiz-adv-x="831" 
d="M404 656q59 0 94 -20q9 -6 18 -1q7 4 20 10t15 7q13 8 27 8q4 0 8.5 -4t7.5 -14t0 -22q-8 -34 -39.5 -143.5t-45.5 -169.5q0 -3 2.5 -7t6.5 0q60 63 103 92q49 33 102 33q26 0 49 -28.5t23 -70.5q0 -54 -13 -108.5t-25 -82.5t-23 -46q-4 -7 -9 -13t-13 -12.5t-12.5 -10.5
t-15.5 -11t-14.5 -9t-17 -10.5t-15.5 -9.5q-18 -11 -44.5 -23t-33.5 -12q-20 0 -36 12.5t-17 24.5q0 11 11.5 31t21.5 27q1 1 6 2t7 0t21.5 -15.5t26.5 -14.5q5 0 7.5 1.5t4.5 3.5t6 9q16 30 33 107t17 127q0 45 -28 45q-26 0 -62 -40q-62 -69 -149 -274q-7 -17 -16 -26.5
t-15 -9.5q-13 0 -32.5 7.5t-28.5 18.5q-12 14 -3 56q2 9 27.5 116t51 212.5t30.5 129.5q1 4 0.5 14t-2.5 15q-18 46 -67 46q-11 0 -28 -11.5t-26 -25.5q-12 -19 -17.5 -30t-15 -41t-19.5 -77q-1 -4 2.5 -8t6.5 -4l75 3q6 0 10 -4.5t4 -9.5q0 -8 -8 -21t-18 -16
q-18 -5 -78 -5q-9 0 -12 -13q-66 -295 -92 -381q-15 -52 -49.5 -87t-87.5 -68q-58 -35 -103 -35q-32 0 -56.5 16.5t-23.5 39.5q0 8 11.5 34.5t21.5 29.5q23 8 37 -6q43 -43 69 -43q12 0 17 1.5t13 14t15 39.5q43 152 101 443q0 12 -7 12t-15 -0.5t-22 -1t-27 -0.5
q-3 0 -5.5 5t-2.5 8q0 12 7.5 25.5t11.5 13.5q3 0 30 2t37 2q10 3 13 11q46 142 146 205q56 36 115 36z" />
    <glyph glyph-name="f_i" unicode="fi" horiz-adv-x="568" 
d="M418 664q56 0 88.5 -24.5t32.5 -48.5q0 -25 -21.5 -52t-46.5 -27q-15 0 -29 27q-2 3 -9 21t-11.5 26t-16 17t-26.5 9q-68 0 -109 -195q-1 -4 1.5 -8t5.5 -4l135 5q55 3 97 9q12 1 18 -9t3 -22l-96 -278q-1 -2 1 -6.5t5 -4.5q22 0 63 33q31 23 31 -3q0 -23 -26 -56
q-27 -34 -78.5 -60.5t-94.5 -26.5q-12 0 -27 14.5t-15 25.5q0 21 10 46q16 34 90 260q3 7 0.5 16.5t-9.5 9.5q-55 0 -121 -6q-3 -1 -7 -6.5t-5 -9.5q-53 -234 -94 -373q-16 -56 -46.5 -89.5t-85.5 -67.5q-61 -37 -111 -37q-21 0 -48.5 14.5t-26.5 44.5q0 17 7.5 36t19.5 22
q28 9 40 -3q43 -43 71 -43q16 0 25 10t19 49q20 72 57.5 232t46.5 205q0 12 -7 12l-64 -2q-3 0 -5.5 5t-2.5 8q0 12 10 25.5t14 13.5q3 0 27.5 2t34.5 2q9 2 13 11q27 83 63.5 133t91.5 85q52 33 118 33z" />
    <glyph glyph-name="f_j" unicode="fj" horiz-adv-x="574" 
d="M426 664q56 0 88.5 -24.5t32.5 -48.5q0 -25 -21.5 -52t-46.5 -27q-15 0 -29 27q-2 3 -9 21t-11.5 26t-16 17t-26.5 9q-23 0 -44.5 -22.5t-36 -56.5t-24 -62.5t-14.5 -53.5q-1 -4 1.5 -8t5.5 -4l145 5q56 3 98 9q12 1 18 -9t3 -22q-12 -57 -48 -201t-53 -190
q-19 -51 -63 -97t-83 -67q-45 -25 -88 -25q-26 0 -44.5 13t-18.5 29q0 15 10 34t23 27q3 2 13 2.5t14 -2.5q45 -35 64 -35q12 0 19.5 9t18.5 41q14 40 50 195.5t46 210.5q2 8 0 17t-9 9q-63 0 -129 -6q-3 -1 -7 -6.5t-5 -9.5q-53 -234 -94 -373q-16 -56 -46.5 -89.5
t-85.5 -67.5q-61 -37 -111 -37q-21 0 -48.5 14.5t-26.5 44.5q0 16 9 34t21 22q27 9 37 -1q43 -43 71 -43q16 0 25 10t19 49q20 72 57.5 232t46.5 205q0 12 -7 12q-40 -2 -64 -2q-3 0 -5.5 5t-2.5 8q0 12 10 25.5t14 13.5q3 0 27.5 2t34.5 2q9 2 13 11q27 83 63.5 133
t91.5 85q24 16 63 24.5t65 8.5z" />
    <glyph glyph-name="f_k" unicode="fk" horiz-adv-x="807" 
d="M407 656q59 0 94 -20q9 -6 18 -1q7 4 20 10t15 7q13 8 27 8q4 0 8 -4.5t7 -13.5t-1 -23q-2 -9 -14.5 -52t-33 -113.5t-36.5 -128.5q-1 -3 2 -6.5t6 -0.5q59 54 108 83q43 24 66 24q28 0 53.5 -19t25.5 -53q0 -50 -47 -92q-9 -9 -27.5 -20.5t-33 -19t-32.5 -17t-19 -9.5
q-9 -6 -4 -13q11 -14 46 -67q14 -22 31 -22q24 0 64 40q14 14 24 14q6 0 9 -14.5t-2 -25.5q-29 -62 -66.5 -92t-75.5 -30q-29 0 -47.5 16t-44.5 59q-7 12 -16 31.5t-14 27.5q-18 30 -35 30q-5 0 -14 -15q-8 -13 -18 -36t-22.5 -54t-19.5 -47q-1 -4 -10.5 -7.5t-15.5 -3.5
q-19 0 -42 18.5t-23 33.5q0 5 5 27q86 294 124 463q1 4 0.5 14t-2.5 15q-18 46 -67 46q-11 0 -28 -11.5t-26 -25.5q-12 -19 -17.5 -30t-15 -41t-19.5 -77q-1 -4 2.5 -8t6.5 -4l75 3q6 0 10 -4.5t4 -9.5q0 -8 -8 -21t-18 -16q-17 -5 -78 -5q-9 0 -12 -13q-66 -295 -92 -381
q-15 -52 -49.5 -87t-87.5 -68q-58 -35 -103 -35q-32 0 -56.5 16.5t-23.5 39.5q0 8 11.5 34.5t21.5 29.5q23 8 37 -6q43 -43 69 -43q12 0 17 1.5t13 14t15 39.5q43 152 101 443q0 12 -7 12l-64 -2q-3 0 -5.5 5t-2.5 8q0 12 7.5 25.5t11.5 13.5q3 0 30 2t37 2q10 3 13 11
q46 142 146 205q56 36 115 36zM623 336q-25 0 -58.5 -27.5t-61.5 -96.5q-1 -4 1.5 -10t8.5 -6q38 0 86 39.5t48 76.5q0 24 -24 24z" />
    <glyph glyph-name="f_l" unicode="fl" horiz-adv-x="572" 
d="M407 656q59 0 97 -22q9 -6 18 -1q22 13 27 15q17 7 22 7q4 0 9.5 -4.5t9 -14.5t-2.5 -25q-116 -411 -134 -496q-2 -12 0.5 -23t9.5 -11q20 0 76 44q5 3 11.5 -1t6.5 -10q0 -20 -9 -34q-28 -45 -75 -69.5t-94 -24.5q-20 0 -37.5 18.5t-17.5 40.5q0 39 45 205
q49 176 73 279q1 4 0.5 14t-2.5 15q-18 45 -63 45q-11 0 -28 -11.5t-26 -25.5q-12 -19 -17.5 -30t-15 -41t-19.5 -77q-1 -4 2.5 -8t6.5 -4l75 3q6 0 10 -4.5t4 -9.5q0 -8 -8 -21t-18 -16q-17 -5 -78 -5q-9 0 -12 -13q-66 -295 -92 -381q-15 -52 -49.5 -87t-87.5 -68
q-58 -35 -103 -35q-32 0 -56.5 16.5t-23.5 39.5q0 8 11.5 34.5t21.5 29.5q23 8 37 -6q43 -43 69 -43q12 0 17 1.5t13 14t15 39.5q43 152 101 443q0 12 -7 12l-64 -2q-3 0 -5.5 5t-2.5 8q0 12 7.5 25.5t11.5 13.5q3 0 30 2t37 2q10 3 13 11q46 142 146 205q56 36 115 36z" />
    <glyph glyph-name="f_r" unicode="fr" horiz-adv-x="677" 
d="M398 660q51 0 75.5 -27t22.5 -54q-2 -35 -30 -55q-20 -15 -37 -15q-6 0 -12 5t-6 9q-2 87 -47 87q-22 0 -42 -31q-30 -49 -54 -161q-1 -4 2.5 -8t6.5 -4l169 8q29 1 45 -16t16 -43q0 -19 -19 -81q-1 -3 1 -5.5t5 -2t5 4.5q45 90 77 120q34 34 71 34q27 0 43.5 -17
t16.5 -36q0 -34 -22 -60t-44 -35q-14 -7 -28 7q-17 21 -25 21q-24 0 -42 -32q-61 -105 -118 -246q-8 -20 -22.5 -30.5t-26.5 -10.5q-35 0 -58 23q-4 4 -4.5 17.5t2.5 21.5q58 174 78 244q18 65 -11 65q-103 -4 -122 -4q-12 0 -15 -16q-47 -211 -96 -374q-26 -90 -132 -156
q-62 -38 -113 -38q-18 0 -46 17.5t-27 41.5q3 49 34 58q23 8 40 -6q43 -39 61 -39q11 0 17.5 2.5t14.5 15.5t15 40q21 73 59.5 235.5t46.5 203.5q0 12 -7 12l-64 -2q-3 0 -5.5 5t-2.5 8q0 12 10 25.5t14 13.5q3 0 27.5 2t34.5 2q9 2 13 11q49 150 147 212q52 33 108 33z" />
    <glyph glyph-name="f_t" unicode="ft" horiz-adv-x="598" 
d="M488 518q69 0 69 -8q0 -9 -25 -91q-3 -12 8 -12l84 1q3 0 5.5 -5.5t2.5 -9.5q0 -7 -7.5 -27.5t-13.5 -19.5l-89 5q-8 0 -12 -8q-8 -26 -31 -95.5t-34 -106.5q-11 -38 4 -38q9 0 35.5 17.5t51.5 39.5q2 1 6 -1.5t7 -8t3 -10.5q0 -24 -21 -47q-28 -31 -88.5 -69t-97.5 -38
q-21 0 -34.5 19.5t-13.5 34.5t10 49q4 11 19.5 59t32.5 102t29 93q3 12 -4 12q-13 0 -55 -1t-54 -1q-8 0 -16 -3.5t-9 -7.5q-51 -225 -100 -391q-10 -36 -31.5 -64t-41.5 -43.5t-56 -37.5q-61 -37 -107 -37q-35 0 -56.5 18t-21.5 35q0 20 7.5 40.5t15.5 22.5q31 11 43 -1
q44 -44 75 -44q14 0 22 9.5t18 44.5q21 72 58.5 233.5t47.5 210.5q0 12 -6 12l-65 -2q-3 0 -5.5 5t-2.5 8q0 12 7.5 25.5t11.5 13.5t17.5 1t30.5 2t23 1t10 11q46 154 143 216q52 33 104 33q49 0 72 -23.5t23 -53.5q0 -31 -27 -51q-20 -15 -35 -15q-22 0 -28 26
q-18 67 -46 67q-12 0 -28 -25q-27 -44 -54 -171q-1 -3 1 -7t4 -4h128q1 0 5.5 4t5.5 6q3 5 17 38t21 46q4 8 17.5 12.5t20.5 4.5z" />
    <glyph glyph-name="longs_b" unicode="&#x17f;b" horiz-adv-x="785" 
d="M395 664q46 0 81 -25q2 -2 8 -3t10 1q36 28 60 28q13 0 15 -23t-3 -34q-67 -219 -80 -271q-1 -4 3.5 -6t7.5 0q106 93 183 93q32 0 55 -28q10 -10 17.5 -32t7.5 -42q0 -70 -48 -152t-125 -133q-79 -52 -161 -52q-49 0 -82.5 32t-33.5 88q0 21 4 35q105 388 107 398
q1 15 -2 25q-22 42 -72 42q-13 0 -21 -4t-21 -21t-27.5 -59.5t-32.5 -112.5q-14 -53 -30.5 -130.5t-36 -177t-27.5 -137.5q-11 -52 -45.5 -87.5t-90.5 -69.5q-58 -35 -115 -35q-19 0 -46.5 16.5t-26.5 40.5q1 15 15.5 33.5t31.5 23.5q16 5 27 -5q40 -40 63 -40q11 0 18 2.5
t15.5 16t15.5 39.5q13 51 43.5 199.5t38.5 185.5q32 139 79 219.5t114 123.5q59 38 107 38zM605 338q-23 0 -46 -15.5t-60 -57.5q-19 -21 -45 -84t-26 -101q0 -13 17 -27.5t30 -14.5t37 20q41 34 79 107t38 135q0 14 -6 26t-18 12z" />
    <glyph glyph-name="longs_h" unicode="&#x17f;h" horiz-adv-x="813" 
d="M399 664q46 0 81 -25q2 -2 8 -3t10 1q36 28 60 28q14 0 17 -16.5t-2 -27.5q-8 -34 -38 -144t-44 -170q0 -3 2.5 -7t6.5 0q60 63 103 92q49 33 102 33q26 0 49 -28.5t23 -70.5q0 -118 -70 -235q-26 -41 -93 -82q-17 -11 -42 -21t-32 -10q-20 0 -36.5 12.5t-17.5 24.5
q0 11 11.5 29t21.5 25q1 1 6 2t7 0q1 -1 21 -13.5t27 -12.5q5 0 7.5 1.5t4.5 3.5t6 9q16 31 34 107.5t18 126.5q0 45 -28 45q-26 0 -62 -40q-62 -69 -149 -274q-7 -17 -16 -26.5t-15 -9.5q-13 0 -32.5 7.5t-28.5 18.5q-12 14 -3 56q1 3 28.5 120t53.5 226t31 133q0 4 -1.5 8
t-3.5 6.5t-2 3.5q-20 38 -71 38q-13 0 -21 -4t-21 -21t-27.5 -59.5t-32.5 -112.5q-14 -53 -30.5 -130.5t-36 -177t-27.5 -137.5q-11 -52 -45.5 -87.5t-90.5 -69.5q-58 -35 -115 -35q-19 0 -46.5 16.5t-26.5 40.5q1 15 15.5 33.5t31.5 23.5q16 5 27 -5q40 -40 63 -40
q11 0 18 2.5t15.5 16t15.5 39.5q13 51 43.5 199.5t38.5 185.5q32 139 79 219.5t114 123.5q59 38 107 38z" />
    <glyph glyph-name="longs_i" unicode="&#x17f;i" horiz-adv-x="567" 
d="M408 662q53 0 82.5 -20.5t29.5 -43.5q0 -22 -22 -48.5t-43 -26.5q-15 0 -29 19q-16 28 -22.5 37t-21.5 17.5t-37 8.5q-16 0 -29.5 -14t-33 -65t-42.5 -144q-16 -64 -46.5 -219t-41.5 -203q-12 -52 -46.5 -86t-90.5 -69q-56 -34 -114 -34q-19 0 -46.5 16.5t-26.5 40.5
q1 15 15.5 33.5t31.5 23.5t27 -5q40 -40 64 -40q33 0 46 53q13 52 45 204t39 181q33 141 80.5 224t116.5 125q58 35 115 35zM485 425q10 0 24.5 -17.5t14.5 -36.5q0 -5 -2 -11t-5 -14t-4 -13l-78 -223q-1 -2 1 -6.5t5 -4.5q22 0 63 33q13 10 21 10q3 0 6.5 -4.5t3.5 -8.5
q0 -23 -26 -56q-27 -34 -78.5 -60.5t-94.5 -26.5q-12 0 -27 14.5t-15 25.5q0 21 10 46q20 43 79 223q4 10 3 16t-2.5 8t-3.5 2q-15 0 -68 -39q-3 -2 -10 6t-7 12q0 21 16 40q22 26 76.5 55.5t97.5 29.5z" />
    <glyph glyph-name="longs_k" unicode="&#x17f;k" horiz-adv-x="782" 
d="M395 664q46 0 81 -25q2 -2 8 -3t10 1q36 28 60 28q13 0 17 -16.5t-1 -29.5q-2 -9 -14.5 -52t-33 -113.5t-36.5 -128.5q-1 -3 2 -6.5t6 -0.5q59 54 108 83q43 24 66 24q28 0 53.5 -19t25.5 -53q0 -50 -47 -92q-9 -9 -27.5 -20.5t-33 -19t-32.5 -17t-19 -9.5q-9 -6 -4 -13
q11 -14 46 -67q14 -22 31 -22q24 0 64 40q14 14 24 14q6 0 9 -14.5t-2 -25.5q-29 -62 -66.5 -92t-75.5 -30q-29 0 -47.5 16t-44.5 59q-7 12 -16 31.5t-14 27.5q-18 30 -35 30q-5 0 -14 -15q-8 -13 -18 -36t-22.5 -54t-19.5 -47q-1 -4 -10.5 -7.5t-15.5 -3.5q-19 0 -42 18.5
t-23 33.5q0 5 5 27q5 18 28 101t55 203t45 180q0 4 -1.5 8t-3.5 6.5t-2 3.5q-20 38 -71 38q-13 0 -21 -4t-21 -21t-27.5 -59.5t-32.5 -112.5q-14 -53 -30.5 -130.5t-36 -177t-27.5 -137.5q-11 -52 -45.5 -87.5t-90.5 -69.5q-58 -35 -115 -35q-19 0 -46.5 16.5t-26.5 40.5
q1 15 15.5 33.5t31.5 23.5q16 5 27 -5q40 -40 63 -40q11 0 18 2.5t15.5 16t15.5 39.5q13 51 43.5 199.5t38.5 185.5q32 139 79 219.5t114 123.5q59 38 107 38zM598 336q-25 0 -58.5 -27.5t-61.5 -96.5q-1 -4 1.5 -10t8.5 -6q38 0 86 39.5t48 76.5q0 24 -24 24z" />
    <glyph glyph-name="longs_l" unicode="&#x17f;l" horiz-adv-x="551" 
d="M395 664q46 0 81 -25q2 -2 8 -3t10 1q36 28 60 28q14 0 17 -17t-3 -32q-8 -29 -45 -157t-61 -215t-33 -129q-2 -12 0.5 -23t9.5 -11q20 0 76 44q5 3 11.5 -1t6.5 -10q0 -20 -9 -34q-28 -45 -75 -69.5t-94 -24.5q-20 0 -37.5 18.5t-17.5 40.5q0 39 45 205q64 229 80 299
q0 4 -1.5 8t-3.5 6.5t-2 3.5q-20 38 -71 38q-13 0 -21 -4t-21 -21t-27.5 -59.5t-32.5 -112.5q-14 -53 -30.5 -130.5t-36 -177t-27.5 -137.5q-11 -52 -45.5 -87.5t-90.5 -69.5q-58 -35 -115 -35q-19 0 -46.5 16.5t-26.5 40.5q1 15 15.5 33.5t31.5 23.5q16 5 27 -5
q40 -40 63 -40q11 0 18 2.5t15.5 16t15.5 39.5q13 51 43.5 199.5t38.5 185.5q32 139 79 219.5t114 123.5q59 38 107 38z" />
    <glyph glyph-name="longs_longs" unicode="&#x17f;&#x17f;" horiz-adv-x="541" 
d="M408 642q31 0 50 -7t48 -28q7 -4 19 5q27 20 65 35t68 15q35 0 56 -17t21 -45q0 -20 -17 -40.5t-34 -20.5q-7 0 -21 17q-28 39 -60 39q-18 0 -30.5 -10.5t-30 -54t-37.5 -127.5q-16 -68 -67 -327q-30 -158 -127 -223q-50 -33 -82 -47t-65 -14q-21 0 -48 12t-45 28
q-1 1 -6 1t-7 -1q-34 -27 -77.5 -44t-75.5 -17q-22 0 -47 17t-26 40q-1 12 13.5 30t32.5 27q4 2 12 2t11 -3q8 -7 18.5 -17t16 -14.5t15 -8.5t21.5 -4q15 0 24 11t20.5 50t30.5 129q13 58 25.5 127.5t19.5 100.5q15 71 37 129t40.5 91.5t44 61.5t37 37.5t30.5 21.5
q23 16 60 29.5t67 13.5zM365 585q-17 0 -29.5 -5.5t-28 -23t-30.5 -58t-30 -104.5q-23 -98 -69 -336q-22 -106 -46 -146q-4 -9 2 -15q41 -41 84 -41q15 0 25 8.5t25 48.5t34 118q9 35 31.5 141.5t41.5 176.5q29 111 66 168q3 4 3 11.5t-2 10.5q-11 19 -34.5 32.5t-42.5 13.5
z" />
    <glyph glyph-name="longs_longs_i" unicode="&#x17f;&#x17f;i" horiz-adv-x="836" 
d="M412 642q63 0 108 -33q7 -5 17 3q25 19 70 34.5t77 15.5q53 0 82.5 -20.5t29.5 -43.5q0 -22 -22 -48.5t-43 -26.5q-15 0 -29 19q-25 41 -35 49q-15 11 -43 11q-18 0 -32.5 -12t-34.5 -58t-40 -129q-16 -68 -67 -327q-30 -158 -127 -223q-91 -61 -157 -61q-21 0 -48 12
t-45 28q-1 1 -6 1t-7 -1q-34 -27 -77.5 -44t-75.5 -17q-22 0 -47 17t-26 40q-1 12 13.5 30t32.5 27q4 2 12 2t11 -3q8 -7 18.5 -17t16 -14.5t15 -8.5t21.5 -4q15 0 24 11t20.5 50t30.5 129q13 58 25.5 127.5t19.5 100.5q15 71 37 129t40.5 91.5t44 61.5t37 37.5t30.5 21.5
q23 16 61 29.5t68 13.5zM377 585q-18 0 -32 -5.5t-32 -23t-35 -58.5t-32 -104q-16 -67 -26 -118.5t-21 -113t-19 -104.5q-22 -106 -46 -146q-4 -9 2 -15q41 -41 84 -41q16 0 27.5 8.5t30 49t36.5 117.5q9 35 31.5 141.5t41.5 176.5q29 111 66 168q3 5 4 13t-1 11
q-11 18 -35.5 31t-43.5 13zM761 425q10 0 24.5 -17.5t14.5 -36.5q0 -5 -2 -11t-5 -14t-4 -13l-78 -223q-1 -2 1 -6.5t5 -4.5q22 0 63 33q13 10 21 10q3 0 6.5 -4.5t3.5 -8.5q0 -23 -26 -56q-27 -34 -78.5 -60.5t-94.5 -26.5q-12 0 -27 14.5t-15 25.5q0 21 10 46
q20 43 79 223q4 10 3 16t-2.5 8t-3.5 2q-15 0 -68 -39q-3 -2 -10 6t-7 12q0 21 16 40q22 26 76.5 55.5t97.5 29.5z" />
    <glyph glyph-name="longs_longs_l" unicode="&#x17f;&#x17f;l" horiz-adv-x="815" 
d="M417 642q33 0 53 -6.5t47 -26.5q6 -4 15 3q25 19 67 35.5t66 16.5q49 0 84 -25q7 -7 15 -2q36 28 60 28q14 0 17 -17t-3 -32q-8 -29 -45 -157t-61 -215t-33 -129q-2 -12 0.5 -23t9.5 -11q20 0 76 44q5 3 11.5 -1t6.5 -10q0 -20 -9 -34q-28 -45 -75 -69.5t-94 -24.5
q-20 0 -37.5 18.5t-17.5 40.5q0 39 45 205q58 210 78 294q1 7 -4 21q-20 38 -64 38q-59 0 -110 -195q-16 -68 -68 -332q-30 -158 -127 -223q-91 -61 -157 -61q-21 0 -48 12t-45 28q-1 1 -6 1t-7 -1q-34 -27 -77.5 -44t-75.5 -17q-22 0 -47 17t-26 40q-1 12 13.5 30t32.5 27
q3 2 11.5 2t11.5 -3q8 -7 18.5 -17t16 -14.5t15 -8.5t21.5 -4q15 0 24 11t20.5 50t30.5 129q13 58 25.5 127.5t19.5 100.5q15 71 37 129t40.5 91.5t44 61.5t37 37.5t30.5 21.5q22 16 64.5 29.5t72.5 13.5zM364 585q-17 0 -30 -5.5t-29 -23t-31.5 -58.5t-30.5 -104
q-16 -67 -26 -118.5t-21 -113t-19 -104.5q-22 -106 -46 -146q-4 -9 2 -15q41 -41 84 -41q16 0 27.5 8.5t30 49t36.5 117.5q9 35 31.5 141.5t41.5 176.5q29 111 66 168q3 5 4 13t-1 11q-10 18 -39.5 31t-49.5 13z" />
    <glyph glyph-name="Tcommaaccent_h" unicode="&#x162;h" horiz-adv-x="1086" 
d="M978 425q26 0 49 -28.5t23 -70.5q0 -54 -13 -108.5t-25 -82.5t-23 -46q-4 -7 -9 -13t-13 -12.5t-12.5 -10.5t-15.5 -11t-14.5 -9t-17 -10.5t-15.5 -9.5q-18 -11 -44.5 -23t-33.5 -12q-20 0 -36 12.5t-17 24.5q0 11 11.5 31t21.5 27q1 1 6 2t7 0t21.5 -15.5t26.5 -14.5
q5 0 7.5 1.5t4.5 3.5t6 9q16 30 33 107t17 127q0 45 -28 45q-26 0 -62 -40q-62 -69 -149 -274q-7 -17 -16 -26.5t-15 -9.5q-13 0 -32.5 7.5t-28.5 18.5q-12 14 -3 56q1 2 51 209t57 239q2 10 -1.5 19.5t-10.5 9.5q-10 0 -85.5 -1.5t-81.5 -1.5q-3 0 -8.5 -4.5t-6.5 -10.5
q-13 -38 -53 -191t-58 -228q-2 -10 -2 -17.5t1 -13t7 -10.5t9 -8t14 -7t15.5 -5.5t19.5 -5.5q25 -7 25 -25q-1 -9 -10 -15.5t-22 -6.5q-12 0 -45 2t-56 2q-45 0 -119 -4t-79 -4q-17 0 -25.5 7.5t-7.5 14.5q2 18 34 26q43 10 61.5 26.5t32.5 60.5q7 21 110 399q2 12 -8 14
l-41 4q-40 3 -48 3q-60 0 -128 -81q-8 -9 -16 -9q-7 0 -15.5 12t-5.5 19t26 53t32 72q1 4 9 9.5t12 5.5q2 0 16 -7q26 -14 51 -19q16 -4 108 -4h321q40 0 52 13q2 2 8.5 10.5t12 14.5t13 11.5t13.5 5.5t33.5 -5.5t40.5 -11.5q11 -5 8 -25q-8 -34 -39.5 -139t-45.5 -165
q0 -3 2.5 -7t6.5 0q60 63 103 92q49 33 102 33zM203 -262q-9 0 -19.5 7t-10.5 15q0 5 5.5 12t12.5 9q28 7 50 26.5t22 37.5q0 17 -19 24q-17 5 -24 14t-7 27q0 17 20 36t48 19q26 0 47.5 -23.5t21.5 -59.5q0 -67 -48.5 -105.5t-98.5 -38.5z" />
    <glyph glyph-name="Tcaron_h" unicode="&#x164;h" horiz-adv-x="1086" 
d="M978 425q26 0 49 -28.5t23 -70.5q0 -54 -13 -108.5t-25 -82.5t-23 -46q-4 -7 -9 -13t-13 -12.5t-12.5 -10.5t-15.5 -11t-14.5 -9t-17 -10.5t-15.5 -9.5q-18 -11 -44.5 -23t-33.5 -12q-20 0 -36 12.5t-17 24.5q0 11 11.5 31t21.5 27q1 1 6 2t7 0t21.5 -15.5t26.5 -14.5
q5 0 7.5 1.5t4.5 3.5t6 9q16 30 33 107t17 127q0 45 -28 45q-26 0 -62 -40q-62 -69 -149 -274q-7 -17 -16 -26.5t-15 -9.5q-13 0 -32.5 7.5t-28.5 18.5q-12 14 -3 56q1 2 51 209t57 239q2 10 -1.5 19.5t-10.5 9.5q-10 0 -85.5 -1.5t-81.5 -1.5q-3 0 -8.5 -4.5t-6.5 -10.5
q-13 -38 -53 -191t-58 -228q-2 -10 -2 -17.5t1 -13t7 -10.5t9 -8t14 -7t15.5 -5.5t19.5 -5.5q25 -7 25 -25q-1 -9 -10 -15.5t-22 -6.5q-12 0 -45 2t-56 2q-45 0 -119 -4t-79 -4q-17 0 -25.5 7.5t-7.5 14.5q2 18 34 26q43 10 61.5 26.5t32.5 60.5q7 21 110 399q2 12 -8 14
l-41 4q-40 3 -48 3q-60 0 -128 -81q-8 -9 -16 -9q-7 0 -15.5 12t-5.5 19t26 53t32 72q1 4 9 9.5t12 5.5q2 0 16 -7q26 -14 51 -19q16 -4 108 -4h321q40 0 52 13q2 2 8.5 10.5t12 14.5t13 11.5t13.5 5.5t33.5 -5.5t40.5 -11.5q11 -5 8 -25q-8 -34 -39.5 -139t-45.5 -165
q0 -3 2.5 -7t6.5 0q60 63 103 92q49 33 102 33zM431 631q-17 0 -33 20l-77 96q-12 17 -7.5 27t17.5 10q20 0 40 -11q43 -23 78 -46q2 -1 10.5 -1t9.5 1q70 34 121 52q16 7 41 7q5 0 8.5 -5t1 -14.5t-12.5 -19.5q-7 -7 -32.5 -23t-62 -38.5t-61.5 -40.5q-18 -14 -41 -14z" />
    <glyph glyph-name="gamma_gamma" unicode="&#x3b3;&#x3b3;" horiz-adv-x="826" 
d="M473 312q-41 -1 -105.5 -75t-118.5 -200q-23 -55 -24 -60q-41 -148 -48 -162q-11 -21 -24 -32t-20 -11q-23 0 -55 25t-32 47t21 53q30 45 104 139q25 31 25 106q0 47 -6 79.5t-14 48.5t-21.5 25t-21.5 10t-21 1q-35 0 -73 -27q-6 -4 -13.5 2t-7.5 17q0 20 10 38
q20 36 59 65.5t85 29.5q103 0 103 -136q0 -28 -3 -52.5t-10 -56t-7 -33.5q-1 -3 2 -3q3 -1 5 2q24 52 52 97.5t63 88t76 67.5t82 25q100 0 100 -136q0 -65 -14 -142q-1 -3 2 -3q3 -1 5 2q98 134 140 277q4 12 21 12q9 0 21 -9.5t15 -17.5q16 -42 -13 -102
q-26 -52 -103.5 -152t-93.5 -123q-15 -20 -24 -60q-39 -140 -42 -149q-8 -22 -22 -32.5t-22 -10.5q-26 0 -56 20.5t-30 51.5q0 16 24 52q31 47 93 126q35 44 35 108q0 47 -6.5 80t-15 50.5t-23 27t-26 11t-27.5 1.5z" />
    <glyph glyph-name="lambda_lambda" unicode="&#x3bb;&#x3bb;" horiz-adv-x="834" 
d="M233 651q30 0 50 -14.5t29 -42t12.5 -54t3.5 -63.5q0 -22 1 -84t1.5 -98.5t3 -77.5t7.5 -57q8 -29 15.5 -40.5t25.5 -11.5q21 0 39 27q6 9 150 198q31 45 52 61q14 10 12 17q-3 73 -26 111t-85 38q-23 0 -51.5 -7.5t-39.5 -14.5q-1 -1 -4 3.5t-5.5 10t-1.5 9.5
q3 12 20 33t30 30q51 39 101 39q115 0 117 -164q6 -308 16 -344q7 -25 16.5 -36t27.5 -11q10 0 20 3t24.5 10t19.5 9q3 1 6 -4t4.5 -12t0.5 -11q-3 -17 -20 -44q-46 -71 -114 -71q-58 0 -60 89q-1 26 1.5 107.5t3.5 91.5q-2 1 -10 -6q-3 -4 -36.5 -54t-68 -100.5
t-34.5 -51.5q-50 -76 -117 -76q-47 0 -71 29.5t-28 98.5q-1 25 1.5 85.5t3.5 74.5q-2 1 -10 -6q-2 -4 -65.5 -115.5t-65.5 -114.5q-10 -19 -26.5 -38.5t-30.5 -19.5q-11 0 -37.5 11t-36.5 21q-4 4 -6.5 16.5t-0.5 16.5q27 41 214 286q31 45 52 61q12 9 12 17q0 128 -81 128
q-15 0 -29 -2.5t-29 -7t-18 -5.5q-1 0 -2.5 1.5t-3 5l-3 7t-2.5 7t0 5.5q7 31 32 56q43 45 94 45z" />
    <glyph glyph-name=".notdef" horiz-adv-x="500" 
d="M0 0v700h500v-700h-500zM250 395l170 255h-340zM280 350l170 -255v510zM80 50h340l-170 255zM50 605v-510l170 255z" />
    <glyph glyph-name=".null" horiz-adv-x="0" 
 />
    <glyph glyph-name="nonmarkingreturn" horiz-adv-x="333" 
 />
    <glyph glyph-name="space" unicode=" " horiz-adv-x="205" 
 />
    <glyph glyph-name="exclam" unicode="!" horiz-adv-x="351" 
d="M289 618q14 0 32.5 -8.5t26.5 -19.5q23 -35 -9 -117q-50 -122 -121 -239q-19 -31 -38 -31q-7 0 -17 12t-9 23q5 134 25 259q16 97 50 111q24 10 60 10zM159 155q71 0 73 -82q1 -39 -27 -63t-58 -24q-40 0 -58 23.5t-18 57.5q2 35 25.5 61.5t62.5 26.5z" />
    <glyph glyph-name="quotedbl" unicode="&#x22;" horiz-adv-x="371" 
d="M235 669q7 0 16 -12t7 -28q-5 -36 -27.5 -86t-52.5 -92q-11 -16 -30 -28t-33 -12q-7 0 -12.5 6.5t-3.5 11.5q35 155 38 198q1 3 7 11t9 9q40 22 82 22zM425 672q7 0 16 -12t7 -28q-5 -36 -27.5 -85.5t-52.5 -91.5q-11 -16 -30 -28t-33 -12q-7 0 -12.5 6.5t-3.5 11.5
q1 6 8.5 37t12.5 52t10 52.5t7 55.5q1 3 7 11t9 9q40 22 82 22z" />
    <glyph glyph-name="numbersign" unicode="#" horiz-adv-x="525" 
d="M539 429q-1 -1 -4.5 -13.5t-8 -24.5t-6.5 -15q-9 -13 -16 -13l-74 -3q-5 -3 -7 -7l-34 -85q-2 -7 5 -7l72 1q3 0 6 -9t2 -14q-2 -7 -14 -38t-16 -37q-2 -3 -11 -7l-2 -1l-77 -2q-3 0 -8 -7l-60 -154q-3 -6 -12 -6q-8 0 -24 4q-4 1 -7 4.5t-2 6.5l51 144q3 8 -4 8l-88 -2
q-3 0 -8 -5l-59 -155q-5 -10 -14 -10q-10 0 -26 6q-11 5 -8 13l54 144q3 5 -4 5h-67q-1 0 -2.5 2t-3 5.5t-1.5 6.5q2 10 12.5 44.5t14.5 38.5q10 8 15 8l69 2q6 0 9 6l35 85q2 7 -4 7l-68 -2q-4 0 -9.5 3.5t-5.5 8.5q0 10 4 32q15 60 27 60l84 3q8 0 12 9l54 127q0 3 6 9
t9 6q20 0 29 -3q11 -5 8 -10l-51 -130q-3 -7 5 -7l81 2q5 0 11 9l51 127q3 9 13 11q5 1 28 -2q10 -3 9 -10l-48 -126q-1 -2 0 -4.5t2 -2.5h64q3 0 7 -4t6.5 -12t-1.5 -20zM373 354q2 6 -4 6l-93 -4q-9 0 -11 -10l-32 -80q0 -7 4 -7l93 2q7 3 8 6z" />
    <glyph glyph-name="dollar" unicode="$" horiz-adv-x="525" 
d="M354 593l20 61q5 8 9 8q14 0 30 -8q5 -2 5 -11l-15 -54q-1 -2 0.5 -5t4.5 -3q41 -9 62 -21q16 -8 32 -3q1 0 10.5 3t12.5 3q5 0 11.5 -7.5t4.5 -12.5q-38 -81 -43 -121q-1 -9 -12 -19t-18 -10q-3 0 -5.5 1t-4 3t-2.5 4t-1.5 6t-1 6.5t-1 8t-0.5 8.5q-1 19 -2.5 29
t-6.5 27t-17 29.5t-31 20.5q-5 2 -8 -4l-48 -160q-3 -9 3 -13q70 -51 101 -89.5t31 -85.5q0 -54 -29.5 -97t-75.5 -65q-47 -23 -135 -26q-7 0 -9 -8l-21 -63q-3 -9 -11 -9q-17 0 -29 7q-9 6 -6 12l18 61q2 5 -5 8q-35 7 -84 33q-12 7 -31 -1q-29 -11 -38 -4q-4 3 -6.5 12
t-0.5 12q8 19 22.5 72t16.5 59q5 15 13.5 25.5t14.5 10.5q9 0 15.5 -12.5t6.5 -26.5q2 -48 26 -82.5t60 -47.5q6 -3 8 3l55 174q3 11 -2 13q-126 86 -126 179q0 86 65 129.5t158 36.5q7 -2 10 4zM297 396l41 142q3 5 -5 8q-43 2 -68 -22t-25 -53q0 -28 11 -44.5t36 -34.5
q2 -1 6 0.5t4 3.5zM290 200l-47 -152q-1 -6 7 -6q48 5 75 31t25 55q-1 20 -11 37t-40 41q-2 2 -5.5 -0.5t-3.5 -5.5z" />
    <glyph glyph-name="percent" unicode="%" horiz-adv-x="782" 
d="M629 331q55 0 86 -36t31 -83q0 -91 -61 -157.5t-142 -66.5q-55 0 -84 34t-29 83q0 82 56.5 154t142.5 72zM290 598q55 0 85.5 -34t30.5 -81q0 -91 -61 -159.5t-142 -68.5q-55 0 -84 34t-29 83q0 82 57 154t143 72zM662 603q6 0 16.5 -6.5t13.5 -12.5q1 -1 1 -7.5t-2 -8.5
l-503 -581q-14 -14 -20 -14q-9 0 -18 7.5t-13 14.5q-1 2 1 9t4 9l496 573q16 17 24 17zM286 556q-36 0 -65.5 -78t-29.5 -137q0 -13 6.5 -26.5t18.5 -13.5q34 0 64 82t30 125q0 48 -24 48zM626 289q-36 0 -65.5 -78t-29.5 -137q0 -13 6.5 -26.5t18.5 -13.5q34 0 64 82
t30 125q0 48 -24 48z" />
    <glyph glyph-name="ampersand" unicode="&#x26;" horiz-adv-x="807" 
d="M293 475q23 0 49.5 -17.5t35.5 -56.5q1 -6 2 -6q2 0 6 4q44 44 65 86q11 22 5 51q-2 9 -14 28.5t-12 27.5q0 19 11 37q6 11 21 20.5t32 9.5q20 0 36.5 -21t16.5 -51q0 -53 -25 -92.5t-104 -127.5l-24 -27q-29 -32 -102.5 -96t-85.5 -71q-3 -3 -2 -8q6 -32 45 -59.5
t94 -27.5q77 0 126 33q54 36 82 84t27 91q0 4 -6 20q-2 5 -21 15t-31 10q-21 0 -31 -7t-11.5 -14t-0.5 -18q0 -9 3.5 -16.5t9 -16t8.5 -14.5q2 -6 -2 -16q-7 -15 -25.5 -30t-35.5 -15q-12 0 -22.5 16.5t-11.5 41.5q-2 47 52 101q23 22 60 37.5t60 15.5q61 0 132 -53
q18 -14 25 -14q11 0 11 14t-8 40q-19 49 -20 53q-1 6 3.5 9.5t13.5 3.5q34 0 52.5 -29.5t18.5 -55.5q-4 -71 -77 -101q-24 -11 -55 1q-19 8 -28 13q-12 8 -13 -5q-3 -24 -5 -32q-22 -100 -85 -174q-44 -51 -105 -78t-125 -27q-67 0 -117 24t-75.5 61.5t-37 74.5t-11.5 73
q0 135 96 216q25 22 64.5 43.5t65.5 21.5zM181 222q2 -5 8 -2q17 10 46.5 34.5t46.5 43.5q9 12 8 36q-1 19 -17.5 45t-41.5 26q-9 0 -21 -10.5t-23.5 -40.5t-11.5 -72q0 -31 6 -60z" />
    <glyph glyph-name="quotesingle" unicode="'" horiz-adv-x="185" 
d="M239 669q7 0 16 -12t7 -28q-5 -36 -27.5 -85.5t-52.5 -91.5q-11 -16 -32 -28t-35 -12q-7 0 -12.5 6.5t-3.5 11.5q1 6 8.5 37t12.5 52t10 52.5t7 55.5q1 3 7 11t9 9q40 22 86 22z" />
    <glyph glyph-name="parenleft" unicode="(" horiz-adv-x="380" 
d="M463 727q9 0 17 -4.5t8 -12.5q0 -18 -21 -33q-282 -214 -282 -581q0 -134 48 -260q4 -10 0.5 -20.5t-10.5 -10.5q-24 0 -39 12q-12 10 -28 32.5t-35.5 61t-32.5 98t-13 127.5q0 89 21.5 170.5t54.5 142.5t78 113.5t88 86.5t87 58q38 20 59 20z" />
    <glyph glyph-name="parenright" unicode=")" horiz-adv-x="380" 
d="M-27 -195q-9 0 -17 4.5t-8 12.5q0 18 21 33q282 214 282 581q0 134 -48 260q-4 10 -0.5 20.5t10.5 10.5q24 0 39 -12q12 -10 28 -32.5t35.5 -61t32.5 -98t13 -127.5q0 -89 -21.5 -170.5t-54.5 -142.5t-78 -113.5t-88 -86.5t-87 -58q-38 -20 -59 -20z" />
    <glyph glyph-name="asterisk" unicode="*" horiz-adv-x="380" 
d="M452 511q0 -6 -8.5 -15.5t-18.5 -13.5q-54 -22 -87 -31q-7 -3 0 -13q17 -15 66 -76q13 -15 13 -37q0 -3 -8 -4t-18.5 1t-15.5 5q-40 25 -86 71q-6 8 -10 -1q-21 -67 -35 -96q-13 -27 -32 -27q-6 0 -10.5 9t-3.5 25q2 25 18 104q1 5 -4 5q-3 0 -7 -1q-81 -19 -108 -19
q-33 0 -33 14q0 6 7 15t16 13q15 7 100 37q7 2 7.5 3t-4.5 9q-4 4 -18.5 17.5t-22.5 22t-18.5 21t-16.5 23.5q-8 12 -1 23t23 6q33 -7 98 -65q10 -9 13 1q27 77 36 93q13 23 28 23q5 0 9 -8t4 -20q0 -42 -10 -97q-1 -5 -0.5 -7t3.5 -3t8 0q13 4 49 8.5t49 3.5q29 -4 29 -19z
" />
    <glyph glyph-name="plus" unicode="+" horiz-adv-x="646" 
d="M600 221l-202 -2q-8 0 -8 -9v-207q0 -15 -20.5 -23t-39.5 -8q-22 0 -22 25v209q0 5 -6.5 9t-12.5 4l-191 1q-13 0 -20 8t-7 17q0 14 8 31t18 17l203 1q2 0 5 4t3 6v202q0 9 22.5 17t37.5 8q10 0 17 -7.5t7 -18.5l-2 -201q0 -4 2 -6.5t4 -3t3 -0.5l206 -1q10 0 15 -7.5
t5 -14.5q0 -20 -7.5 -35t-17.5 -15z" />
    <glyph glyph-name="comma" unicode="," horiz-adv-x="260" 
d="M113 161q39 0 57 -27t18 -61q0 -64 -58.5 -114.5t-115.5 -65.5q-9 -3 -24 3t-15 16q0 16 24 30q17 10 24.5 15t23 18t23 26t7.5 27q0 23 -35 31q-6 1 -10.5 10t-4.5 17q0 28 26 51.5t60 23.5z" />
    <glyph glyph-name="hyphen" unicode="-" horiz-adv-x="358" 
d="M76 249l215 22q9 1 16 -8t7 -16q0 -30 -19 -57q-8 -11 -18 -11l-205 -16q-10 -1 -16.5 8.5t-6.5 18.5q0 27 13 46q9 13 14 13z" />
    <glyph glyph-name="period" unicode="." horiz-adv-x="244" 
d="M114 155q71 0 73 -82q1 -39 -27 -63t-58 -24q-40 0 -58 23.5t-18 57.5q2 35 25.5 61.5t62.5 26.5z" />
    <glyph glyph-name="slash" unicode="/" horiz-adv-x="380" 
d="M-12 -31q277 475 391 681q12 18 23 18q14 0 44 -15q5 -2 7.5 -8.5t0.5 -9.5q-39 -67 -179 -310t-215 -375q-13 -23 -26 -23q-5 0 -21 6.5t-21 9.5t-6.5 11.5t2.5 14.5z" />
    <glyph glyph-name="zero" unicode="0" horiz-adv-x="525" 
d="M360 598q58 0 98.5 -31.5t56 -72t15.5 -84.5q0 -85 -30 -174.5t-82 -153.5q-37 -45 -91.5 -69t-101.5 -24q-89 0 -133.5 56t-42.5 142q1 80 33.5 168t75.5 138q91 105 202 105zM359 552q-41 0 -79 -69q-43 -77 -67.5 -185.5t-24.5 -192.5q0 -32 12 -50.5t27 -18.5
q19 0 32.5 14t31.5 44q43 73 74.5 204t31.5 187q0 32 -11 49.5t-27 17.5z" />
    <glyph glyph-name="one" unicode="1" horiz-adv-x="525" 
d="M45 18q0 18 40 26q36 8 52.5 18.5t25.5 36.5q39 102 82 260q19 69 31 122q2 8 -2 14.5t-12 7.5q-17 2 -47 6q-32 4 -32 23q0 20 37 24q144 18 181 34q19 8 30 8q8 0 15 -9.5t5 -15.5q-2 -5 -10 -28.5t-20 -63.5q-66 -213 -101 -366q-7 -29 1 -45t47 -25q11 -2 22.5 -9.5
t11.5 -16.5t-12 -15.5t-28 -6.5t-78 1.5t-76 1.5q-30 0 -67.5 -2.5t-50.5 -2.5q-45 0 -45 23z" />
    <glyph glyph-name="two" unicode="2" horiz-adv-x="525" 
d="M320 598q87 0 130.5 -47.5t43.5 -108.5q0 -60 -32.5 -104.5t-87.5 -85.5q-71 -53 -187 -129q-4 -2 -2.5 -6t5.5 -4q149 -3 202 6q34 6 60 36q18 22 29 22q10 0 14.5 -11.5t0.5 -25.5q-5 -21 -34 -70.5t-34 -60.5q-6 -14 -25 -14q-4 0 -131.5 2.5t-154.5 2.5h-93
q-10 0 -19.5 6.5t-9.5 15.5q0 12 25 34q107 74 180 137q34 29 55.5 49.5t45.5 49.5t35.5 59t11.5 61q0 44 -26 66t-60 22q-47 0 -106 -43q-28 -19 -38 -19q-12 0 -14.5 15t7.5 30q31 45 88.5 80t120.5 35z" />
    <glyph glyph-name="three" unicode="3" horiz-adv-x="525" 
d="M319 598q73 0 116.5 -33.5t43.5 -80.5q0 -69 -78 -110q-20 -10 -65 -30q-4 -2 -4 -4.5t5 -4.5q71 -20 107 -58q31 -34 31 -85q0 -67 -59 -124.5t-167 -87.5q-71 -21 -127 -21q-59 0 -88 22q-23 18 -23 51q0 15 11 32.5t22 17.5q14 0 24 -8q74 -56 118 -56q59 0 96 48
t37 104q0 46 -24.5 72t-68.5 26q-10 0 -36 -4q-14 -2 -19 -2q-7 0 -14.5 6t-7.5 12q0 20 28 33q48 21 70 31q86 42 86 112q0 32 -20 51.5t-52 19.5q-27 0 -55.5 -22.5t-42.5 -48.5q-3 -6 -12.5 -8t-12.5 1q-17 15 -17 40q-1 8 6 20.5t14 18.5q89 70 178 70z" />
    <glyph glyph-name="four" unicode="4" horiz-adv-x="525" 
d="M257 174q-146 0 -212 -5q-12 0 -22 9.5t-10 20.5q0 9 20 26q6 6 75 73.5t100 96.5t88.5 81t103.5 89q7 6 40 19.5t48 13.5q7 0 15.5 -10.5t5.5 -20.5q-15 -55 -43 -173.5t-34 -142.5q-1 -5 1 -8t5 -2q52 2 74 2q4 0 7.5 -6t2.5 -11q0 -24 -12 -39q-7 -7 -15 -9
q-24 -3 -75 -3q-2 0 -6 -3.5t-5 -7.5q-6 -21 -16.5 -69t-19.5 -83q-6 -19 -22 -25q-42 -17 -118 -17q-8 0 -15 11t-5 19q34 114 48 165q1 2 -0.5 5.5t-3.5 3.5zM274 235q10 1 12 11q10 27 32.5 104.5t23.5 88.5q1 6 -3.5 6t-8.5 -3q-119 -106 -201 -195q-4 -5 -2.5 -8
t5.5 -3q10 -1 142 -1z" />
    <glyph glyph-name="five" unicode="5" horiz-adv-x="525" 
d="M242 577q31 6 121 13.5t125 7.5q6 0 12 -5t6 -11q-1 -25 -17.5 -54.5t-41.5 -48.5q-14 -10 -36 -10q-29 0 -89 1t-89 1q-10 0 -16 -6q-11 -11 -17 -31q-2 -12 8 -16q108 -50 114 -53q72 -38 110.5 -79.5t38.5 -103.5q0 -88 -86 -150q-40 -29 -106 -50.5t-135 -21.5
q-34 0 -71 17t-37 51q0 15 14 35q4 7 17 13t21 3q9 -4 38.5 -19.5t56 -25.5t48.5 -10q40 0 73 25.5t33 75.5q0 78 -154 151q-36 16 -52.5 35t-16.5 34q0 25 15 65q12 29 34 70.5t41 64.5q25 29 38 32z" />
    <glyph glyph-name="six" unicode="6" horiz-adv-x="525" 
d="M362 404q59 0 94.5 -43.5t37.5 -98.5q2 -61 -22 -116.5t-68 -93.5q-35 -30 -86.5 -47.5t-102.5 -17.5q-74 0 -121.5 46.5t-47.5 132.5q0 113 75 223t203 179q129 67 198 67q38 0 38 -23q0 -7 -7.5 -13.5t-14.5 -9.5q-70 -29 -143 -80.5t-113 -108.5q-2 -2 0 -6t4 -3
q37 13 76 13zM292 348q-26 0 -47 -24q-28 -31 -44.5 -90.5t-16.5 -119.5q0 -41 14 -61t37 -20q27 0 59 41q6 7 18.5 34.5t25 73.5t11.5 84q-3 82 -57 82z" />
    <glyph glyph-name="seven" unicode="7" horiz-adv-x="525" 
d="M355 586q70 0 136.5 1.5t76.5 1.5q17 0 17 -13q0 -30 -32 -75q-254 -336 -391 -528q-13 -18 -26 -18q-8 0 -20.5 13.5t-13.5 23.5q0 10 18 31q41 53 112.5 142.5t121 154.5t97.5 132q2 2 1 7t-3 5q-36 4 -104 4q-117 0 -141 -3q-29 -4 -54 -53q-2 -3 -8 -8t-10 -5
q-10 0 -19.5 8.5t-9.5 18.5q0 7 35.5 75.5t44.5 79.5q8 8 19 8q2 0 54 -1.5t99 -1.5z" />
    <glyph glyph-name="eight" unicode="8" horiz-adv-x="525" 
d="M349 609q70 0 117 -37.5t47 -98.5q0 -48 -47 -85q-13 -11 -47.5 -30.5t-42.5 -24.5t-1 -12q53 -54 71.5 -84.5t18.5 -73.5q0 -35 -25 -71t-63 -59q-71 -44 -151 -44q-90 0 -140.5 39t-50.5 100q0 48 51 90q35 28 106 67q10 6 6 14q-64 67 -64 135q0 86 84 138
q60 37 131 37zM330 564q-27 0 -52 -20.5t-25 -60.5q0 -25 14 -49t60 -71q2 -2 8.5 -3t7.5 1q75 51 75 113q0 37 -25 63.5t-63 26.5zM253 36q44 0 64.5 24.5t20.5 50.5q0 57 -92 145q-5 5 -16 2q-84 -53 -84 -118q0 -45 33.5 -74.5t73.5 -29.5z" />
    <glyph glyph-name="nine" unicode="9" horiz-adv-x="525" 
d="M354 598q83 0 127 -51.5t47 -120.5q4 -136 -101 -266q-53 -66 -134.5 -117.5t-139.5 -76.5q-46 -20 -68 -20q-10 0 -19.5 6.5t-9.5 18.5q0 11 27 27q145 89 222 196q4 6 -1 8q-1 1 -2 0q-38 -14 -77 -14q-53 0 -93.5 39.5t-43.5 113.5q-2 45 20.5 94t62.5 86
q81 77 183 77zM346 552q-12 0 -28 -10.5t-28 -25.5q-25 -30 -44 -78.5t-19 -102.5q0 -46 19.5 -67.5t42.5 -21.5q42 0 63 35q15 25 30.5 87.5t13.5 107.5q-2 76 -50 76z" />
    <glyph glyph-name="colon" unicode=":" horiz-adv-x="340" 
d="M144 155q71 0 73 -82q1 -39 -27 -63t-58 -24q-40 0 -58 23.5t-18 57.5q2 35 25.5 61.5t62.5 26.5zM197 409q71 0 73 -82q1 -39 -27.5 -63t-58.5 -24q-39 0 -57 23.5t-18 57.5q2 35 25.5 61.5t62.5 26.5z" />
    <glyph glyph-name="semicolon" unicode=";" horiz-adv-x="340" 
d="M197 409q71 0 73 -82q1 -39 -27.5 -63t-58.5 -24q-39 0 -57 23.5t-18 57.5q2 35 25.5 61.5t62.5 26.5zM143 161q39 0 57 -27t18 -61q0 -64 -58.5 -114.5t-115.5 -65.5q-9 -3 -24 3t-15 16q0 16 24 30q17 10 24.5 15t23 18t23 26t7.5 27q0 23 -35 31q-6 1 -10.5 10
t-4.5 17q0 28 26 51.5t60 23.5z" />
    <glyph glyph-name="less" unicode="&#x3c;" horiz-adv-x="646" 
d="M543 24q-3 -3 -11 -4.5t-13 0.5q-53 26 -110.5 57t-128.5 70t-109 60q-49 26 -49 44q0 9 14.5 23.5t30.5 23.5l353 193q1 1 9.5 0.5t13.5 -3.5q15 -15 19 -44q2 -14 -7 -17l-316 -168q-5 -3 0 -6l325 -168q1 0 2 -2t2 -5.5t0 -7.5q-6 -28 -25 -46z" />
    <glyph glyph-name="equal" unicode="=" horiz-adv-x="646" 
d="M609 323h-507q-12 0 -19 7.5t-7 16.5q0 11 6.5 28.5t13.5 17.5l516 3q10 0 14 -8t4 -13q0 -16 -7.5 -34t-13.5 -18zM614 121l-515 -2q-22 0 -22 32q0 10 6 24t10 14l525 4q6 0 10 -15t4 -25t-6.5 -21t-11.5 -11z" />
    <glyph glyph-name="greater" unicode="&#x3e;" horiz-adv-x="646" 
d="M575 259q0 -21 -53 -51l-345 -189q-2 -2 -9.5 -1.5t-9.5 2.5q-21 18 -24 48q0 11 8 15l316 167q6 3 2 7l-323 165q-4 2 -6.5 9t-0.5 14q5 21 26 42q2 2 9.5 4t8.5 1q143 -74 357 -192q44 -25 44 -41z" />
    <glyph glyph-name="question" unicode="?" horiz-adv-x="422" 
d="M253 615q31 0 52 -6.5t51 -27.5q25 -17 43.5 -50.5t18.5 -65.5q0 -54 -58 -97q-16 -12 -30.5 -20t-33 -16.5t-32.5 -16.5q-13 -7 -22 -20t-9 -21q0 -22 18 -50q2 -1 1 -8t-4 -10q-11 -9 -28 -9q-26 0 -59 35.5t-34 86.5t42 86q11 9 27 18t46 23t40 19q28 14 39 24.5
t11 24.5q0 31 -34 31q-29 0 -65 -40q-5 -6 -21.5 -15t-26.5 -9q-14 0 -30 19.5t-16 43.5q-1 30 34 50.5t80 20.5zM172 155q71 0 73 -82q1 -39 -27 -63t-58 -24q-40 0 -58 23.5t-18 57.5q2 35 25.5 61.5t62.5 26.5z" />
    <glyph glyph-name="at" unicode="@" horiz-adv-x="901" 
d="M493 311q-20 0 -32 -7t-28 -25q-15 -17 -29 -54.5t-14 -68.5q0 -38 18 -38q26 0 63 44q30 36 69 121q2 6 -4 12q-13 16 -43 16zM570 377l14 28q10 13 24 13q42 0 66 -21q11 -9 6 -21q0 -1 -18.5 -60t-33 -109t-19.5 -79q-4 -18 5.5 -31.5t25.5 -12.5q59 3 96 62.5
t37 132.5q0 110 -73 172t-186 62q-144 0 -239.5 -102.5t-95.5 -241.5q0 -124 81 -203t226 -79q39 0 95 16.5t93 36.5q5 3 14.5 -1.5t9.5 -10.5q0 -15 -21 -36q-91 -72 -244 -72q-65 0 -126.5 21.5t-112 61.5t-81.5 105t-31 145q0 79 28 148.5t72.5 117.5t101 83t113.5 51.5
t110 16.5q158 0 250 -81t92 -207q0 -111 -84 -191.5t-193 -80.5q-40 0 -60.5 12t-20.5 30q0 20 2 27l11 45q1 5 -2.5 6t-6.5 -3q-38 -46 -92 -82t-86 -36q-15 0 -31.5 20t-16.5 47q0 29 22.5 80.5t66.5 105.5q44 53 89 88.5t70 35.5q27 0 41 -10q9 -5 12 1z" />
    <glyph glyph-name="A" unicode="A" horiz-adv-x="668" 
d="M577 616q23 0 16 -42q-14 -79 -34 -243t-22 -219q-1 -39 6.5 -50t36.5 -19q30 -8 30 -25q0 -2 -4 -7.5t-11.5 -11t-16.5 -5.5q-14 0 -80 3t-87 3q-17 0 -42 -2t-42 -2q-14 0 -24 7.5t-10 14.5q0 16 30 24q32 9 41 15.5t15 29.5q18 67 21 116q1 16 -9 16q-65 0 -125 -6
q-14 -2 -25 -13q-16 -17 -41 -56t-36 -64q-8 -13 -4.5 -22.5t24.5 -15.5q27 -7 27 -24q0 -8 -9.5 -14.5t-21.5 -6.5q-21 0 -48 1.5t-40 1.5q-15 0 -54.5 -3.5t-58.5 -3.5q-35 0 -35 20q0 19 35 26q56 11 76.5 24.5t55.5 56.5q84 104 187 242t130 186q2 5 11.5 13.5t13.5 8.5
q12 0 45 9t50 24q15 13 29 13zM303 265q36 0 94 5q12 1 15 18q10 40 19 135q4 30 -5 30q-8 0 -27 -24q-22 -27 -59.5 -80t-46.5 -71q-7 -13 10 -13z" />
    <glyph glyph-name="B" unicode="B" horiz-adv-x="638" 
d="M615 477q1 -72 -60 -115q-46 -31 -89 -41q-2 0 -3.5 -2t-1.5 -4.5t2 -2.5q126 -45 126 -143q0 -95 -97 -143q-71 -36 -185 -36q-22 0 -121 3.5t-110 3.5h-62q-14 0 -25 7t-12 21q0 11 35 19q47 10 62 23.5t27 55.5q66 227 104 390q4 17 -6 26t-45 15q-37 6 -37 20
q1 7 10.5 16t20.5 9q48 0 89 1q164 4 176 4q117 0 162 -40q40 -36 40 -87zM430 175q0 54 -33 86.5t-65 32.5q-16 0 -23 -3q-8 -3 -14 -20q-2 -7 -51 -179q-2 -8 12 -25q11 -12 28.5 -21.5t26.5 -9.5q43 0 81 36.5t38 102.5zM472 461q0 46 -20.5 71.5t-59.5 25.5
q-9 0 -20 -5.5t-13 -12.5l-46 -185q0 -9 4 -12q6 -4 15 -4q53 0 80 15q60 31 60 107z" />
    <glyph glyph-name="C" unicode="C" horiz-adv-x="657" 
d="M476 615q27 0 54 -4.5t41.5 -9.5t30.5 -12t17 -7q20 -6 35 5q21 14 29 9q4 -3 9.5 -16t3.5 -17q-35 -67 -46 -119q-3 -14 -14.5 -24.5t-18.5 -10.5q-16 0 -17 35q-2 48 -18 71q-17 25 -45.5 39t-51.5 14q-43 0 -80.5 -19t-80.5 -68q-40 -45 -63 -117.5t-23 -137.5
q0 -24 7 -60.5t15 -51.5q15 -34 48.5 -56t71.5 -21q59 1 110 50q7 7 26 27t31 30q18 16 29 16q8 0 12 -9t2 -20q-5 -25 -68 -130q-11 -16 -27 -4q-19 15 -41 7q-61 -23 -120 -23q-122 0 -190 68t-68 185q0 104 48 186t130 136q89 59 222 59z" />
    <glyph glyph-name="D" unicode="D" horiz-adv-x="745" 
d="M416 606q144 0 229 -78q36 -34 55 -87t19 -105q0 -103 -68 -195t-188 -125q-83 -23 -180 -23q-37 0 -96.5 3.5t-64.5 3.5q-9 0 -53 -2.5t-58 -2.5q-15 0 -28 6.5t-14 17.5q0 9 12 17t30 9q49 5 64 19t31 72q71 252 89 347q9 42 1 53.5t-50 18.5q-36 7 -36 17
q-1 11 9.5 19t25.5 8h17h20h16q200 7 218 7zM410 557q-6 0 -19 -4t-16 -9q-15 -26 -37 -107l-85 -318q-10 -26 2 -44q10 -14 27.5 -23.5t28.5 -9.5q27 0 59 11t54 27q65 49 98 111q13 24 25.5 74t12.5 79q0 72 -18 116q-16 40 -55 68.5t-77 28.5z" />
    <glyph glyph-name="E" unicode="E" horiz-adv-x="613" 
d="M318 343h83q19 0 29 5t23 23q25 34 31 34q8 0 18 -10t5 -24q-38 -108 -44 -138q-2 -12 -5.5 -17.5t-6 -6t-6.5 -0.5q-13 0 -19 9.5t-6 18.5q-1 27 -6 36t-17 12q-17 5 -43 5q-15 0 -51 -6q-5 0 -11 -12q-21 -59 -38 -172q-2 -15 1 -30t10 -17q18 -5 81 -5q48 0 73 7
t53 29q15 13 44 52q14 21 32 21q14 0 14 -27q-1 -28 -25.5 -73.5t-37.5 -54.5q-15 -11 -34 -11q-16 0 -119.5 5.5t-191.5 3.5q-18 0 -76.5 -2.5t-78.5 -2.5q-16 0 -26 6.5t-10 16.5q0 19 36 24q50 8 65.5 18.5t25.5 37.5q12 36 34 114t47 169.5t34 122.5q8 27 -2 38t-47 18
q-34 7 -34 25q0 7 12 13.5t29 6.5l52 -3q52 -4 78 -4h95q112 0 220 8q5 0 9 -8.5t1 -17.5q-13 -32 -34 -106q-3 -13 -11.5 -22.5t-16.5 -9.5q-16 0 -16 33q-1 61 -24 68q-29 9 -67 9q-41 0 -61 -5q-8 -3 -19 -26q-20 -42 -56 -171q0 -7 5 -7z" />
    <glyph glyph-name="F" unicode="F" horiz-adv-x="573" 
d="M270 598h197q127 0 151 6q7 2 11.5 -10.5t2.5 -18.5q-24 -67 -31 -112q-2 -8 -8 -17t-11 -9q-9 0 -20 10t-12 19q-8 49 -9 52q-4 18 -15 25.5t-20 7.5q-93 0 -118 -9q-5 -2 -8 -3.5l-5 -2.5t-4.5 -5t-3.5 -5t-4 -8t-5 -10q-12 -24 -27 -81t-17 -87q-1 -14 6 -14
q50 -5 86 -5q40 0 63 36q21 29 31 29q9 0 14.5 -10.5t2.5 -26.5l-9 -30q-8 -30 -14.5 -55t-7.5 -42q-2 -13 -9 -23t-17 -10q-8 0 -14.5 8t-7.5 19q-2 19 -6.5 29.5t-9 13.5t-13.5 5q-42 11 -104 5q-7 0 -13 -9q-11 -17 -24 -77t-13 -87q-1 -26 9.5 -36t46.5 -20
q28 -8 28 -25q1 -10 -9 -16.5t-24 -6.5q-15 0 -87.5 4t-94.5 4q-14 0 -53 -1.5t-52 -1.5q-18 0 -28.5 8t-10.5 15q2 17 39 26q63 13 71 44q85 296 113 407q9 29 0.5 40.5t-52.5 20.5q-30 7 -30 27q-1 7 9 12.5t23 5.5q16 0 59 -2.5t58 -2.5z" />
    <glyph glyph-name="G" unicode="G" horiz-adv-x="734" 
d="M507 616q73 0 138 -23q24 -8 39 -8q6 0 21 1.5t16 1.5q5 0 11 -10t1 -17q-44 -61 -64 -126q-3 -10 -11.5 -17.5t-18.5 -7.5q-8 0 -12 11.5t-4 20.5t1.5 26.5t0 28.5t-8.5 20q-14 20 -44 36.5t-60 16.5q-81 0 -158 -73q-49 -46 -78.5 -126.5t-29.5 -143.5q0 -34 9.5 -80.5
t27.5 -66.5q47 -52 90 -52q13 0 31 12.5t30 33.5q36 63 44 132q1 13 -0.5 21t-9.5 13t-13 7t-21.5 5t-24.5 5q-11 3 -18 10t-7 13q0 8 10 14.5t20 6.5q17 0 77.5 -3t81.5 -3q22 0 71 3l48 3q10 0 17.5 -10t7.5 -21q0 -10 -22 -15q-30 -6 -40.5 -14.5t-18.5 -26.5
q-14 -35 -54 -171q-6 -19 -28 -29q-102 -32 -188 -32q-128 0 -207.5 71t-79.5 183q0 78 43.5 166t131.5 144q110 70 253 70z" />
    <glyph glyph-name="H" unicode="H" horiz-adv-x="784" 
d="M132 579q0 9 9 15.5t26 6.5q13 0 54 -1.5t61 -1.5t70.5 2.5t67.5 2.5q32 0 32 -20q0 -16 -34 -25q-33 -9 -42.5 -17t-18.5 -35q-39 -119 -39 -155q0 -13 10 -13q72 5 116 5q18 0 81 -3q7 0 18 14q8 11 24.5 68.5t19.5 77.5q4 27 -1.5 34.5t-39.5 21.5q-30 13 -30 25
q0 20 31 20q12 0 65.5 -1.5t67.5 -1.5q12 0 60 1.5t64 1.5q37 0 37 -20q0 -17 -38 -28q-45 -13 -54 -37q-14 -35 -58.5 -195.5t-54.5 -208.5q-2 -13 -3 -22t2 -16t5.5 -11t10.5 -7.5t13 -5.5t17 -6q31 -10 31 -28q0 -7 -9.5 -13t-25.5 -6q-11 0 -68 1.5t-79 1.5
q-14 0 -56.5 -1.5t-61.5 -1.5q-17 0 -27 7t-10 16t9.5 16.5t24.5 9.5q20 3 32.5 10.5t16.5 14t10 19.5q11 24 31 94.5t20 87.5q0 15 -5 15q-28 2 -73 2q-63 0 -125 -4q-2 0 -10 -4.5t-9 -7.5q-10 -23 -24.5 -80.5t-17.5 -82.5q-5 -37 2.5 -47.5t36.5 -18.5t29 -26
q0 -9 -11 -15t-22 -6q-17 0 -64 1.5t-69 1.5q-24 0 -80.5 -2.5t-67.5 -2.5q-14 0 -23.5 7t-9.5 15q-1 16 30 25q41 10 55.5 21.5t27.5 39.5q21 47 61 189t52 205q5 26 -2.5 37.5t-37.5 18.5q-11 2 -20.5 10t-9.5 16z" />
    <glyph glyph-name="I" unicode="I" horiz-adv-x="390" 
d="M134 579q0 21 34 21q6 0 39.5 -1t56.5 -1q28 0 91.5 2.5t70.5 2.5q32 0 32 -18q0 -17 -29 -25q-35 -8 -46.5 -19t-22.5 -42q-39 -112 -107 -366q-12 -34 -6.5 -54t15 -27t32.5 -14q26 -8 26 -23q0 -22 -36 -22q-13 0 -89.5 3t-91.5 3q-16 0 -45 -0.5t-39 -0.5
q-16 0 -28 5.5t-12 12.5q0 10 9 19t27 12q63 10 74 44q23 74 52 175t46.5 167t20.5 78q4 21 -4 29.5t-42 14.5q-12 2 -20 9.5t-8 14.5z" />
    <glyph glyph-name="J" unicode="J" horiz-adv-x="386" 
d="M-37 -206q-59 0 -83 22q-18 18 -18 65q0 20 8.5 34t18.5 14q6 0 14 -4.5t12.5 -9t14.5 -15t13 -13.5l9.5 -9.5t9.5 -10t9 -8.5t10 -7.5t9 -4.5t10 -2q14 0 27.5 21.5t32.5 86.5q25 82 75 269t63 246q9 51 1 64t-47 24q-31 9 -31 26q0 8 9.5 14.5t22.5 6.5q20 0 65.5 -2.5
t63.5 -2.5q28 0 82 2t60 2q14 0 23 -7t9 -14q0 -21 -33 -29q-31 -8 -43.5 -18.5t-20.5 -42.5l-103 -374q-4 -16 -29 -99q-34 -110 -111 -167t-153 -57z" />
    <glyph glyph-name="K" unicode="K" horiz-adv-x="717" 
d="M132 579q0 8 12 15t24 7q19 0 58 -1.5t56 -1.5q23 0 78 1.5t62 1.5q32 0 32 -19q0 -21 -35 -27q-28 -5 -42 -14.5t-23 -34.5q-9 -24 -27.5 -88.5t-19.5 -82.5q0 -12 5 -12q19 0 70 38q20 16 54 44t79 69t53 55q7 14 5.5 17t-14.5 6q-31 8 -29 27q1 19 37 19
q31 0 111.5 3.5t91.5 3.5q14 0 24.5 -6.5t10.5 -12.5q0 -20 -37 -27q-29 -5 -56.5 -16t-42.5 -19.5t-48 -29.5q-53 -34 -170 -131q-3 -2 -3.5 -10t1.5 -12q20 -60 51 -130t49 -100q35 -59 93 -71q12 -2 23 -10t11 -16q0 -10 -13 -16t-27 -6q-115 0 -172 12q-14 3 -33.5 23.5
t-30.5 44.5q-38 83 -73 186q-9 24 -23 24q-6 0 -15 -15q-7 -13 -22.5 -74t-18.5 -89q-3 -26 4 -38.5t35 -20.5q34 -10 32 -26q0 -8 -11 -15.5t-24 -7.5q-14 0 -48 2t-53 2q-18 0 -81 -3t-78 -3q-44 0 -44 23q0 19 40 28q22 5 30.5 8t20.5 14.5t20 30.5q18 48 114 400
q12 43 -43 56q-13 3 -22 10.5t-8 14.5z" />
    <glyph glyph-name="L" unicode="L" horiz-adv-x="635" 
d="M286 47q124 0 145 4q22 4 102 91q28 30 38 30q6 0 11 -8t5 -17q0 -16 -19.5 -62.5t-38.5 -69.5q-13 -17 -33 -19q-36 -4 -62 -4q-13 0 -124.5 4t-127.5 4q-20 0 -85 -2t-74 -2q-35 0 -35 14q0 8 8 18t20 12q44 9 60.5 21t21.5 29q10 36 52.5 200.5t52.5 200.5q3 13 3 22
t-1 14t-7 10t-8.5 7t-11.5 6q-3 2 -12.5 6t-14 6.5t-9 7t-4.5 10.5q0 8 13 15t27 7q12 0 63.5 -2t70.5 -2q24 0 67 2t52 2q16 0 25.5 -7t9.5 -15t-7 -15t-20 -9q-42 -8 -56 -18t-24 -40q-24 -74 -99 -397q-6 -22 3 -38t23 -16z" />
    <glyph glyph-name="M" unicode="M" horiz-adv-x="888" 
d="M128 580q0 9 12 15t25 6q173 0 189 3q5 1 13 -7t12 -18q5 -13 19.5 -75.5t31.5 -136t24 -98.5q5 -15 14 -3q118 159 139 189q57 84 89 123q6 7 21 16.5t20 9.5q14 0 84.5 -0.5t85.5 -0.5q37 0 37 -18q0 -8 -12.5 -19t-26.5 -12q-22 -3 -34 -6.5t-21 -15t-11.5 -17.5
t-11.5 -30q-16 -43 -46.5 -181.5t-34.5 -187.5q-3 -36 7 -49t54 -25q32 -8 32 -26q0 -22 -33 -22q-39 0 -91 3t-71 3q-28 0 -73.5 -3t-48.5 -3q-17 0 -28.5 6.5t-11.5 14.5q0 9 10 17.5t23 11.5q40 9 53.5 28t31.5 85q9 32 28 98.5t34 120.5t22 86q1 2 -2.5 5.5t-6.5 -0.5
q-97 -130 -182 -262q-9 -14 -81 -139q-15 -27 -32.5 -42.5t-28.5 -15.5q-26 0 -32 63q-4 55 -23.5 177.5t-31.5 179.5q-1 4 -5.5 3.5t-6.5 -4.5q-22 -53 -55.5 -165t-40.5 -142q-8 -38 0.5 -54.5t44.5 -25.5q30 -8 30 -23q0 -9 -10 -15.5t-26 -6.5q-18 0 -47.5 2.5
t-46.5 2.5q-15 0 -63 -3t-54 -3q-15 0 -25.5 7.5t-10.5 15.5q0 17 34 25q38 9 62 24t36 47q2 4 63.5 165t75.5 195q11 26 8 43q-4 21 -22 26q-14 3 -28 7.5t-19 5.5q-8 1 -19 8.5t-11 16.5z" />
    <glyph glyph-name="N" unicode="N" horiz-adv-x="713" 
d="M96 581q0 9 10.5 16.5t26.5 7.5q6 0 86 -3.5t96 -3.5q3 0 11 -8t12 -16q21 -37 102 -202t95 -185q1 -1 4 0t3 2q61 231 68 276q8 52 -1.5 67.5t-53.5 25.5q-29 6 -29 23q0 8 11 15.5t27 7.5q2 0 51.5 -3t72.5 -3q13 0 35 1.5t36 1.5q15 0 24 -7.5t9 -15.5q0 -16 -34 -23
q-42 -9 -54.5 -21t-30.5 -67q-14 -42 -44.5 -160t-43.5 -185q-4 -20 -4 -32q0 -22 34 -50q16 -14 16 -22q0 -7 -9.5 -15.5t-18.5 -8.5q-4 0 -30.5 1.5t-46 2t-36.5 -0.5h-25q-5 0 -12 6t-10 16q-1 2 -21 48q-32 74 -172 365q-1 3 -4.5 3t-4.5 -2q-57 -205 -68 -290
q-7 -53 4.5 -73t42.5 -28q34 -9 34 -19q0 -7 -9 -17.5t-21 -10.5q-10 0 -58.5 2.5t-59.5 2.5q-14 0 -53 -2t-55 -2q-6 0 -14 5t-8 10q0 10 9.5 19.5t24.5 12.5q42 8 58.5 20t22.5 31q48 143 104 363q10 36 3 53q-13 33 -86 50q-6 1 -11 9t-5 12z" />
    <glyph glyph-name="O" unicode="O" horiz-adv-x="715" 
d="M453 616q103 0 172 -69.5t69 -177.5q0 -78 -35 -160t-99 -138q-103 -89 -253 -89q-106 0 -167 61q-67 67 -67 171t49 197t132 147q44 29 87.5 43.5t111.5 14.5zM446 566q-53 0 -101 -53q-55 -61 -86.5 -158.5t-31.5 -194.5q0 -54 22 -91q24 -40 65 -40q50 0 92 38
q56 50 94 164.5t38 203.5q0 51 -22 91t-70 40z" />
    <glyph glyph-name="P" unicode="P" horiz-adv-x="608" 
d="M444 600q80 0 124 -39q55 -48 55 -131q0 -48 -25.5 -89t-63.5 -66q-59 -38 -149 -38q-28 0 -42 7q-17 8 -17 24q0 6 9 11t21 7q49 7 85 49t36 99q0 60 -25 90t-60 30q-6 0 -15.5 -8.5t-12.5 -17.5q-83 -277 -116 -423q-7 -31 3.5 -41.5t47.5 -22.5q31 -10 31 -25
q0 -22 -35 -22q-5 0 -63.5 3t-85.5 3q-20 0 -70.5 -2t-59.5 -2q-38 0 -38 23q0 19 42 27q35 7 51.5 20t25.5 41q4 13 26 96t47 179t32 123q5 20 -7 31t-50 18q-11 2 -18.5 9t-7.5 12q0 9 10 16.5t21 7.5q13 0 63 -0.5t64 -0.5q22 0 87.5 1t79.5 1z" />
    <glyph glyph-name="Q" unicode="Q" horiz-adv-x="716" 
d="M452 616q110 0 176.5 -70.5t66.5 -171.5q0 -218 -210 -337q-32 -18 -110.5 -48.5t-107.5 -44.5q-7 -3 -1 -7q3 -2 7 -1q39 3 100.5 -17.5t99.5 -40.5q91 -50 158 -50q20 0 39 4.5t35.5 12.5t27 14.5t23.5 16.5t15 11q7 5 16.5 0t9.5 -16t-7.5 -26t-11.5 -19
q-100 -105 -222 -105q-92 0 -206 72q-44 28 -99 51t-93 23q-80 0 -138 -51q-4 -4 -15 -4.5t-15 1.5q-11 5 -11 19q0 21 41 50q24 17 67.5 37t94 39.5t62.5 25.5q5 4 -4 9q-77 23 -122.5 80t-45.5 148q0 63 18 120.5t47.5 98.5t58.5 69.5t59 48.5q89 58 197 58zM453 565
q-51 0 -103 -55q-49 -52 -86.5 -145.5t-37.5 -180.5q0 -71 28 -113t63 -42q28 0 43 10q65 40 107.5 117.5t56.5 143.5t14 122q0 33 -6 62.5t-26 55t-53 25.5z" />
    <glyph glyph-name="R" unicode="R" horiz-adv-x="646" 
d="M620 465q0 -120 -146 -158q-1 -1 -2.5 -9t-0.5 -11q18 -78 54 -162q17 -39 34.5 -55.5t55.5 -27.5q26 -7 26 -18q0 -9 -9.5 -17.5t-19.5 -10.5q-44 -4 -107 -4q-72 0 -104 75q-34 76 -59 155q-17 54 -39 54q-9 0 -19 -24q-13 -33 -25.5 -90.5t-12.5 -73.5q0 -4 2.5 -11
t14.5 -17.5t30 -15.5q29 -9 30 -24q0 -9 -11 -15.5t-24 -6.5q-9 0 -41.5 1t-51.5 1q-29 0 -103.5 -3t-83.5 -3q-30 0 -30 21q0 17 30 25q36 9 53.5 21.5t28.5 37.5q11 24 53.5 175t61.5 233q5 21 -5.5 29t-56.5 18q-27 6 -27 22q0 5 10 13.5t24 8.5h47q19 0 111 3.5t124 3.5
q72 0 124 -29q29 -16 46.5 -50t17.5 -61zM478 467q0 60 -29 79q-21 14 -61 14q-3 0 -10 -5t-10 -11q-8 -17 -32 -98t-28 -116q-1 -7 3 -11.5t8 -4.5q15 0 46 6.5t51 18.5q26 15 44 56.5t18 71.5z" />
    <glyph glyph-name="S" unicode="S" horiz-adv-x="512" 
d="M331 616q56 0 122 -22q7 -2 20.5 -5.5t21.5 -6.5q4 -1 7.5 -9t3.5 -13q0 -44 -6 -99q-1 -16 -10.5 -28.5t-17.5 -12.5q-17 0 -21 28q-7 66 -38.5 94.5t-69.5 28.5q-32 0 -56.5 -23.5t-24.5 -60.5q0 -40 43 -87q17 -19 43 -45.5t42.5 -45t29.5 -36.5q34 -48 34 -106
q0 -31 -17 -72t-54 -68q-62 -45 -167 -45q-15 0 -30.5 1.5t-25 3t-26.5 6.5t-23 7t-26.5 9t-25.5 9q-8 2 -17 19q-4 6 -2 29q3 22 3 98q0 16 8.5 28t15.5 12q23 0 32 -40q12 -52 48.5 -94t80.5 -42q36 0 61.5 23t25.5 65q0 49 -74 123q-57 58 -84.5 104t-27.5 96
q0 85 59.5 131t142.5 46z" />
    <glyph glyph-name="T" unicode="T" horiz-adv-x="654" 
d="M325 598h254q81 0 105 14q23 14 29 14q8 0 15 -12.5t5 -19.5t-17 -54.5t-20 -61.5q-13 -35 -28 -35q-6 0 -13 8.5t-8 20.5q-5 39 -17.5 57t-24.5 18q-10 0 -50.5 -1t-46.5 -1q-3 0 -8.5 -4.5t-6.5 -10.5q-16 -47 -61.5 -203.5t-59.5 -216.5q-8 -32 5 -43.5t54 -23.5
q25 -7 25 -25q-1 -9 -10 -15.5t-22 -6.5q-12 0 -42.5 2t-53.5 2q-45 0 -119 -4t-79 -4q-17 0 -25.5 7.5t-7.5 14.5q2 18 34 26q43 10 61.5 26.5t32.5 60.5q9 28 20.5 71t35 134.5t51.5 193.5q2 12 -8 14l-34 4q-35 3 -43 3q-27 0 -52.5 -18t-64.5 -65q-8 -9 -16 -9
q-7 0 -15.5 12t-5.5 19q37 84 52 127q1 4 9 9.5t12 5.5q2 0 16 -7q29 -15 46 -19q16 -4 97 -4z" />
    <glyph glyph-name="U" unicode="U" horiz-adv-x="713" 
d="M123 585q0 18 30 18q11 0 66 -2.5t75 -2.5q21 0 64.5 2.5t51.5 2.5q32 0 32 -20q0 -19 -37 -28q-30 -7 -43 -19t-23 -45q-32 -105 -72 -266q-11 -44 -9 -72t22 -50q37 -42 99 -42q125 0 174 147q40 120 70 250q13 55 5.5 72t-51.5 28q-32 8 -32 25q0 20 36 20
q11 0 47 -2.5t58 -2.5q16 0 47 2t37 2q12 0 21 -6t9 -16q0 -16 -36 -24q-34 -7 -47 -21.5t-26 -52.5q-38 -115 -80 -268q-24 -86 -64 -138q-30 -40 -86 -67t-131 -27q-54 0 -104.5 17.5t-77.5 48.5q-26 30 -34 63.5t0 84.5q6 39 43.5 174.5t38.5 145.5q2 15 -8 24.5
t-40 18.5q-25 8 -25 26z" />
    <glyph glyph-name="V" unicode="V" horiz-adv-x="657" 
d="M92 583q0 20 35 20q13 0 64 -2.5t67 -2.5t60.5 2.5t60.5 2.5q14 0 23.5 -6t9.5 -14q0 -19 -35 -26q-27 -5 -39.5 -16t-13.5 -40q-5 -105 -3 -305q0 -4 3.5 -5.5t8.5 2.5q30 28 109.5 133t106.5 153q18 30 19.5 45t-5 20t-27.5 12q-25 8 -25 20q0 8 10.5 16.5t22.5 8.5
q17 0 37.5 -1.5t33.5 -1.5q21 0 68.5 2.5t52.5 2.5q14 0 23 -6t9 -15q0 -19 -33 -24q-35 -6 -56.5 -21.5t-49.5 -48.5q-104 -124 -260 -335q-14 -18 -49 -68t-41 -57q-10 -13 -37.5 -29.5t-46.5 -16.5q-7 0 -14.5 8.5t-7.5 16.5v155q3 162 -5 337q-1 17 -2 24t-12 18.5
t-33 17.5q-29 8 -29 24z" />
    <glyph glyph-name="W" unicode="W" horiz-adv-x="912" 
d="M82 581q0 3 4 7t13 8.5t21 4.5q18 0 64.5 -1.5t57.5 -1.5q20 0 67.5 1.5t50.5 1.5q10 0 21.5 -6.5t11.5 -16.5q0 -18 -33 -27l-16.5 -5.5t-12 -6t-11 -11.5t-4.5 -18q-5 -40 -11 -154.5t-8 -136.5q-1 -7 4 -7t9 7q18 28 53 80t62 91.5t33 51.5q18 32 18 64v12.5
t-1.5 10.5t-5 10.5t-10.5 7t-18 6.5q-12 3 -21 11.5t-9 15.5q0 9 11 15t27 6q5 0 56 -1.5t67 -1.5q15 0 55.5 1.5t45.5 1.5q12 0 21.5 -7t9.5 -12q0 -20 -32 -28q-34 -8 -42 -16.5t-10 -34.5q-2 -18 -1.5 -126t3.5 -181q1 -4 4.5 -3.5t6.5 3.5q32 40 103 143t95 146
q16 24 13 39t-12.5 21.5t-30.5 10.5q-31 7 -31 26q0 7 9.5 13t22.5 6q15 0 50 -1.5t51 -1.5q19 0 51 1.5t41 1.5q33 0 33 -18q0 -21 -36 -30q-31 -7 -49 -20.5t-37 -40.5q-24 -36 -123 -171.5t-136 -188.5q-24 -35 -46.5 -73t-26.5 -43q-7 -12 -27.5 -23t-38.5 -11
q-11 0 -18 11t-7 27q-3 267 -6 335q0 10 -3 12.5t-10 -6.5q-34 -50 -89 -127.5t-76 -109.5q-20 -30 -42 -67.5t-27 -44.5q-21 -30 -64 -30q-10 0 -16.5 12t-4.5 27q1 9 9 129q6 95 10 332q1 37 -10 51.5t-43 22.5q-28 8 -29 25z" />
    <glyph glyph-name="X" unicode="X" horiz-adv-x="676" 
d="M102 582q0 9 12 15t27 6t50 -2.5t58 -2.5q19 0 70 1.5t68 1.5q14 0 23 -7t9 -14q0 -6 -7 -13.5t-19 -10.5q-28 -7 -34.5 -13.5t-1.5 -22.5q33 -91 55 -131q2 -2 7.5 -1.5t7.5 2.5q68 75 107 122q17 19 12.5 26.5t-36.5 15.5q-27 7 -27 23q0 7 12 15.5t22 8.5q8 0 35 -1.5
t42 -1.5q21 0 61 3t54 3q17 0 27 -6t10 -14q0 -19 -37 -26q-40 -7 -70.5 -25t-74.5 -64q-82 -84 -116 -124q-3 -4 -5 -13t0 -14q1 -2 44.5 -113t50.5 -122q8 -15 22 -22t50 -17q32 -9 32 -27q0 -9 -13 -15.5t-28 -6.5q-3 0 -75 2.5t-91 2.5t-57.5 -1.5t-41.5 -1.5
q-10 0 -21 7t-11 15q0 20 32 27q28 6 35 16t1 28q-4 11 -25 63t-27 69q-2 3 -7 2t-6 -2q-87 -87 -128 -144q0 -2 -1 -7.5t10 -14.5t33 -15t22 -20q0 -7 -10 -15.5t-24 -8.5q-9 0 -30 1.5t-43 1.5q-33 0 -79 -3.5t-56 -3.5q-14 0 -26 7t-11 16q0 16 34 25q39 10 64 22.5
t56 38.5q39 32 89.5 87.5t77.5 94.5q2 3 2.5 12.5t-1.5 13.5q-12 29 -42 102.5t-37 90.5q-8 18 -20.5 28.5t-22 14t-31.5 8.5q-11 3 -21 11.5t-10 16.5z" />
    <glyph glyph-name="Y" unicode="Y" horiz-adv-x="639" 
d="M96 582q0 9 9.5 15.5t24.5 6.5q10 0 56 -3t66 -3q33 0 74 2.5t46 2.5q34 0 34 -18q0 -19 -26 -27q-26 -7 -34 -15t-4 -21q2 -6 20 -74.5t28 -101.5q1 -3 5.5 -4.5t8.5 1.5q13 13 66.5 80t68.5 92q19 32 -18 43q-12 4 -19 11t-7 14q0 6 8.5 12.5t21.5 6.5q3 0 31 -2t53 -2
q11 0 50.5 2.5t51.5 2.5q33 0 33 -19q0 -8 -9.5 -16t-22.5 -11q-41 -10 -64.5 -21t-51.5 -41q-89 -94 -172 -202q-14 -17 -24 -48q-18 -51 -38 -146q-6 -26 2.5 -37.5t46.5 -20.5q29 -7 29 -25q0 -21 -37 -21q-24 0 -79 2.5t-63 2.5q-15 0 -63.5 -3t-73.5 -3q-18 0 -26.5 8
t-8.5 15q0 19 32 25q44 10 60 21.5t27 48.5l37 121q5 16 8 40t1 30q-32 124 -54 182q-15 38 -28 49.5t-45 22.5q-31 10 -31 25z" />
    <glyph glyph-name="Z" unicode="Z" horiz-adv-x="651" 
d="M317 598q41 0 123 1t148 2.5t67 1.5q16 0 18 -17q0 -16 -13 -28q-57 -57 -101 -107q-22 -25 -152.5 -176t-178.5 -204q-6 -8 8 -12q44 -10 140 -10q69 0 99 10q46 14 97 90q20 30 35 30q9 0 13 -12.5t3 -22.5q-1 -11 -8 -29t-18.5 -43t-13.5 -30q-11 -23 -25 -37
q-11 -11 -65 -11q-19 0 -171 3t-175 3q-34 0 -77.5 -3.5t-49.5 -3.5q-14 0 -18.5 15.5t5.5 25.5q90 89 256 281.5t185 220.5q2 3 2 8.5t-4 5.5q-5 0 -134 -3q-63 -2 -92 -26q-33 -28 -57 -73q-14 -25 -33 -25q-8 0 -12.5 10.5t-3.5 22.5q3 34 44 127q1 1 2.5 4t2.5 4.5
l3 4.5t3 4t2.5 3.5t2.5 2.5t2.5 2t2.5 1.5t3 -0.5q3 -1 10 -1.5t12 -2.5q24 -7 113 -7z" />
    <glyph glyph-name="bracketleft" unicode="[" horiz-adv-x="400" 
d="M285 706q34 0 102.5 0.5t70.5 0.5q11 0 21.5 -7.5t10.5 -17.5q0 -11 -12.5 -18.5t-24.5 -9.5q-73 -7 -79 -7q-4 0 -14.5 -9t-12.5 -15q-55 -158 -97 -306q-40 -141 -109 -396q-8 -33 10 -38q12 -2 45 -5l34 -4q9 -1 17 -7.5t8 -14.5t-9 -16t-27 -11q-16 -2 -103 -2
q-16 0 -46.5 0.5t-34.5 0.5q-6 0 -13 6.5t-3 18.5l173 600l69 241q2 6 10.5 11t13.5 5z" />
    <glyph glyph-name="backslash" unicode="\" horiz-adv-x="370" 
d="M289 -28q0 -9 -5.5 -18.5t-16.5 -9.5l-34 -9q-7 0 -13.5 7t-6.5 10q-10 101 -37 332.5t-39 362.5q0 3 4 9.5t7 7.5q22 10 52 10q14 0 16 -11q12 -132 39 -376t34 -315z" />
    <glyph glyph-name="bracketright" unicode="]" horiz-adv-x="400" 
d="M138 -176q-34 0 -102.5 -0.5t-70.5 -0.5q-11 0 -21.5 7.5t-10.5 17.5q0 11 12.5 18.5t24.5 9.5q73 7 79 7q5 0 15 9t12 15q55 158 97 306q40 141 109 396q8 33 -10 38q-12 2 -46 5l-33 4q-9 1 -17 7.5t-8 14.5t9 16t27 11q16 2 103 2q16 0 46.5 -0.5t34.5 -0.5
q6 0 13 -6.5t3 -18.5l-173 -600l-69 -241q-2 -6 -10.5 -11t-13.5 -5z" />
    <glyph glyph-name="asciicircum" unicode="^" horiz-adv-x="484" 
d="M422 286l-137 250q-5 9 -9 3l-136 -256q-6 -12 -16 -12q-24 0 -46 20q-3 4 -4 12t1 11q11 20 72 128t95 171q25 46 45 46q15 0 39 -43l159 -291q10 -21 1 -30q-23 -23 -46 -23q-11 0 -18 14z" />
    <glyph glyph-name="underscore" unicode="_" horiz-adv-x="500" 
d="M-53 -125h500v-50h-500v50z" />
    <glyph glyph-name="grave" unicode="`" horiz-adv-x="400" 
d="M277 663q17 0 30 -45q14 -50 25 -129q2 -16 -6 -28t-17 -12q-6 0 -19 7.5t-18 12.5q-58 75 -83 122q-7 15 -4.5 29.5t9.5 20.5q6 5 37.5 13.5t45.5 8.5z" />
    <glyph glyph-name="a" unicode="a" horiz-adv-x="507" 
d="M310 402q23 0 35 -6q1 -1 3.5 1t3.5 4q13 32 16 36q8 10 30 10q25 0 51 -18q17 -12 17 -27q0 -3 -18.5 -67.5t-39 -137.5t-23.5 -93q-1 -7 2 -9q4 -3 11 -3q19 0 75 49q6 6 14.5 2t8.5 -14q0 -14 -12 -36q-22 -40 -69 -73.5t-107 -33.5q-18 0 -35.5 12t-17.5 27
q0 5 26 88q2 6 -4 5.5t-10 -5.5q-33 -42 -90 -84.5t-104 -42.5q-9 0 -25.5 6.5t-23.5 12.5q-18 15 -18 41q0 56 64 147q93 131 192 191q30 18 48 18zM286 329q-34 0 -67 -34q-35 -38 -52 -84t-17 -82q0 -10 7.5 -21.5t18.5 -11.5q23 0 68 52q33 38 46 64t30 85q3 14 -5 22
q-10 10 -29 10z" />
    <glyph glyph-name="b" unicode="b" horiz-adv-x="534" 
d="M429 424q32 0 55 -28q10 -10 17.5 -32t7.5 -42q0 -70 -48 -152t-125 -133q-79 -52 -161 -52q-49 0 -82.5 32t-33.5 88q0 21 4 35q102 377 111 426q2 8 -7.5 16t-29.5 14q-7 2 -14.5 9t-7.5 12q0 14 29 24q24 6 81 12t86 6q6 0 12 -8.5t3 -18.5q-67 -198 -91 -295
q-1 -4 3.5 -6t7.5 0q106 93 183 93zM354 338q-23 0 -46 -15.5t-60 -57.5q-19 -21 -45 -84t-26 -101q0 -13 17 -27.5t30 -14.5t37 20q41 34 79 107t38 135q0 14 -6 26t-18 12z" />
    <glyph glyph-name="c" unicode="c" horiz-adv-x="379" 
d="M308 425q17 0 39 -7t31 -15q15 -15 15 -28q0 -31 -17.5 -52t-30.5 -21q-11 0 -25 8t-21 23q-18 42 -37 42q-14 0 -22 -6q-15 -9 -34 -55q-36 -86 -36 -185q0 -22 18 -42t39 -20q24 0 73 50q14 15 22 15q6 0 10 -6.5t4 -12.5q0 -19 -12 -36q-62 -91 -176 -91q-35 0 -64 19
t-40 48q-8 19 -8 68q0 79 40 152q45 83 116 122q55 30 116 30z" />
    <glyph glyph-name="d" unicode="d" horiz-adv-x="553" 
d="M28 93q0 74 48.5 156.5t121.5 133.5q60 42 111 42q7 0 29 -6t32 -11t12 3q26 90 36 152q2 11 -6 18t-33 16q-8 3 -14.5 12.5t-6.5 13.5q0 12 26 18q30 7 86 13t68 6q3 0 8 -4.5t8.5 -15t1.5 -23.5q-3 -13 -68 -268q-46 -173 -61 -245q-2 -8 1 -11q6 -8 18 -8q19 0 61 40
q11 11 23 11q8 0 9.5 -10.5t-0.5 -20t-4 -14.5q-19 -38 -65.5 -71.5t-112.5 -33.5q-31 0 -51 18q-2 2 -7 15t-5 18t3 15t9 28t11 36q1 3 -2.5 5.5t-6.5 -0.5q-6 -13 -51 -56.5t-75 -59.5q-36 -19 -68 -19q-42 0 -64 30t-22 77zM162 100q0 -8 7.5 -14.5t17.5 -6.5q31 0 75 53
q66 84 95 188q1 3 1 13t-2 14q-12 29 -25 29q-24 0 -60.5 -42t-59.5 -80q-16 -27 -32.5 -74.5t-16.5 -79.5z" />
    <glyph glyph-name="e" unicode="e" horiz-adv-x="415" 
d="M302 425q25 0 55 -13q54 -28 54 -78q0 -27 -17.5 -52t-41.5 -40q-64 -41 -170 -50q-7 0 -11 -11q-6 -24 -6 -65q0 -15 11 -27q20 -24 53 -24q13 0 41 15.5t54 38.5q12 12 23 12q4 0 8 -8.5t4 -15.5q0 -22 -30 -52q-69 -69 -171 -69q-45 0 -78.5 29t-45.5 75q-3 12 -3 29
q0 73 40.5 151t100.5 117q79 38 130 38zM289 382q-23 0 -52.5 -41.5t-46.5 -91.5q0 -11 6 -11q33 3 72 40.5t39 78.5q0 11 -6.5 18t-11.5 7z" />
    <glyph glyph-name="f" unicode="f" horiz-adv-x="307" 
d="M275 407l78 2q5 0 9.5 -4.5t4.5 -9.5q0 -9 -6 -21.5t-16 -15.5q-17 -5 -68 -5q-8 0 -16 -3.5t-9 -7.5q-51 -225 -100 -391q-10 -36 -31.5 -64t-41.5 -43.5t-56 -37.5q-61 -37 -107 -37q-35 0 -56.5 18t-21.5 35q0 20 7.5 40.5t15.5 22.5q31 11 43 -1q44 -44 75 -44
q14 0 22 9.5t18 44.5q21 72 58.5 233.5t47.5 210.5q0 12 -6 12l-65 -2q-3 0 -5.5 5t-2.5 8q0 12 7.5 25.5t11.5 13.5t17.5 1t30.5 2t23 1t10 11q46 154 143 216q52 33 104 33q49 0 72 -23.5t23 -53.5q0 -31 -27 -51q-20 -15 -35 -15q-22 0 -28 26q-18 67 -46 67
q-12 0 -28 -25q-27 -44 -54 -171q-1 -3 1 -7t4 -4z" />
    <glyph glyph-name="g" unicode="g" horiz-adv-x="420" 
d="M261 425q39 0 73 -17q6 -4 17 -4q4 0 24.5 3.5t43 6.5t35.5 3q2 0 5.5 -2t7.5 -9.5t4 -19.5q0 -17 -9.5 -33.5t-19.5 -16.5l-60 12q-3 1 -5 -3.5t-1 -6.5q5 -11 5 -33q0 -60 -39 -108t-71 -62q-33 -14 -88 -24q-5 -1 -9 -5t-4 -7q0 -16 46 -38q111 -55 139 -93
q20 -24 20 -57q0 -29 -27.5 -61t-68.5 -51q-67 -30 -158 -30q-30 0 -74.5 14t-74.5 36q-38 27 -38 67q0 43 62 75q16 8 81 31q1 0 2.5 5t0.5 6q-14 20 -13 38q0 15 12 25q6 7 26 22.5t23 18.5q1 0 0 2t-3.5 4t-3.5 2q-75 37 -75 111q0 61 37.5 109t85.5 71q38 19 92 19z
M251 380q-23 0 -48 -40q-23 -34 -35 -78t-13 -76q0 -16 9.5 -26t20.5 -10q7 0 28 25t39 78.5t18 86.5q-2 40 -19 40zM169 -178q92 0 94 50q0 14 -18 29q-27 21 -116 61q-14 7 -24 3q-24 -9 -42 -26t-18 -31q0 -31 18 -45q43 -41 106 -41z" />
    <glyph glyph-name="h" unicode="h" horiz-adv-x="541" 
d="M433 425q26 0 49 -28.5t23 -70.5q0 -118 -70 -235q-26 -41 -93 -82q-17 -11 -42 -21t-32 -10q-20 0 -36.5 12.5t-17.5 24.5q0 11 11.5 29t21.5 25q1 1 6 2t7 0q1 -1 21 -13.5t27 -12.5q5 0 7.5 1.5t4.5 3.5t6 9q16 31 34 107.5t18 126.5q0 45 -28 45q-26 0 -62 -40
q-62 -69 -149 -274q-7 -17 -16 -26.5t-15 -9.5q-13 0 -32.5 7.5t-28.5 18.5q-12 14 -3 56q1 5 56 229.5t62 256.5q4 14 -4 22q-49 26 -50 35q0 5 6.5 14.5t12.5 11.5q22 8 82.5 14.5t83.5 6.5q3 0 7 -4t7 -12.5t-1 -22.5q-8 -34 -40.5 -144t-46.5 -170q0 -3 2.5 -7t6.5 0
q60 63 103 92q49 33 102 33z" />
    <glyph glyph-name="i" unicode="i" horiz-adv-x="303" 
d="M228 425q10 0 24.5 -17.5t14.5 -36.5q0 -5 -2 -11t-5 -14t-4 -13l-78 -223q-1 -2 1 -6.5t5 -4.5q22 0 63 33q13 10 21 10q3 0 6.5 -4.5t3.5 -8.5q0 -23 -26 -56q-27 -34 -78.5 -60.5t-94.5 -26.5q-12 0 -27 14.5t-15 25.5q0 21 10 46q20 43 79 223q4 10 3 16t-2.5 8
t-3.5 2q-15 0 -68 -39q-3 -2 -10 6t-7 12q0 21 16 40q22 26 76.5 55.5t97.5 29.5zM231 618q32 0 46 -20.5t14 -40.5q0 -14 -11 -35.5t-19 -26.5q-20 -13 -40 -13q-21 0 -38.5 15.5t-17.5 39.5q0 47 33 71q13 10 33 10z" />
    <glyph glyph-name="j" unicode="j" horiz-adv-x="299" 
d="M241 425q9 0 22 -14t12 -35q0 -16 -47.5 -185t-67.5 -235q-11 -36 -31.5 -65.5t-47.5 -50t-39.5 -28t-33.5 -18.5q-47 -25 -96 -25q-27 0 -43.5 14t-16.5 30q0 8 17 29.5t29 29.5q2 2 11.5 2t11.5 -1q8 -6 20 -17.5t21 -17.5t18 -6q21 0 40 55q13 38 62 217t55 206
q1 4 -0.5 7t-3.5 4t-3 1q-16 0 -71 -41q-5 -3 -9.5 -2.5t-8 3.5t-2.5 5q0 24 11 39q22 29 83 64t108 35zM250 618q32 0 45 -19.5t13 -39.5q0 -35 -23 -56t-48 -21q-21 0 -38 14.5t-17 36.5q0 57 32 75q17 10 36 10z" />
    <glyph glyph-name="k" unicode="k" horiz-adv-x="525" 
d="M411 425q28 0 53.5 -19t25.5 -53q0 -50 -47 -92q-9 -9 -27.5 -20.5t-33 -19t-32.5 -17t-19 -9.5q-9 -6 -4 -13q11 -14 46 -67q14 -22 31 -22q24 0 64 40q14 14 24 14q6 0 9 -14.5t-2 -25.5q-29 -62 -66.5 -92t-75.5 -30q-29 0 -47.5 16t-44.5 59q-7 12 -16 31.5t-14 27.5
q-18 30 -35 30q-5 0 -14 -15q-8 -13 -18 -36t-22.5 -54t-19.5 -47q-1 -4 -10.5 -7.5t-15.5 -3.5q-19 0 -42 18.5t-23 33.5q0 5 5 27q5 17 29 104t56 209t45 182q1 5 1 9t0.5 6.5t-2 5t-3.5 4t-6 3t-7.5 2.5t-10.5 3.5t-12 3.5q-22 7 -22 16q0 17 26 29q11 4 74.5 11t92.5 7
q3 0 6.5 -4.5t6 -13.5t-0.5 -23q-2 -9 -14.5 -52t-33 -113.5t-36.5 -128.5q-1 -3 2 -6.5t6 -0.5q59 54 108 83q43 24 66 24zM341 336q-25 0 -58.5 -27.5t-61.5 -96.5q-1 -4 1.5 -10t8.5 -6q38 0 86 39.5t48 76.5q0 24 -24 24z" />
    <glyph glyph-name="l" unicode="l" horiz-adv-x="291" 
d="M118 617q0 8 11 17.5t26 11.5q109 14 144 14q8 0 12.5 -13.5t-0.5 -30.5q-8 -29 -45 -157t-61 -215t-33 -129q-2 -12 0.5 -23t9.5 -11q20 0 76 44q5 3 11.5 -1t6.5 -10q0 -20 -9 -34q-28 -45 -75 -69.5t-94 -24.5q-20 0 -37.5 18.5t-17.5 40.5q0 39 45 205q64 231 85 320
q2 9 -5 16.5t-29 12.5q-21 5 -21 18z" />
    <glyph glyph-name="m" unicode="m" horiz-adv-x="786" 
d="M193 425q14 0 28.5 -12.5t12.5 -33.5q-1 -6 -7.5 -24.5t-13 -35.5t-6.5 -18q-4 -9 3 -9q4 0 9 6q45 55 100 91t102 36q26 0 42 -16t16 -36q0 -19 -16 -62q-2 -7 2 -9q1 0 2 1q43 46 99.5 84t105.5 38q25 0 43 -22.5t18 -47.5q0 -35 -20 -90q-46 -115 -61 -145
q-3 -5 -1.5 -9t3.5 -5.5t3 -1.5q22 0 88 57q5 5 13.5 1.5t8.5 -10.5q-1 -32 -29 -59q-39 -38 -100.5 -72.5t-102.5 -34.5q-6 0 -20 10t-20 18q-8 10 -4 19q90 198 108 252q19 55 -9 55q-35 0 -94 -80q-20 -27 -51 -87t-55.5 -112.5t-27.5 -56.5q-2 -3 -12 -10.5t-15 -7.5
q-19 0 -42.5 16.5t-22.5 34.5q0 14 7 30q30 72 93 244q8 24 4.5 30.5t-18.5 6.5q-6 0 -11 -1t-10 -4t-9.5 -5.5t-10 -9t-9 -10t-10.5 -12.5t-10.5 -14t-12 -17t-12.5 -18q-19 -27 -49 -86.5t-53 -110t-25 -52.5q-15 -22 -33 -22q-19 0 -43.5 13t-23.5 31q0 19 16 57
q4 9 20 48t34.5 84.5t22.5 54.5q7 20 10.5 33.5t3 18.5t-3.5 5q-34 0 -80 -28q-6 -3 -14.5 0t-8.5 7q0 20 8 33q10 17 25 33t49.5 32.5t76.5 16.5z" />
    <glyph glyph-name="n" unicode="n" horiz-adv-x="540" 
d="M427 425q23 0 42.5 -22t19.5 -52q0 -26 -11 -66q-15 -52 -60 -172q-2 -5 1 -10.5t7 -5.5q18 0 69 41q5 4 12 -1.5t7 -14.5q0 -23 -22 -45q-33 -36 -83.5 -63.5t-99.5 -27.5q-16 0 -27.5 11t-13.5 20q-5 21 9 51q19 43 53 134.5t39 117.5q1 6 -2 14t-13 8q-29 0 -90 -98
q-31 -50 -76.5 -135t-46.5 -87q-22 -36 -34 -36q-26 0 -46 18.5t-20 35.5q0 28 15 63q29 67 72 193q4 9 2 15t-4.5 9t-4.5 3q-13 0 -63 -27q-27 -14 -27 12q0 12 6 26q17 35 59.5 63t92.5 28q22 0 34.5 -16t12.5 -32q0 -20 -29 -98q-2 -3 1.5 -4t6.5 3q56 68 119 113
q48 34 93 34z" />
    <glyph glyph-name="o" unicode="o" horiz-adv-x="462" 
d="M278 425q70 0 110.5 -47.5t40.5 -117.5q0 -68 -33.5 -135t-88.5 -103q-56 -36 -122 -36q-63 0 -105.5 48.5t-42.5 110.5q0 72 33 136.5t83 101.5q18 14 58 28t67 14zM281 376q-24 0 -55 -51q-34 -57 -50.5 -123t-16.5 -114q0 -23 14 -36.5t25 -13.5q10 0 16.5 5.5
t19.5 21.5q29 37 54.5 118t25.5 143q0 17 -10 33.5t-23 16.5z" />
    <glyph glyph-name="p" unicode="p" horiz-adv-x="504" 
d="M475 289q0 -74 -44 -144.5t-88 -102.5q-78 -56 -126 -56q-11 0 -44 13q-2 1 -6.5 -2t-4.5 -5q-4 -16 -13 -51.5t-13 -55.5q-5 -22 3.5 -34.5t42.5 -19.5q9 -2 18.5 -9t9.5 -13q0 -10 -9.5 -18.5t-28.5 -8.5q-1 0 -14 1t-33 2t-42.5 2l-45 2t-36.5 1q-8 0 -29.5 -1
t-28.5 -1q-33 0 -33 13q0 10 11 22t21 14q33 8 45 17.5t20 31.5q23 65 109 433q0 4 -1.5 9t-4.5 4l-66 -22q-4 -2 -10.5 1t-6.5 8t9 21.5t12 18.5q9 8 71 32q9 2 11 10q16 63 30 80q23 25 43 25q13 0 37.5 -16t24.5 -25q0 -13 -4 -45q0 -6 8 -6q52 6 71 6q70 0 102.5 -40.5
t32.5 -90.5zM347 298q0 62 -39 62q-34 0 -51 -5q-1 0 -4 -4t-7 -9.5t-4 -8.5q-8 -36 -31 -127.5t-28 -115.5q0 -15 2 -19q5 -13 16 -24t17 -11q34 0 84 92q11 21 28 85.5t17 84.5z" />
    <glyph glyph-name="q" unicode="q" horiz-adv-x="518" 
d="M304 425q48 0 76 -55q0 -1 5 -0.5t7 3.5q4 5 15 23t17 25q13 15 26 15q7 0 21.5 -9.5t20.5 -21.5q7 -13 -2 -50q-19 -61 -59 -217l-64 -255q-7 -25 0 -35.5t32 -15.5q11 -2 18 -8.5t7 -11.5q0 -8 -10 -16t-21 -8q-56 0 -135.5 -4.5t-102.5 -4.5q-16 0 -28 6.5t-12 14.5
t11.5 15.5t22.5 10.5q27 7 39 11t24 14t19 27q10 23 39.5 109t34.5 108q1 6 -4 7t-8 -3q-96 -113 -189 -113q-26 0 -50.5 26.5t-24.5 77.5q0 38 18.5 93t45.5 95q54 80 134 125q38 22 77 22zM305 372q-20 0 -53 -41q-37 -47 -65.5 -116.5t-28.5 -107.5q0 -10 9.5 -21
t16.5 -11q31 0 76 54q31 38 61 97t20 93q-12 53 -36 53z" />
    <glyph glyph-name="r" unicode="r" horiz-adv-x="407" 
d="M182 425q47 0 47 -61q0 -17 -28 -108q-1 -3 1 -5.5t5 -2t5 4.5q10 19 40.5 68t52.5 70q34 34 71 34q22 0 41.5 -15.5t19.5 -34.5q0 -26 -23 -56.5t-44 -41.5q-2 -1 -10.5 -1t-10.5 2q-2 1 -9.5 9.5t-14 13t-11.5 4.5t-16.5 -9t-16.5 -16q-49 -76 -126 -253
q-18 -41 -41 -41q-40 0 -63 23q-4 4 -4.5 17.5t2.5 21.5q54 162 80 253q2 8 -2.5 11.5t-10.5 3.5q-15 0 -44 -21q-25 -18 -30 -18q-12 0 -12 24q0 37 45 80.5t107 43.5z" />
    <glyph glyph-name="s" unicode="s" horiz-adv-x="334" 
d="M244 425q28 0 51 -9t31 -19q18 -24 18 -41q0 -14 -13 -36t-19 -22q-17 0 -32 13q-4 4 -22 21.5t-30.5 26.5t-22.5 9q-9 0 -19 -10.5t-10 -19.5q0 -37 73 -107q47 -50 47 -96q0 -60 -81 -114q-24 -16 -59 -25.5t-49 -9.5q-59 0 -90 31q-20 19 -20 50q0 29 31 52
q4 3 12 4.5t9 -0.5q79 -74 103 -74q17 0 27.5 8.5t10.5 20.5q0 30 -63 93q-26 26 -39 55t-13 50q0 26 17.5 53.5t39.5 46.5q27 23 63 36t49 13z" />
    <glyph glyph-name="t" unicode="t" horiz-adv-x="339" 
d="M239 526q20 0 39.5 -5.5t19.5 -10.5q0 -9 -25 -91q-3 -12 8 -12l84 1q3 0 5.5 -5.5t2.5 -9.5q0 -7 -7.5 -27.5t-13.5 -19.5l-89 5q-8 0 -12 -8q-8 -26 -31 -95.5t-34 -106.5q-11 -38 4 -38q9 0 35.5 17.5t51.5 39.5q2 1 6 -1.5t7 -8t3 -10.5q0 -24 -21 -47
q-28 -31 -88.5 -69t-97.5 -38q-21 0 -34.5 19.5t-13.5 34.5t10 49q1 2 32.5 99t47.5 150q3 12 -4 12q-5 0 -23.5 1.5t-28.5 1.5q-12 2 -12 14q0 7 4 16.5t8 15.5t6 6q46 0 64 2q1 0 5.5 4t5.5 6q12 20 48 92q4 8 17.5 12.5t20.5 4.5z" />
    <glyph glyph-name="u" unicode="u" horiz-adv-x="544" 
d="M221 425q25 0 34.5 -22.5t6.5 -42.5q-4 -22 -76 -232q-4 -13 -1.5 -21.5t10.5 -8.5q14 0 31 19t52 68q30 42 110 195q23 44 40 44q24 0 47.5 -14t23.5 -31q0 -24 -15 -72l-64 -201q-1 -1 0 -4t4 -6t8 -3q14 0 67 43q11 7 19.5 0.5t8.5 -13.5q0 -11 -14 -39
q-19 -39 -67 -70.5t-109 -31.5q-20 0 -32 13.5t-12 25.5q0 13 18 58q8 19 18 52.5t13 42.5q3 6 -3.5 7t-7.5 -1q-95 -133 -151 -169q-35 -22 -73 -22q-37 0 -54 25q-16 25 -5 62q3 17 30 94.5t46 123.5q5 10 3 15.5t-4 7t-4 1.5q-8 0 -18.5 -4.5t-27.5 -15.5l-17 -10
q-7 -4 -14.5 3t-7.5 15q0 11 22 37q26 31 76 56.5t89 25.5z" />
    <glyph glyph-name="v" unicode="v" horiz-adv-x="446" 
d="M199 425q10 0 23 -7.5t19 -18.5q7 -13 8.5 -34t-3.5 -35q-12 -34 -36 -113t-26 -86q-8 -16 3 -29q13 -15 24 -15q45 0 86.5 62t41.5 112q0 22 -27 76q-7 14 -7 29q0 14 28.5 36t53.5 22q18 0 31.5 -23.5t13.5 -57.5q0 -54 -34.5 -128t-80.5 -126q-93 -103 -185 -103
q-33 0 -56 27.5t-23 63.5q0 37 13 70q10 31 28.5 86t25.5 79q3 12 -9 12q-20 0 -69 -38q-5 -4 -12.5 2.5t-7.5 10.5q0 12 11 30q27 42 76.5 69t89.5 27z" />
    <glyph glyph-name="w" unicode="w" horiz-adv-x="674" 
d="M660 351q0 -91 -66 -194t-136 -143q-52 -30 -88 -30q-28 0 -49 20t-21 57q0 15 2 25q1 4 -1.5 5t-5 -0.5t-3.5 -2.5q-25 -35 -75 -68.5t-92 -33.5q-25 0 -48.5 30.5t-14.5 80.5q8 49 62 203q3 7 1 13t-8 6q-19 0 -62 -32q-9 -7 -16.5 -3t-7.5 14q0 12 12 32
q20 30 71 62.5t99 32.5q8 0 20.5 -6.5t16.5 -12.5q23 -31 3 -87q-30 -85 -61 -201q-4 -14 2 -24.5t16 -10.5q17 0 45 27t47 66q14 28 21 69q6 32 10 49q10 38 38 63t54 25q22 0 36.5 -16t14.5 -38q0 -30 -11 -57q-7 -16 -18.5 -39t-16.5 -34q-23 -50 -23 -82q0 -15 10 -25
t22 -10q39 0 76 49q52 69 52 150q0 13 -4 24.5t-12 24t-9 14.5q-2 4 -3 14.5t2 16.5q10 18 38 34.5t46 16.5q13 0 24 -20t11 -54z" />
    <glyph glyph-name="x" unicode="x" horiz-adv-x="500" 
d="M482 311q-27 -23 -43 -23l-3 2q-4 1 -9.5 4.5t-6.5 7.5l-4 12t-6 14.5t-8 5.5q-30 0 -85 -101q-1 -2 -2 -9.5t0 -9.5q22 -72 35 -95.5t32 -23.5q20 0 42 25q20 22 28 22q7 0 11 -9.5t4 -17.5q-1 -39 -54.5 -84t-97.5 -45q-24 0 -40.5 12t-23.5 25.5t-14 36.5l-7 22
q-7 21 -10 32q0 1 -2.5 2.5t-5.5 2t-6 -3.5q-57 -75 -94 -105t-76 -30q-20 0 -37.5 17.5t-16.5 38.5q0 22 19 45t42 39q4 3 12.5 1.5t10.5 -5.5q22 -37 40 -37q26 0 78 92q12 18 8 29q-14 49 -21 70q-6 17 -8.5 23.5t-6 13t-6.5 8t-8 1.5q-15 0 -65 -50q-7 -5 -17 3t-10 20
q0 16 14 35q15 25 59 63t80 38q28 0 45 -15.5t29 -57.5q2 -6 7 -21.5t8 -26.5q1 -5 6 -6t9 4q9 10 26 33t32 40q29 29 50 39.5t45 10.5q19 0 35.5 -16.5t16.5 -35.5q-4 -40 -30 -62z" />
    <glyph glyph-name="y" unicode="y" horiz-adv-x="446" 
d="M175 425q29 0 57.5 -30.5t37.5 -78.5q12 -61 6 -192q-1 -5 3 -6.5t8 3.5q44 108 87 289q1 5 7.5 12t13.5 7q17 0 34 -16.5t17 -39.5q0 -18 -23.5 -75t-52 -117t-28.5 -61q-9 -22 -34 -64t-27 -46q-29 -59 -70.5 -111.5t-77.5 -80.5q-58 -44 -110 -44q-36 0 -58.5 20.5
t-22.5 48.5q0 25 20.5 46t48.5 21q13 0 25 -14q29 -35 48 -35q52 0 81 104q5 22 10 107q4 91 -19 180q-14 58 -37 58q-21 0 -45 -33q-14 -20 -41 -20q-3 0 -6 6.5t-3 11.5q2 49 49 99.5t102 50.5z" />
    <glyph glyph-name="z" unicode="z" horiz-adv-x="459" 
d="M208 425q37 0 99 -24q41 -13 56 -13q24 0 56 32q12 13 22 13q5 0 12.5 -11.5t6.5 -20.5q0 -19 -23 -38q-65 -52 -156.5 -128.5t-105.5 -93.5q-2 -2 0 -6t5 -4q41 -2 98 -39q34 -22 61 -22q12 0 23.5 11.5t11.5 33.5t-4 49q0 2 5 8t7 6q27 0 39.5 -18.5t12.5 -42.5
q0 -18 -20 -49t-49 -56q-57 -48 -89 -48q-37 0 -102 52q-40 32 -64 32q-34 0 -57 -47q-9 -20 -24 -20q-9 0 -19 12t-10 25q0 24 73 100q26 27 101.5 92t100.5 87q5 11 0 12q-49 6 -56 8q-59 16 -78 16q-16 0 -23 -4.5t-7 -17.5q0 -7 8 -39q2 -7 -8 -17q-10 -11 -26.5 -18
t-24.5 -7t-15.5 10.5t-7.5 27.5q0 23 20 54t48 56q53 47 103 47z" />
    <glyph glyph-name="braceleft" unicode="{" horiz-adv-x="400" 
d="M243 -185q-28 0 -58.5 15.5t-54.5 41t-35 63.5t0 77q4 12 23.5 67t25.5 76q13 48 4.5 73.5t-40.5 37.5q-25 7 -25 27q0 5 6 11.5t15 7.5q56 8 80.5 28t32.5 52q3 12 11 86.5t16 100.5q18 60 89.5 99.5t138.5 39.5q9 0 18 -4.5t9 -12.5t-8 -16.5t-18 -10.5
q-21 -5 -32 -8.5t-31.5 -14t-34.5 -30t-22 -47.5q-9 -32 -8 -86.5t-6 -78.5q-12 -39 -49.5 -70.5t-102.5 -46.5q-12 -2 -2 -8q118 -56 64 -182q-31 -70 -47 -126q-8 -18 -5 -35.5t5 -27.5t13 -21t18.5 -17t21.5 -15q20 -13 20 -23q0 -8 -9.5 -15t-22.5 -7z" />
    <glyph glyph-name="bar" unicode="|" horiz-adv-x="320" 
d="M147 750h100v-1000h-100v1000z" />
    <glyph glyph-name="braceright" unicode="}" horiz-adv-x="400" 
d="M208 718q62 0 117 -61.5t29 -135.5q-2 -6 -16.5 -40.5t-20.5 -57.5q-13 -48 -5 -73t40 -37q25 -7 25 -27q0 -5 -6 -11.5t-15 -7.5q-56 -8 -80.5 -28t-32.5 -52q-3 -12 -14.5 -109.5t-19.5 -123.5q-18 -60 -90 -99.5t-140 -39.5q-9 0 -18 4.5t-9 12.5t8 16.5t18 10.5
q21 5 32 8.5t31.5 14t34.5 30t22 47.5q9 32 12.5 109.5t10.5 101.5q12 39 49.5 70.5t102.5 46.5q12 2 2 8q-115 55 -62 179q33 76 36 83q7 19 7 35t-4 26.5t-15 22t-18.5 17t-22.5 15.5q-20 13 -20 23q0 8 9.5 15t22.5 7z" />
    <glyph glyph-name="asciitilde" unicode="~" horiz-adv-x="646" 
d="M442 165q-21 0 -46.5 10t-43 21t-44.5 30.5t-37 25.5q-28 19 -50 19q-18 0 -34 -9.5t-29.5 -29t-20 -31t-16.5 -31.5q-2 -6 -15 -6q-17 0 -36 19q-3 3 -5 9t-1 8q21 59 65.5 103t105.5 44q26 0 53.5 -13t68 -42t45.5 -32q30 -19 49 -19q51 0 101 90q6 13 16 13
q19 0 38 -21q11 -11 5 -17q-25 -63 -68.5 -102t-100.5 -39z" />
    <glyph glyph-name="uni00A0" unicode="&#xa0;" horiz-adv-x="205" 
 />
    <glyph glyph-name="exclamdown" unicode="&#xa1;" horiz-adv-x="351" 
d="M74 -187q-14 0 -32.5 8.5t-26.5 19.5q-23 35 9 117q50 122 121 239q19 31 38 31q7 0 17 -12t9 -23q-5 -134 -25 -259q-16 -97 -50 -111q-24 -10 -60 -10zM204 276q-71 0 -73 82q-1 39 27 63t58 24q40 0 58 -23.5t18 -57.5q-2 -35 -25.5 -61.5t-62.5 -26.5z" />
    <glyph glyph-name="cent" unicode="&#xa2;" horiz-adv-x="525" 
d="M371 501l17 54q1 2 5 6t6 4q17 0 31 -9q7 -5 4 -11l-13 -45q-1 -5 3 -7q40 -2 71 -17q20 -10 20 -29q0 -23 -19 -48q-13 -18 -25 -18q-14 0 -27 18q-26 39 -34 45q-1 1 -4.5 0t-3.5 -3l-82 -276q-1 -2 0.5 -5t3.5 -3q63 9 123 50q4 3 12.5 0t8.5 -10q0 -25 -14 -39
q-48 -54 -149 -69q-5 0 -7 -8l-22 -64q-1 -3 -5.5 -7t-6.5 -4q-16 0 -30 8q-4 3 -4 9l17 60q2 8 -4 8q-72 8 -113.5 50t-41.5 112q0 101 80 167.5t193 73.5q7 0 10 7zM273 172l82 273q2 6 -4 6q-36 0 -81 -59.5t-46 -138.5q-1 -23 10.5 -50t30.5 -35q2 -1 5 1t3 3z" />
    <glyph glyph-name="sterling" unicode="&#xa3;" horiz-adv-x="525" 
d="M403 598q45 0 75.5 -24t30.5 -57q0 -30 -21 -52t-41 -21q-8 0 -15 6.5t-7 14.5v19q-1 24 -11.5 47t-28.5 23q-14 0 -28 -16.5t-31.5 -68t-31.5 -133.5q0 -2 2 -5t5 -2l86 2q2 0 5 -4t3 -6q0 -19 -8 -32q-3 -5 -8 -7l-89 -6q-3 0 -6 -4t-3 -6q-19 -72 -81 -134q-4 -4 3 -6
q57 -11 81 -25q70 -41 98 -41q29 0 36.5 13t9.5 45q1 21 -5 53q-1 5 7 12.5t12 7.5q20 0 37.5 -16.5t17.5 -42.5q0 -63 -67 -113.5t-129 -50.5q-63 0 -119 38q-10 7 -28.5 21t-25.5 19q-10 8 -25 -4q-21 -17 -53 -35t-42 -18q-11 0 -26.5 8.5t-15.5 21.5q0 18 27 44t72 43
q9 3 15 8q23 19 49 151q0 3 -1.5 5.5t-3.5 1.5l-68 -1q-8 0 -6 14q4 23 6 27q4 6 8 6l66 6q3 0 6.5 2.5t3.5 4.5q22 95 54.5 146.5t82.5 85.5q49 35 126 35z" />
    <glyph glyph-name="currency" unicode="&#xa4;" horiz-adv-x="525" 
d="M509 469l-55 -60q-2 -7 -1 -12q33 -50 33 -109q0 -56 -34 -104q-1 -1 -2 -3.5t0 -3.5l59 -65q11 -14 -14 -39q-7 -7 -17 -10.5t-15 1.5l-67 61q-3 3 -10 -1q-52 -32 -93 -32q-53 0 -97 27q-5 3 -12 -1l-60 -59q-10 -10 -33 11q-8 8 -12 17.5t-3 14.5t1 7l54 56q4 7 0 12
q-32 50 -32 110q0 52 32 102q1 1 1.5 5.5t-1.5 7.5l-57 65q-4 5 3 18.5t14 19.5q24 22 36 11l56 -58q8 -8 15 -3q43 26 95 26q53 0 100 -28q6 -3 10 1l55 58q13 13 38 -10q22 -19 13 -33zM293 405q-51 0 -82.5 -33t-31.5 -85t33 -84t81 -32q47 0 80 32t33 84q0 49 -35 83.5
t-78 34.5z" />
    <glyph glyph-name="yen" unicode="&#xa5;" horiz-adv-x="525" 
d="M375 320l79 1q10 0 10 -9q0 -14 -6 -28q-4 -7 -13 -7l-92 -1q-7 0 -10 -8l-12 -41q-1 -2 1 -5t4 -3l93 1q7 0 7 -15q0 -6 -7 -20q-4 -7 -14 -7l-92 -2q-8 0 -11 -11q-10 -33 -16 -65q-5 -29 0.5 -39.5t35.5 -18.5q29 -10 29 -26q0 -8 -12.5 -13.5t-25.5 -5.5
q-10 0 -54.5 1.5t-64.5 1.5q-12 0 -49.5 -1.5t-60.5 -1.5q-37 0 -39 22q0 17 36 26q22 4 31.5 8t20.5 18.5t20 42.5l14 54q1 3 -1.5 6t-5.5 3l-79 -1q-10 0 -10 7q0 17 9 30q3 6 12 6l84 3q1 0 4.5 2.5t4.5 4.5l12 41q0 7 -5 7l-84 -2q-1 0 -3 2.5t-2 3.5q-3 4 0 17.5
t6 15.5q8 5 13 5l75 2q9 0 7 8q-8 39 -42 172q-9 31 -47 45q-7 2 -17 9.5t-10 15.5q0 7 9.5 13t27.5 6q6 0 41.5 -2t48.5 -2q15 0 56 1.5t49 1.5q14 0 23.5 -6t9.5 -12q1 -8 -9 -16t-26 -11q-21 -7 -18 -24q17 -83 33 -152q3 -7 9 -1q28 33 113 141q25 35 -5 40q-8 1 -17 7
t-10 14q0 7 9.5 13.5t23.5 6.5q9 0 63 -3q10 0 37 1.5t38 1.5q33 0 33 -17q0 -18 -32 -26q-29 -7 -47 -20t-52 -47q-48 -50 -134 -152q-5 -7 3 -7z" />
    <glyph glyph-name="brokenbar" unicode="&#xa6;" horiz-adv-x="320" 
d="M147 -175v350h100v-350h-100zM147 675h100v-350h-100v350z" />
    <glyph glyph-name="section" unicode="&#xa7;" horiz-adv-x="498" 
d="M416 630q38 0 55 -22q8 -9 8 -21q0 -9 -14 -28.5t-22 -25.5q-16 -7 -25 -3q-44 27 -93 27q-28 0 -42 -15t-14 -34q0 -6 2 -13t5.5 -15.5t7 -15.5t10 -17t10.5 -16.5t12.5 -18t13 -17t13.5 -18t13 -17.5q82 -113 81 -182q0 -47 -17.5 -92.5t-35 -71.5t-46.5 -63
q-44 -54 -115 -96t-141 -42q-45 0 -66 15t-21 35q0 28 31 62q19 19 27 13q76 -53 109 -53q58 0 58 57q0 24 -16 52.5t-51 78.5q-81 117 -83 195q-3 104 113 229l20 24q20 24 39.5 42.5t39.5 30.5q64 36 134 36zM186 436q-13 -14 -23 -42.5t-9 -56.5q2 -53 74 -165
q42 -65 59.5 -101.5t20.5 -74.5q0 -1 1.5 -1.5t3.5 0t3 2.5q14 16 22.5 46t8.5 53q0 39 -14.5 77.5t-53.5 96.5q-67 100 -85 165q-2 9 -8 1z" />
    <glyph glyph-name="dieresis" unicode="&#xa8;" horiz-adv-x="400" 
d="M205 612q30 0 42.5 -19t12.5 -38q0 -41 -33 -62q-17 -10 -34 -10q-20 0 -36.5 15.5t-16.5 42.5q0 33 24 54q19 17 41 17zM391 612q30 0 42.5 -19t12.5 -38q0 -36 -24 -56q-19 -16 -43 -16q-20 0 -36.5 15.5t-16.5 42.5q0 36 28 57q17 14 37 14z" />
    <glyph glyph-name="copyright" unicode="&#xa9;" horiz-adv-x="803" 
d="M431 639q146 0 246 -102.5t100 -238.5q0 -131 -99 -236t-247 -105q-149 0 -247.5 97.5t-98.5 243.5q0 142 100.5 241.5t245.5 99.5zM431 588q-116 0 -196 -84t-80 -205q0 -122 81.5 -206.5t198.5 -84.5q116 0 194 84t78 207q0 121 -80 205t-196 84zM460 480q38 0 64 -6
q39 -9 46 -10q12 -4 12 -17q1 -8 1 -57q0 -11 -7 -20t-13 -9q-11 0 -22 26q-10 23 -30 38.5t-42 15.5q-45 0 -71.5 -42t-26.5 -84q0 -77 33 -110t71 -33q39 0 69 39l7.5 10t6.5 9t5.5 6.5t6.5 5t7 1.5q11 0 14 -12.5t0 -22.5q-1 -3 -8.5 -22t-9.5 -25q-3 -13 -24 -24
q-53 -15 -92 -15q-49 0 -95.5 17t-71.5 44q-15 17 -22 27t-16 36t-9 57q0 42 19.5 76t43.5 54q57 47 154 47z" />
    <glyph glyph-name="ordfeminine" unicode="&#xaa;" horiz-adv-x="386" 
d="M53 284q0 35 27 79q56 99 165 154q19 10 29 10q20 0 36 -12q5 -3 7 3q1 2 9 14q9 11 15 11q35 0 60 -17q12 -8 6 -23q-28 -64 -58 -160q-2 -6 1 -13.5t10 -7.5q10 0 52 28q5 5 10.5 2.5t5.5 -6.5q0 -20 -14 -39q-22 -29 -66 -47t-81 -18q-10 0 -21 8t-12 19t19 56
q2 7 -2 8t-10 -6q-83 -85 -153 -85q-12 0 -23.5 13t-11.5 29zM168 354q0 -24 15 -24q17 0 45 28t53 81q5 12 1 20q-9 14 -26 14q-27 0 -54 -32q-34 -44 -34 -87z" />
    <glyph glyph-name="guillemotleft" unicode="&#xab;" horiz-adv-x="736" 
d="M93 185q-5 6 -2.5 15.5t9.5 12.5q15 8 71.5 38t85.5 45t69 38t63 39q12 9 28 9q17 0 17 -17.5t-15 -32.5q-42 -40 -183 -135q-10 -8 -4 -15q68 -93 91 -129q5 -6 0.5 -23t-18.5 -17q-13 0 -33 20q-56 52 -179 152zM349 185q-6 5 -3 15t10 13q15 8 71.5 38t85.5 45t69 38
t63 39q12 9 28 9q11 0 14.5 -7t0 -17t-12.5 -20q-44 -46 -183 -141q-10 -8 -4 -15q4 -5 24 -31t28.5 -37t20.5 -29.5t18 -31.5q5 -7 0.5 -23.5t-18.5 -16.5q-15 0 -33 20q-26 27 -80.5 74t-98.5 78z" />
    <glyph glyph-name="logicalnot" unicode="&#xac;" horiz-adv-x="646" 
d="M553 26q-8 0 -15.5 4t-7.5 10l-3 231q0 16 -11 16l-423 2q-17 0 -17 25q0 14 5.5 30.5t9.5 16.5l503 2q8 0 12.5 -12t4.5 -19l-2 -286q0 -10 -20 -15t-36 -5z" />
    <glyph glyph-name="uni00AD" unicode="&#xad;" horiz-adv-x="358" 
d="M76 249l215 22q9 1 16 -8t7 -16q0 -30 -19 -57q-8 -11 -18 -11l-205 -16q-10 -1 -16.5 8.5t-6.5 18.5q0 27 13 46q9 13 14 13z" />
    <glyph glyph-name="registered" unicode="&#xae;" horiz-adv-x="294" 
d="M168 481v54q0 8 -2 12t-3 4.5t-8 1.5q-8 2 -8 5q0 8 9 9q35 3 67 3q23 0 36 -9t13 -23q0 -16 -17 -24q-2 -1 -2 -4q23 -41 33 -46q7 -1 7 -7q0 -9 -16 -9q-30 0 -43 19q-6 9 -15 27q-3 7 -10 7q-3 0 -3 -3v-14q0 -10 2 -13.5t10 -5.5q7 -2 7 -5q0 -8 -10 -8q-5 0 -10 0.5
t-10 0.5t-18.5 -0.5t-19.5 -0.5q-8 0 -8 6q0 3 4 5q10 4 12.5 7t2.5 11zM206 552v-33q0 -5 3 -5q7 0 14.5 5.5t7.5 15.5q0 21 -21 21q-4 0 -4 -4zM216 636q55 0 92.5 -37t37.5 -92q0 -49 -36.5 -90t-95.5 -41q-54 0 -91 38t-37 93q0 52 37.5 90.5t92.5 38.5zM216 615
q-44 0 -73.5 -30.5t-29.5 -77.5q0 -45 29.5 -76.5t73.5 -31.5q45 0 74 31t29 77t-30 76.5t-73 31.5z" />
    <glyph glyph-name="macron" unicode="&#xaf;" horiz-adv-x="400" 
d="M171 520q0 12 5 33.5t11 29.5q5 9 10 9q14 1 111.5 1t111.5 -1q3 0 6.5 -9.5t3.5 -15.5q0 -26 -16 -52q-6 -10 -8 -10q-15 -1 -108.5 -3.5t-111.5 -1.5q-5 0 -10 6.5t-5 13.5z" />
    <glyph glyph-name="degree" unicode="&#xb0;" horiz-adv-x="330" 
d="M228 404q-49 0 -87 33.5t-38 88.5q0 49 38.5 85.5t90.5 36.5q49 0 85.5 -34t36.5 -88q0 -55 -39 -88.5t-87 -33.5zM225 590q-24 0 -41.5 -21t-17.5 -43q0 -31 19.5 -48.5t49.5 -17.5q22 0 39 17.5t17 48.5q0 28 -19.5 46t-46.5 18z" />
    <glyph glyph-name="plusminus" unicode="&#xb1;" horiz-adv-x="646" 
d="M607 290l-202 -2q-8 0 -8 -9v-197q0 -15 -20.5 -23t-39.5 -8q-22 0 -22 25v199q0 5 -6.5 9t-12.5 4l-191 1q-13 0 -20 8t-7 17q0 14 8 31t18 17l203 1q2 0 5 4t3 6v192q0 9 22.5 17t37.5 8q9 0 16.5 -7t7.5 -19l-2 -191q0 -4 2 -6.5t4 -3t3 -0.5l206 -1q10 0 15 -7.5
t5 -14.5q0 -20 -7.5 -35t-17.5 -15zM612 -66l-519 -1q-6 0 -10.5 9t-4.5 16q0 13 3 25t7 18.5t7 6.5h524q13 0 13 -22q0 -14 -4 -26.5t-8.5 -19t-7.5 -6.5z" />
    <glyph glyph-name="twosuperior" unicode="&#xb2;" horiz-adv-x="340" 
d="M289 740q43 0 76 -28.5t33 -69.5q0 -34 -17 -57.5t-55 -50.5q-20 -14 -49 -31.5t-37 -22.5q-2 -2 -1 -5t4 -3q63 0 84 3q11 1 38 25q17 17 25 17q9 0 12 -11.5t-1 -19.5l-45 -88q-5 -8 -25 -8q-3 0 -63.5 1t-76.5 1h-62q-14 0 -22 6t-8 12q0 14 23 29q47 32 105 79
q61 52 61 106q0 21 -12 33t-32 12q-30 0 -58 -28q-6 -6 -14 -9t-15 0t-7 14q0 13 13 30q6 8 18.5 20t43.5 28t64 16z" />
    <glyph glyph-name="threesuperior" unicode="&#xb3;" horiz-adv-x="340" 
d="M289 740q53 0 76 -24t23 -48q0 -14 -5.5 -26t-18 -21t-20 -13.5t-24 -12t-17.5 -7.5q-3 -1 0 -4l8 -2q8 -3 11.5 -4.5t12.5 -5.5t14 -8t12 -10.5t11 -13t7 -16t3 -20.5q0 -39 -35 -71t-80 -47.5t-84 -15.5q-42 0 -63.5 16.5t-19.5 46.5q0 7 6 18.5t11 11.5q14 0 21 -6
q4 -3 15.5 -13.5t17.5 -15t16.5 -9t21.5 -4.5q24 0 41.5 20t17.5 51q0 25 -15 39.5t-35 14.5q-14 0 -25 -1q-9 -1 -12.5 4t-3.5 10q0 14 25 26q41 21 44 23q39 18 39 54q0 33 -30 33t-62 -45q-3 -4 -11 -4t-12 3q-3 3 -9 32q0 15 11 23q49 42 117 42z" />
    <glyph glyph-name="acute" unicode="&#xb4;" horiz-adv-x="400" 
d="M329 660q15 0 43.5 -6.5t36.5 -16.5q5 -6 5.5 -19t-7.5 -25q-42 -52 -125 -126q-21 -19 -46 -19q-9 0 -16 12t0 29q25 62 75 146q5 9 17 17t17 8z" />
    <glyph glyph-name="mu" unicode="&#xb5;" horiz-adv-x="529" 
d="M184 430q17 0 39 -7.5t32 -15.5q7 -5 10 -21t1 -23q-4 -13 -30 -58.5t-41 -65.5q-8 -11 -54 -95q-8 -16 -7 -28q1 -5 9.5 -11t14.5 -6q27 0 77 43t81 91q10 14 16 34q12 34 20.5 62.5t12.5 42t7 19.5q18 40 34 40q27 0 52 -10.5t32 -21.5q12 -16 -3 -56
q-14 -37 -53.5 -97t-68.5 -93q-5 -7 -8 -17q-1 -16 16.5 -22.5t34.5 -6.5q35 0 79 28q7 7 18 -1t11 -20q-1 -7 -11.5 -32t-19.5 -36q-50 -67 -106 -67q-69 0 -69 78q0 17 1 26q0 9 -7 2q-51 -57 -83 -79.5t-62 -22.5q-39 0 -61 55l-5 4q-2 0 -3 -4q-10 -33 -10 -85
q0 -10 8 -25.5t23 -37t17 -24.5t-0.5 -16t-6.5 -19q-6 -9 -51 -42q-26 -18 -44 -18q-15 0 -27.5 17t-12.5 30q0 42 10 79q9 39 33 118.5t26 86.5l12 50q0 1 14 56.5t28.5 115t18.5 69.5q2 5 11.5 17.5t13.5 13.5q13 6 31 6z" />
    <glyph glyph-name="paragraph" unicode="&#xb6;" horiz-adv-x="618" 
d="M99 299q0 76 32 132t76 89q85 60 230 66q110 5 243 5q12 0 15 -21q0 -15 -8.5 -24.5t-22.5 -9.5l-73 4q-3 0 -6.5 -3.5t-9 -13.5t-9.5 -25q-138 -522 -147 -553q-14 -52 -28.5 -87.5t-38.5 -73.5t-61.5 -57.5t-86.5 -19.5q-67 0 -102.5 38t-35.5 86t33 80.5t72 32.5
q33 0 52.5 -19t21.5 -51q2 -18 -13.5 -39t-34.5 -21q-17 0 -31 9q-6 5 -9 5q-5 0 -10.5 -4t-4.5 -12q1 -15 20.5 -33t53.5 -18q17 0 32 5t25.5 12t20.5 20.5t16 22.5t13 27t9.5 25.5t8 26t6.5 21.5q5 16 35 135q0 6 -1 9.5t-6 2.5q-6 -1 -28 -1q-63 0 -112.5 21.5t-78 56
t-43 74t-14.5 80.5zM485 535q-35 0 -61 -41q-34 -52 -60.5 -145t-26.5 -156q0 -33 11.5 -55t32.5 -22q14 0 19 17l103 389q2 5 -5 9t-13 4z" />
    <glyph glyph-name="periodcentered" unicode="&#xb7;" horiz-adv-x="280" 
d="M154 279q71 0 73 -82q1 -39 -27 -63t-58 -24q-40 0 -58 23.5t-18 57.5q2 35 25.5 61.5t62.5 26.5z" />
    <glyph glyph-name="cedilla" unicode="&#xb8;" horiz-adv-x="400" 
d="M168 -68q1 -11 24 -45q15 -23 15 -44q0 -31 -40.5 -58t-70.5 -27q-31 0 -46.5 14.5t-16.5 37.5q-1 10 5.5 18.5t11.5 8.5q10 0 19 -8q26 -23 42 -23q18 0 18 13q0 7 -4 14t-12.5 18t-11.5 15q-12 17 -13.5 36.5t7.5 29.5q25 34 98 78h42q-23 -16 -35 -25.5t-22 -24
t-10 -28.5z" />
    <glyph glyph-name="onesuperior" unicode="&#xb9;" horiz-adv-x="340" 
d="M184 692q-1 7 8 12t19 7q101 13 143 30q7 2 15 -4.5t6 -17.5q0 -2 -2.5 -8t-8 -23t-12.5 -38q-17 -52 -47 -174q-6 -23 0 -32t26 -13q27 -6 27 -23q0 -19 -30 -19q-6 0 -47.5 1.5t-53.5 1.5q-22 0 -54.5 -1.5t-41.5 -1.5q-28 0 -28 17q0 9 11 16.5t27 9.5q33 5 46 34
q21 46 57 173q4 13 -2 20.5t-31 10.5q-8 1 -17.5 8t-9.5 14z" />
    <glyph glyph-name="ordmasculine" unicode="&#xba;" horiz-adv-x="348" 
d="M268 542q57 0 83.5 -32t26.5 -73q0 -67 -35.5 -113t-81.5 -67q-39 -15 -84 -15q-47 0 -78 28t-31 75q0 49 26 94.5t59 67.5q51 35 115 35zM263 502q-15 0 -36 -23t-39.5 -74t-18.5 -89q0 -31 18 -31q13 0 33 23q21 25 41.5 75t20.5 88q0 14 -5.5 22.5t-13.5 8.5z" />
    <glyph glyph-name="guillemotright" unicode="&#xbb;" horiz-adv-x="736" 
d="M639 210q5 -6 2.5 -15.5t-9.5 -12.5q-15 -8 -71.5 -38t-85.5 -45t-69 -38t-63 -39q-12 -9 -28 -9q-17 0 -17 17.5t15 32.5q42 40 183 135q10 8 4 15q-68 93 -91 129q-5 6 -0.5 23t18.5 17q13 0 33 -20q56 -52 179 -152zM383 210q6 -5 3 -15t-10 -13q-15 -8 -71.5 -38
t-85.5 -45t-69 -38t-63 -39q-12 -9 -28 -9q-11 0 -14.5 7t0 17t12.5 20q44 46 183 141q10 8 4 15q-4 5 -24 31t-28.5 37t-20.5 29.5t-18 31.5q-5 7 -0.5 23.5t18.5 16.5q15 0 33 -20q26 -27 80.5 -74t98.5 -78z" />
    <glyph glyph-name="onequarter" unicode="&#xbc;" horiz-adv-x="768" 
d="M702 346q10 0 15 -7.5t3 -15.5l-39 -165q-2 -7 5 -6l43 2q6 1 6 -14q0 -18 -10 -28q-2 -2 -14 -5q-2 0 -14.5 -1t-19.5 -1t-8 -7q-4 -12 -13 -49t-11 -43q-2 -11 -18 -15q-21 -7 -73 -7q-7 0 -12.5 6t-3.5 12q4 12 22 89q3 8 -1 8h-3q-15 0 -69 -1.5t-58 -1.5
q-11 0 -15.5 8.5t1.5 18.5q2 3 24 25q108 104 163 149l24 18q49 31 76 31zM141 550q-1 7 8 12t19 7q101 13 143 30q7 2 15 -4.5t6 -17.5q0 -2 -2.5 -8t-8 -23t-12.5 -38q-17 -52 -47 -174q-6 -23 0 -32t26 -13q27 -6 27 -23q0 -19 -30 -19q-6 0 -47.5 1.5t-53.5 1.5
q-22 0 -54.5 -1.5t-41.5 -1.5q-28 0 -28 17q0 9 11 16.5t27 9.5q33 5 46 34q21 46 57 173q4 13 -2 20.5t-31 10.5q-8 1 -17.5 8t-9.5 14zM687 634q4 0 15 -8t14 -13q6 -7 -3 -19q-112 -136 -294.5 -351t-232.5 -275q-13 -13 -18 -13t-9.5 3t-7 6.5t-5.5 8.5t-4 6q-2 3 0 6
q177 210 522 627q19 22 23 22zM580 152q18 59 25 89q1 5 -0.5 5.5t-5.5 -2.5q-42 -31 -102 -91q-4 -4 -4 -6.5t2 -3.5t4 -1l71 2q7 0 10 8z" />
    <glyph glyph-name="onehalf" unicode="&#xbd;" horiz-adv-x="795" 
d="M626 348q43 0 76 -28.5t33 -69.5q0 -34 -17 -57.5t-55 -50.5q-20 -14 -49 -31.5t-37 -22.5q-2 -2 -1 -5t4 -3q63 0 84 3q11 1 38 25q17 17 25 17q9 0 12 -11.5t-1 -19.5l-45 -88q-5 -8 -25 -8q-3 0 -63.5 1t-76.5 1h-62q-14 0 -22 6t-8 12q0 14 23 29q47 32 105 79
q61 52 61 106q0 21 -12 33t-32 12q-30 0 -58 -28q-6 -6 -14 -9t-15 0t-7 14q0 13 13 30q6 8 18.5 20t43.5 28t64 16zM141 550q-1 7 8 12t19 7q101 13 143 30q7 2 15 -4.5t6 -17.5q0 -2 -2.5 -8t-8 -23t-12.5 -38q-17 -52 -47 -174q-6 -23 0 -32t26 -13q27 -6 27 -23
q0 -19 -30 -19q-6 0 -47.5 1.5t-53.5 1.5q-22 0 -54.5 -1.5t-41.5 -1.5q-28 0 -28 17q0 9 11 16.5t27 9.5q33 5 46 34q21 46 57 173q4 13 -2 20.5t-31 10.5q-8 1 -17.5 8t-9.5 14zM676 634q4 0 15 -8t14 -13q6 -7 -3 -19q-112 -136 -294.5 -351t-232.5 -275q-13 -13 -18 -13
t-9.5 3t-7 6.5t-5.5 8.5t-4 6q-2 3 0 6q177 210 522 627q19 22 23 22z" />
    <glyph glyph-name="threequarters" unicode="&#xbe;" horiz-adv-x="754" 
d="M688 346q10 0 15 -7.5t3 -15.5l-39 -165q-2 -7 5 -6l43 2q6 1 6 -14q0 -18 -10 -28q-2 -2 -14 -5q-2 0 -14.5 -1t-19.5 -1t-8 -7q-4 -12 -13 -49t-11 -43q-2 -11 -18 -15q-21 -7 -73 -7q-7 0 -12.5 6t-3.5 12q4 12 22 89q3 8 -1 8h-3q-15 0 -69 -1.5t-58 -1.5
q-11 0 -15.5 8.5t1.5 18.5q2 3 24 25q108 104 163 149l24 18q49 31 76 31zM246 598q53 0 76 -24t23 -48q0 -14 -5.5 -26t-18 -21t-20 -13.5t-24 -12t-17.5 -7.5q-3 -1 0 -4l8 -2q8 -3 11.5 -4.5t12.5 -5.5t14 -8t12 -10.5t11 -13t7 -16t3 -20.5q0 -39 -35 -71t-80 -47.5
t-84 -15.5q-42 0 -63.5 16.5t-19.5 46.5q0 7 5.5 18.5t11.5 11.5q14 0 21 -6q4 -3 15.5 -13.5t17.5 -15t16.5 -9t21.5 -4.5q24 0 41.5 20t17.5 51q0 25 -15 39.5t-35 14.5q-14 0 -25 -1q-9 -1 -12.5 4t-3.5 10q0 14 25 26q41 21 44 23q39 18 39 54q0 33 -30 33t-62 -45
q-3 -4 -11 -4t-12 3q-3 3 -9 32q0 15 11 23q49 42 117 42zM678 634q4 0 15 -8t14 -13q6 -7 -3 -19q-112 -136 -294.5 -351t-232.5 -275q-13 -13 -18 -13t-9.5 3t-7 6.5t-5.5 8.5t-4 6q-2 3 0 6q177 210 522 627q19 22 23 22zM566 152q18 59 25 89q1 5 -0.5 5.5t-5.5 -2.5
q-42 -31 -102 -91q-4 -4 -4 -6.5t2 -3.5t4 -1l71 2q7 0 10 8z" />
    <glyph glyph-name="questiondown" unicode="&#xbf;" horiz-adv-x="402" 
d="M173 -183q-31 0 -52 6.5t-51 27.5q-25 17 -43.5 50.5t-18.5 65.5q0 54 58 97q16 12 30.5 20t33 16.5t32.5 16.5q13 7 22 20t9 21q0 22 -18 50q-2 1 -1 8t4 10q11 9 28 9q26 0 59 -35.5t34 -86.5t-42 -86q-11 -9 -27 -18t-46 -23t-40 -19q-28 -14 -39 -24.5t-11 -24.5
q0 -31 34 -31q29 0 65 40q5 6 21.5 15t26.5 9q14 0 30 -19.5t16 -43.5q1 -30 -34 -50.5t-80 -20.5zM266 446q40 0 58 -23.5t18 -57.5q-2 -35 -25.5 -61.5t-62.5 -26.5q-71 0 -73 82q-1 39 27 63t58 24z" />
    <glyph glyph-name="Agrave" unicode="&#xc0;" horiz-adv-x="668" 
d="M577 616q23 0 16 -42q-14 -79 -34 -243t-22 -219q-1 -39 6.5 -50t36.5 -19q30 -8 30 -25q0 -2 -4 -7.5t-11.5 -11t-16.5 -5.5q-14 0 -80 3t-87 3q-17 0 -42 -2t-42 -2q-14 0 -24 7.5t-10 14.5q0 16 30 24q32 9 41 15.5t15 29.5q18 67 21 116q1 16 -9 16q-65 0 -125 -6
q-14 -2 -25 -13q-16 -17 -41 -56t-36 -64q-8 -13 -4.5 -22.5t24.5 -15.5q27 -7 27 -24q0 -8 -9.5 -14.5t-21.5 -6.5q-21 0 -48 1.5t-40 1.5q-15 0 -54.5 -3.5t-58.5 -3.5q-35 0 -35 20q0 19 35 26q56 11 76.5 24.5t55.5 56.5q84 104 187 242t130 186q2 5 11.5 13.5t13.5 8.5
q12 0 45 9t50 24q15 13 29 13zM303 265q36 0 94 5q12 1 15 18q10 40 19 135q4 30 -5 30q-8 0 -27 -24q-22 -27 -59.5 -80t-46.5 -71q-7 -13 10 -13zM455 815q23 0 38 -15q63 -73 89 -111q7 -11 10 -25.5t-3 -21.5q-18 -11 -52 7q-81 43 -126 76q-25 20 -25 38q0 16 25.5 34
t43.5 18z" />
    <glyph glyph-name="Aacute" unicode="&#xc1;" horiz-adv-x="668" 
d="M577 616q23 0 16 -42q-14 -79 -34 -243t-22 -219q-1 -39 6.5 -50t36.5 -19q30 -8 30 -25q0 -2 -4 -7.5t-11.5 -11t-16.5 -5.5q-14 0 -80 3t-87 3q-17 0 -42 -2t-42 -2q-14 0 -24 7.5t-10 14.5q0 16 30 24q32 9 41 15.5t15 29.5q18 67 21 116q1 16 -9 16q-65 0 -125 -6
q-14 -2 -25 -13q-16 -17 -41 -56t-36 -64q-8 -13 -4.5 -22.5t24.5 -15.5q27 -7 27 -24q0 -8 -9.5 -14.5t-21.5 -6.5q-21 0 -48 1.5t-40 1.5q-15 0 -54.5 -3.5t-58.5 -3.5q-35 0 -35 20q0 19 35 26q56 11 76.5 24.5t55.5 56.5q84 104 187 242t130 186q2 5 11.5 13.5t13.5 8.5
q12 0 45 9t50 24q15 13 29 13zM303 265q36 0 94 5q12 1 15 18q10 40 19 135q4 30 -5 30q-8 0 -27 -24q-22 -27 -59.5 -80t-46.5 -71q-7 -13 10 -13zM739 753q0 -23 -31 -42q-52 -26 -180 -73q-9 -5 -24.5 -3.5t-21.5 9.5q-5 6 -2.5 18.5t12.5 21.5q66 53 161 119q8 6 24 6
t19 -4q11 -4 27 -21.5t16 -30.5z" />
    <glyph glyph-name="Acircumflex" unicode="&#xc2;" horiz-adv-x="668" 
d="M577 616q23 0 16 -42q-14 -79 -34 -243t-22 -219q-1 -39 6.5 -50t36.5 -19q30 -8 30 -25q0 -2 -4 -7.5t-11.5 -11t-16.5 -5.5q-14 0 -80 3t-87 3q-17 0 -42 -2t-42 -2q-14 0 -24 7.5t-10 14.5q0 16 30 24q32 9 41 15.5t15 29.5q18 67 21 116q1 16 -9 16q-65 0 -125 -6
q-14 -2 -25 -13q-16 -17 -41 -56t-36 -64q-8 -13 -4.5 -22.5t24.5 -15.5q27 -7 27 -24q0 -8 -9.5 -14.5t-21.5 -6.5q-21 0 -48 1.5t-40 1.5q-15 0 -54.5 -3.5t-58.5 -3.5q-35 0 -35 20q0 19 35 26q56 11 76.5 24.5t55.5 56.5q84 104 187 242t130 186q2 5 11.5 13.5t13.5 8.5
q12 0 45 9t50 24q15 13 29 13zM303 265q36 0 94 5q12 1 15 18q10 40 19 135q4 30 -5 30q-8 0 -27 -24q-22 -27 -59.5 -80t-46.5 -71q-7 -13 10 -13zM588 790q6 0 18.5 -8.5t18.5 -15.5q8 -12 34.5 -42.5t43.5 -56.5q10 -17 5.5 -24.5t-17.5 -7.5q-19 0 -41 11q-46 26 -80 48
q-2 1 -10.5 1t-9.5 -1q-85 -42 -115 -53q-16 -7 -41 -7q-5 0 -7.5 5.5t0.5 15t13 19.5q7 7 28.5 21.5t55.5 37.5t58 40q22 17 46 17z" />
    <glyph glyph-name="Atilde" unicode="&#xc3;" horiz-adv-x="668" 
d="M577 616q23 0 16 -42q-14 -79 -34 -243t-22 -219q-1 -39 6.5 -50t36.5 -19q30 -8 30 -25q0 -2 -4 -7.5t-11.5 -11t-16.5 -5.5q-14 0 -80 3t-87 3q-17 0 -42 -2t-42 -2q-14 0 -24 7.5t-10 14.5q0 16 30 24q32 9 41 15.5t15 29.5q18 67 21 116q1 16 -9 16q-65 0 -125 -6
q-14 -2 -25 -13q-16 -17 -41 -56t-36 -64q-8 -13 -4.5 -22.5t24.5 -15.5q27 -7 27 -24q0 -8 -9.5 -14.5t-21.5 -6.5q-21 0 -48 1.5t-40 1.5q-15 0 -54.5 -3.5t-58.5 -3.5q-35 0 -35 20q0 19 35 26q56 11 76.5 24.5t55.5 56.5q84 104 187 242t130 186q2 5 11.5 13.5t13.5 8.5
q12 0 45 9t50 24q15 13 29 13zM303 265q36 0 94 5q12 1 15 18q10 40 19 135q4 30 -5 30q-8 0 -27 -24q-22 -27 -59.5 -80t-46.5 -71q-7 -13 10 -13zM478 748q28 0 85.5 -7t71.5 -7q23 0 60 40q5 4 14 4q3 0 10 -7.5t11 -14.5q3 -9 0 -14q-3 -4 -21 -24.5t-30.5 -33.5
t-23.5 -20q-25 -15 -54 -15q-12 0 -75.5 9.5t-75.5 6.5q-19 -4 -47 -35q-9 -12 -15 -12q-7 0 -17 9.5t-10 14.5q0 16 27.5 48.5t47.5 45.5q18 12 42 12z" />
    <glyph glyph-name="Adieresis" unicode="&#xc4;" horiz-adv-x="668" 
d="M577 616q23 0 16 -42q-14 -79 -34 -243t-22 -219q-1 -39 6.5 -50t36.5 -19q30 -8 30 -25q0 -2 -4 -7.5t-11.5 -11t-16.5 -5.5q-14 0 -80 3t-87 3q-17 0 -42 -2t-42 -2q-14 0 -24 7.5t-10 14.5q0 16 30 24q32 9 41 15.5t15 29.5q18 67 21 116q1 16 -9 16q-65 0 -125 -6
q-14 -2 -25 -13q-16 -17 -41 -56t-36 -64q-8 -13 -4.5 -22.5t24.5 -15.5q27 -7 27 -24q0 -8 -9.5 -14.5t-21.5 -6.5q-21 0 -48 1.5t-40 1.5q-15 0 -54.5 -3.5t-58.5 -3.5q-35 0 -35 20q0 19 35 26q56 11 76.5 24.5t55.5 56.5q84 104 187 242t130 186q2 5 11.5 13.5t13.5 8.5
q12 0 45 9t50 24q15 13 29 13zM303 265q36 0 94 5q12 1 15 18q10 40 19 135q4 30 -5 30q-8 0 -27 -24q-22 -27 -59.5 -80t-46.5 -71q-7 -13 10 -13zM449 765q30 0 42 -18.5t12 -37.5q0 -36 -21.5 -54.5t-44.5 -18.5q-20 0 -36.5 15.5t-16.5 42.5q0 31 20.5 51t44.5 20z
M655 765q30 0 42.5 -18.5t12.5 -37.5q0 -36 -22 -54.5t-45 -18.5q-20 0 -36.5 15.5t-16.5 42.5q0 31 20.5 51t44.5 20z" />
    <glyph glyph-name="Aring" unicode="&#xc5;" horiz-adv-x="668" 
d="M577 616q23 0 16 -42q-14 -79 -34 -243t-22 -219q-1 -39 6.5 -50t36.5 -19q30 -8 30 -25q0 -2 -4 -7.5t-11.5 -11t-16.5 -5.5q-14 0 -80 3t-87 3q-17 0 -42 -2t-42 -2q-14 0 -24 7.5t-10 14.5q0 16 30 24q32 9 41 15.5t15 29.5q18 67 21 116q1 16 -9 16q-65 0 -125 -6
q-14 -2 -25 -13q-16 -17 -41 -56t-36 -64q-8 -13 -4.5 -22.5t24.5 -15.5q27 -7 27 -24q0 -8 -9.5 -14.5t-21.5 -6.5q-21 0 -48 1.5t-40 1.5q-15 0 -54.5 -3.5t-58.5 -3.5q-35 0 -35 20q0 19 35 26q56 11 76.5 24.5t55.5 56.5q84 104 187 242t130 186q2 5 11.5 13.5t13.5 8.5
q12 0 45 9t50 24q15 13 29 13zM303 265q36 0 94 5q12 1 15 18q10 40 19 135q4 30 -5 30q-8 0 -27 -24q-22 -27 -59.5 -80t-46.5 -71q-7 -13 10 -13zM566 816q41 0 64.5 -30t16.5 -67q-5 -38 -34.5 -63t-71.5 -25q-41 0 -64 29t-16 67q5 37 34.5 63t70.5 26zM561 773
q-18 0 -32 -13t-17 -33q-4 -23 7 -38t29 -15q41 0 48 47q3 20 -6.5 36t-28.5 16z" />
    <glyph glyph-name="AE" unicode="&#xc6;" horiz-adv-x="972" 
d="M406 580q0 9 11.5 15t24.5 6q10 0 106 -1.5t120 -1.5h95q112 0 220 8q5 0 9 -8.5t1 -17.5q-13 -32 -34 -106q-3 -13 -11.5 -22.5t-16.5 -9.5q-16 0 -16 33q-1 61 -24 68q-29 9 -67 9q-41 0 -61 -5q-8 -3 -19 -26q-17 -36 -62 -196q0 -7 5 -7h83q19 0 29 5t23 23
q25 34 31 34q8 0 18 -10t5 -24q-38 -108 -44 -138q-2 -12 -5.5 -17.5t-6 -6t-6.5 -0.5q-13 0 -19 9.5t-6 18.5q-1 27 -6 36t-17 12q-31 9 -94 -1q-5 0 -11 -12q-17 -48 -32 -147q-2 -15 1 -30t10 -17q18 -5 81 -5q48 0 73 7t53 29q15 13 44 52q14 21 32 21q14 0 14 -27
q-1 -28 -25.5 -73.5t-37.5 -54.5q-15 -11 -34 -11q-16 0 -119.5 5.5t-191.5 3.5q-135 -3 -145 -3q-13 0 -20 7t-7 14q0 9 9 15.5t19 8.5q56 11 71 20t24 41q21 65 39 144q1 4 -1 10.5t-9 6.5q-107 -2 -144 -6q-3 -1 -26 -12q-23 -14 -68.5 -71.5t-61.5 -86.5q-13 -25 43 -43
q10 -3 16 -10.5t6 -13.5q1 -9 -11.5 -16.5t-22.5 -7.5q-2 0 -24 0.5t-55.5 1.5t-63.5 1q-23 0 -47.5 -1.5t-31.5 -1.5q-17 0 -26.5 7t-9.5 15q0 19 39 27q38 8 64 21t35.5 22t34.5 37l350 400q3 4 1.5 10.5t-7.5 7.5q-3 1 -13.5 2.5t-26.5 4.5t-24 4q-29 7 -29 25zM524 318
q13 0 18 14q3 9 23 87t24 95q1 10 -4 14t-10 -1q-33 -35 -99.5 -113t-73.5 -91q-6 -9 5 -9q14 0 62.5 2t54.5 2z" />
    <glyph glyph-name="Ccedilla" unicode="&#xc7;" horiz-adv-x="657" 
d="M476 615q27 0 54 -4.5t41.5 -9.5t30.5 -12t17 -7q20 -6 35 5q21 14 29 9q4 -3 9.5 -16t3.5 -17q-35 -67 -46 -119q-3 -14 -14.5 -24.5t-18.5 -10.5q-16 0 -17 35q-2 48 -18 71q-17 25 -45.5 39t-51.5 14q-43 0 -80.5 -19t-80.5 -68q-40 -45 -63 -117.5t-23 -137.5
q0 -24 7 -60.5t15 -51.5q15 -34 48.5 -56t71.5 -21q59 1 110 50q7 7 26 27t31 30q18 16 29 16q8 0 12 -9t2 -20q-5 -25 -68 -130q-11 -16 -27 -4q-19 15 -41 7q-42 -15 -95 -21q-28 -23 -27 -47q0 -6 4.5 -13.5t13.5 -18.5t13 -17q13 -20 13 -45q0 -31 -44 -57.5t-75 -26.5
t-47.5 15t-17.5 37q-1 10 5.5 18.5t11.5 8.5q9 0 20 -7q3 -2 10 -7.5t11.5 -9t10.5 -6t12 -2.5q17 0 17 15q0 7 -4.5 14.5t-13.5 17t-12 14.5q-12 17 -13.5 36.5t7.5 29.5q16 21 54 50q-106 8 -164 67q-68 68 -68 185q0 104 48 186t130 136q89 59 222 59z" />
    <glyph glyph-name="Egrave" unicode="&#xc8;" horiz-adv-x="613" 
d="M318 343h83q19 0 29 5t23 23q25 34 31 34q8 0 18 -10t5 -24q-38 -108 -44 -138q-2 -12 -5.5 -17.5t-6 -6t-6.5 -0.5q-13 0 -19 9.5t-6 18.5q-1 27 -6 36t-17 12q-17 5 -43 5q-15 0 -51 -6q-5 0 -11 -12q-21 -59 -38 -172q-2 -15 1 -30t10 -17q18 -5 81 -5q48 0 73 7
t53 29q15 13 44 52q14 21 32 21q14 0 14 -27q-1 -28 -25.5 -73.5t-37.5 -54.5q-15 -11 -34 -11q-16 0 -119.5 5.5t-191.5 3.5q-18 0 -76.5 -2.5t-78.5 -2.5q-16 0 -26 6.5t-10 16.5q0 19 36 24q50 8 65.5 18.5t25.5 37.5q12 36 34 114t47 169.5t34 122.5q8 27 -2 38t-47 18
q-34 7 -34 25q0 7 12 13.5t29 6.5l52 -3q52 -4 78 -4h95q112 0 220 8q5 0 9 -8.5t1 -17.5q-13 -32 -34 -106q-3 -13 -11.5 -22.5t-16.5 -9.5q-16 0 -16 33q-1 61 -24 68q-29 9 -67 9q-41 0 -61 -5q-8 -3 -19 -26q-20 -42 -56 -171q0 -7 5 -7zM327 812q23 0 38 -15
q63 -73 89 -111q7 -11 10 -25.5t-3 -21.5q-18 -11 -52 7q-81 43 -126 76q-25 20 -25 38q0 16 25.5 34t43.5 18z" />
    <glyph glyph-name="Eacute" unicode="&#xc9;" horiz-adv-x="613" 
d="M318 343h83q19 0 29 5t23 23q25 34 31 34q8 0 18 -10t5 -24q-38 -108 -44 -138q-2 -12 -5.5 -17.5t-6 -6t-6.5 -0.5q-13 0 -19 9.5t-6 18.5q-1 27 -6 36t-17 12q-17 5 -43 5q-15 0 -51 -6q-5 0 -11 -12q-21 -59 -38 -172q-2 -15 1 -30t10 -17q18 -5 81 -5q48 0 73 7
t53 29q15 13 44 52q14 21 32 21q14 0 14 -27q-1 -28 -25.5 -73.5t-37.5 -54.5q-15 -11 -34 -11q-16 0 -119.5 5.5t-191.5 3.5q-18 0 -76.5 -2.5t-78.5 -2.5q-16 0 -26 6.5t-10 16.5q0 19 36 24q50 8 65.5 18.5t25.5 37.5q12 36 34 114t47 169.5t34 122.5q8 27 -2 38t-47 18
q-34 7 -34 25q0 7 12 13.5t29 6.5l52 -3q52 -4 78 -4h95q112 0 220 8q5 0 9 -8.5t1 -17.5q-13 -32 -34 -106q-3 -13 -11.5 -22.5t-16.5 -9.5q-16 0 -16 33q-1 61 -24 68q-29 9 -67 9q-41 0 -61 -5q-8 -3 -19 -26q-20 -42 -56 -171q0 -7 5 -7zM593 752q0 -23 -31 -42
q-52 -26 -180 -73q-9 -5 -24.5 -3.5t-21.5 9.5q-5 6 -2.5 18.5t12.5 21.5q66 53 161 119q8 6 24 6t19 -4q11 -4 27 -21.5t16 -30.5z" />
    <glyph glyph-name="Ecircumflex" unicode="&#xca;" horiz-adv-x="613" 
d="M318 343h83q19 0 29 5t23 23q25 34 31 34q8 0 18 -10t5 -24q-38 -108 -44 -138q-2 -12 -5.5 -17.5t-6 -6t-6.5 -0.5q-13 0 -19 9.5t-6 18.5q-1 27 -6 36t-17 12q-17 5 -43 5q-15 0 -51 -6q-5 0 -11 -12q-21 -59 -38 -172q-2 -15 1 -30t10 -17q18 -5 81 -5q48 0 73 7
t53 29q15 13 44 52q14 21 32 21q14 0 14 -27q-1 -28 -25.5 -73.5t-37.5 -54.5q-15 -11 -34 -11q-16 0 -119.5 5.5t-191.5 3.5q-18 0 -76.5 -2.5t-78.5 -2.5q-16 0 -26 6.5t-10 16.5q0 19 36 24q50 8 65.5 18.5t25.5 37.5q12 36 34 114t47 169.5t34 122.5q8 27 -2 38t-47 18
q-34 7 -34 25q0 7 12 13.5t29 6.5l52 -3q52 -4 78 -4h95q112 0 220 8q5 0 9 -8.5t1 -17.5q-13 -32 -34 -106q-3 -13 -11.5 -22.5t-16.5 -9.5q-16 0 -16 33q-1 61 -24 68q-29 9 -67 9q-41 0 -61 -5q-8 -3 -19 -26q-20 -42 -56 -171q0 -7 5 -7zM446 798q6 0 18.5 -8.5
t18.5 -15.5q8 -12 34.5 -42.5t43.5 -56.5q10 -17 5.5 -24.5t-17.5 -7.5q-19 0 -41 11q-46 26 -80 48q-2 1 -10.5 1t-9.5 -1q-85 -42 -115 -53q-16 -7 -41 -7q-5 0 -7.5 5.5t0.5 15t13 19.5q7 7 28.5 21.5t55.5 37.5t58 40q22 17 46 17z" />
    <glyph glyph-name="Edieresis" unicode="&#xcb;" horiz-adv-x="613" 
d="M318 343h83q19 0 29 5t23 23q25 34 31 34q8 0 18 -10t5 -24q-38 -108 -44 -138q-2 -12 -5.5 -17.5t-6 -6t-6.5 -0.5q-13 0 -19 9.5t-6 18.5q-1 27 -6 36t-17 12q-17 5 -43 5q-15 0 -51 -6q-5 0 -11 -12q-21 -59 -38 -172q-2 -15 1 -30t10 -17q18 -5 81 -5q48 0 73 7
t53 29q15 13 44 52q14 21 32 21q14 0 14 -27q-1 -28 -25.5 -73.5t-37.5 -54.5q-15 -11 -34 -11q-16 0 -119.5 5.5t-191.5 3.5q-18 0 -76.5 -2.5t-78.5 -2.5q-16 0 -26 6.5t-10 16.5q0 19 36 24q50 8 65.5 18.5t25.5 37.5q12 36 34 114t47 169.5t34 122.5q8 27 -2 38t-47 18
q-34 7 -34 25q0 7 12 13.5t29 6.5l52 -3q52 -4 78 -4h95q112 0 220 8q5 0 9 -8.5t1 -17.5q-13 -32 -34 -106q-3 -13 -11.5 -22.5t-16.5 -9.5q-16 0 -16 33q-1 61 -24 68q-29 9 -67 9q-41 0 -61 -5q-8 -3 -19 -26q-20 -42 -56 -171q0 -7 5 -7zM312 780q30 0 42 -18.5
t12 -37.5q0 -36 -21.5 -54.5t-44.5 -18.5q-20 0 -36.5 15.5t-16.5 42.5q0 31 20.5 51t44.5 20zM518 780q30 0 42.5 -18.5t12.5 -37.5q0 -36 -22 -54.5t-45 -18.5q-20 0 -36.5 15.5t-16.5 42.5q0 31 20.5 51t44.5 20z" />
    <glyph glyph-name="Igrave" unicode="&#xcc;" horiz-adv-x="390" 
d="M134 579q0 21 34 21q6 0 39.5 -1t56.5 -1q28 0 91.5 2.5t70.5 2.5q32 0 32 -18q0 -17 -29 -25q-35 -8 -46.5 -19t-22.5 -42q-39 -112 -107 -366q-12 -34 -6.5 -54t15 -27t32.5 -14q26 -8 26 -23q0 -22 -36 -22q-13 0 -89.5 3t-91.5 3q-16 0 -45 -0.5t-39 -0.5
q-16 0 -28 5.5t-12 12.5q0 10 9 19t27 12q63 10 74 44q23 74 52 175t46.5 167t20.5 78q4 21 -4 29.5t-42 14.5q-12 2 -20 9.5t-8 14.5zM224 815q23 0 38 -15q63 -73 89 -111q7 -11 10 -25.5t-3 -21.5q-18 -11 -52 7q-81 43 -126 76q-25 20 -25 38q0 16 25.5 34t43.5 18z" />
    <glyph glyph-name="Iacute" unicode="&#xcd;" horiz-adv-x="390" 
d="M134 579q0 21 34 21q6 0 39.5 -1t56.5 -1q28 0 91.5 2.5t70.5 2.5q32 0 32 -18q0 -17 -29 -25q-35 -8 -46.5 -19t-22.5 -42q-39 -112 -107 -366q-12 -34 -6.5 -54t15 -27t32.5 -14q26 -8 26 -23q0 -22 -36 -22q-13 0 -89.5 3t-91.5 3q-16 0 -45 -0.5t-39 -0.5
q-16 0 -28 5.5t-12 12.5q0 10 9 19t27 12q63 10 74 44q23 74 52 175t46.5 167t20.5 78q4 21 -4 29.5t-42 14.5q-12 2 -20 9.5t-8 14.5zM514 753q0 -23 -31 -42q-52 -26 -180 -73q-9 -5 -24.5 -3.5t-21.5 9.5q-5 6 -2.5 18.5t12.5 21.5q66 53 161 119q8 6 24 6t19 -4
q11 -4 27 -21.5t16 -30.5z" />
    <glyph glyph-name="Icircumflex" unicode="&#xce;" horiz-adv-x="390" 
d="M134 579q0 21 34 21q6 0 39.5 -1t56.5 -1q28 0 91.5 2.5t70.5 2.5q32 0 32 -18q0 -17 -29 -25q-35 -8 -46.5 -19t-22.5 -42q-39 -112 -107 -366q-12 -34 -6.5 -54t15 -27t32.5 -14q26 -8 26 -23q0 -22 -36 -22q-13 0 -89.5 3t-91.5 3q-16 0 -45 -0.5t-39 -0.5
q-16 0 -28 5.5t-12 12.5q0 10 9 19t27 12q63 10 74 44q23 74 52 175t46.5 167t20.5 78q4 21 -4 29.5t-42 14.5q-12 2 -20 9.5t-8 14.5zM363 795q6 0 18.5 -8.5t18.5 -15.5q8 -12 34.5 -42.5t43.5 -56.5q10 -17 5.5 -24.5t-17.5 -7.5q-19 0 -41 11q-46 26 -80 48
q-2 1 -10.5 1t-9.5 -1q-85 -42 -115 -53q-16 -7 -41 -7q-5 0 -7.5 5.5t0.5 15t13 19.5q7 7 28.5 21.5t55.5 37.5t58 40q22 17 46 17z" />
    <glyph glyph-name="Idieresis" unicode="&#xcf;" horiz-adv-x="390" 
d="M134 579q0 21 34 21q6 0 39.5 -1t56.5 -1q28 0 91.5 2.5t70.5 2.5q32 0 32 -18q0 -17 -29 -25q-35 -8 -46.5 -19t-22.5 -42q-39 -112 -107 -366q-12 -34 -6.5 -54t15 -27t32.5 -14q26 -8 26 -23q0 -22 -36 -22q-13 0 -89.5 3t-91.5 3q-16 0 -45 -0.5t-39 -0.5
q-16 0 -28 5.5t-12 12.5q0 10 9 19t27 12q63 10 74 44q23 74 52 175t46.5 167t20.5 78q4 21 -4 29.5t-42 14.5q-12 2 -20 9.5t-8 14.5zM228 775q30 0 42 -18.5t12 -37.5q0 -36 -21.5 -54.5t-44.5 -18.5q-20 0 -36.5 15.5t-16.5 42.5q0 31 20.5 51t44.5 20zM434 775
q30 0 42.5 -18.5t12.5 -37.5q0 -36 -22 -54.5t-45 -18.5q-20 0 -36.5 15.5t-16.5 42.5q0 31 20.5 51t44.5 20z" />
    <glyph glyph-name="Eth" unicode="&#xd0;" horiz-adv-x="745" 
d="M416 606q144 0 229 -78q36 -34 55 -87t19 -105q0 -103 -68 -195t-188 -125q-83 -23 -180 -23q-37 0 -96.5 3.5t-64.5 3.5q-9 0 -53 -2.5t-58 -2.5q-15 0 -28 6.5t-14 17.5q0 9 12 17t30 9q49 5 64 19t31 72l41 153q1 2 -2.5 6t-5.5 4h-61q-2 0 -5.5 5t-3.5 8q0 17 8 28
q6 8 13 8l65 1q7 0 10 12q26 98 30 122q9 42 1 53.5t-50 18.5q-36 7 -36 17q-1 11 9.5 19t25.5 8h17h20h16q200 7 218 7zM410 557q-6 0 -19 -4t-16 -9q-6 -10 -27 -77.5t-31 -107.5q-3 -10 5 -10l117 -1q10 0 10 -18q0 -16 -7 -23t-13 -7l-120 -1q-7 0 -11 -9l-45 -171
q-10 -26 2 -44q10 -14 27.5 -23.5t28.5 -9.5q27 0 59 11t54 27q136 103 136 264q0 72 -18 116q-16 40 -55 68.5t-77 28.5z" />
    <glyph glyph-name="Ntilde" unicode="&#xd1;" horiz-adv-x="713" 
d="M96 581q0 9 10.5 16.5t26.5 7.5q6 0 86 -3.5t96 -3.5q3 0 11 -8t12 -16q21 -37 102 -202t95 -185q1 -1 4 0t3 2q61 231 68 276q8 52 -1.5 67.5t-53.5 25.5q-29 6 -29 23q0 8 11 15.5t27 7.5q2 0 51.5 -3t72.5 -3q13 0 35 1.5t36 1.5q15 0 24 -7.5t9 -15.5q0 -16 -34 -23
q-42 -9 -54.5 -21t-30.5 -67q-14 -42 -44.5 -160t-43.5 -185q-4 -20 -4 -32q0 -22 34 -50q16 -14 16 -22q0 -7 -9.5 -15.5t-18.5 -8.5q-4 0 -30.5 1.5t-46 2t-36.5 -0.5h-25q-5 0 -12 6t-10 16q-1 2 -21 48q-32 74 -172 365q-1 3 -4.5 3t-4.5 -2q-57 -205 -68 -290
q-7 -53 4.5 -73t42.5 -28q34 -9 34 -19q0 -7 -9 -17.5t-21 -10.5q-10 0 -58.5 2.5t-59.5 2.5q-14 0 -53 -2t-55 -2q-6 0 -14 5t-8 10q0 10 9.5 19.5t24.5 12.5q42 8 58.5 20t22.5 31q48 143 104 363q10 36 3 53q-13 33 -86 50q-6 1 -11 9t-5 12zM406 767q28 0 85.5 -7
t71.5 -7q23 0 60 40q5 4 14 4q3 0 10 -7.5t11 -14.5q3 -9 0 -14q-3 -4 -21 -24.5t-30.5 -33.5t-23.5 -20q-25 -15 -54 -15q-12 0 -75.5 9.5t-75.5 6.5q-19 -4 -47 -35q-9 -12 -15 -12q-7 0 -17 9.5t-10 14.5q0 16 27.5 48.5t47.5 45.5q18 12 42 12z" />
    <glyph glyph-name="Ograve" unicode="&#xd2;" horiz-adv-x="715" 
d="M453 616q103 0 172 -69.5t69 -177.5q0 -78 -35 -160t-99 -138q-103 -89 -253 -89q-106 0 -167 61q-67 67 -67 171t49 197t132 147q44 29 87.5 43.5t111.5 14.5zM446 566q-53 0 -101 -53q-55 -61 -86.5 -158.5t-31.5 -194.5q0 -54 22 -91q24 -40 65 -40q50 0 92 38
q56 50 94 164.5t38 203.5q0 51 -22 91t-70 40zM414 825q23 0 38 -15q63 -73 89 -111q7 -11 10 -25.5t-3 -21.5q-18 -11 -52 7q-81 43 -126 76q-25 20 -25 38q0 16 25.5 34t43.5 18z" />
    <glyph glyph-name="Oacute" unicode="&#xd3;" horiz-adv-x="715" 
d="M453 616q103 0 172 -69.5t69 -177.5q0 -78 -35 -160t-99 -138q-103 -89 -253 -89q-106 0 -167 61q-67 67 -67 171t49 197t132 147q44 29 87.5 43.5t111.5 14.5zM446 566q-53 0 -101 -53q-55 -61 -86.5 -158.5t-31.5 -194.5q0 -54 22 -91q24 -40 65 -40q50 0 92 38
q56 50 94 164.5t38 203.5q0 51 -22 91t-70 40zM657 763q0 -23 -31 -42q-52 -26 -180 -73q-9 -5 -24.5 -3.5t-21.5 9.5q-5 6 -2.5 18.5t12.5 21.5q66 53 161 119q8 6 24 6t19 -4q11 -4 27 -21.5t16 -30.5z" />
    <glyph glyph-name="Ocircumflex" unicode="&#xd4;" horiz-adv-x="715" 
d="M453 616q103 0 172 -69.5t69 -177.5q0 -78 -35 -160t-99 -138q-103 -89 -253 -89q-106 0 -167 61q-67 67 -67 171t49 197t132 147q44 29 87.5 43.5t111.5 14.5zM446 566q-53 0 -101 -53q-55 -61 -86.5 -158.5t-31.5 -194.5q0 -54 22 -91q24 -40 65 -40q50 0 92 38
q56 50 94 164.5t38 203.5q0 51 -22 91t-70 40zM514 799q6 0 18.5 -8.5t18.5 -15.5q8 -12 34.5 -42.5t43.5 -56.5q10 -17 5.5 -24.5t-17.5 -7.5q-19 0 -41 11q-46 26 -80 48q-2 1 -10.5 1t-9.5 -1q-85 -42 -115 -53q-16 -7 -41 -7q-5 0 -7.5 5.5t0.5 15t13 19.5
q7 7 28.5 21.5t55.5 37.5t58 40q22 17 46 17z" />
    <glyph glyph-name="Otilde" unicode="&#xd5;" horiz-adv-x="715" 
d="M453 616q103 0 172 -69.5t69 -177.5q0 -78 -35 -160t-99 -138q-103 -89 -253 -89q-106 0 -167 61q-67 67 -67 171t49 197t132 147q44 29 87.5 43.5t111.5 14.5zM446 566q-53 0 -101 -53q-55 -61 -86.5 -158.5t-31.5 -194.5q0 -54 22 -91q24 -40 65 -40q50 0 92 38
q56 50 94 164.5t38 203.5q0 51 -22 91t-70 40zM415 781q28 0 85.5 -7t71.5 -7q23 0 60 40q5 4 14 4q3 0 10 -7.5t11 -14.5q3 -9 0 -14q-3 -4 -21 -24.5t-30.5 -33.5t-23.5 -20q-25 -15 -54 -15q-12 0 -75.5 9.5t-75.5 6.5q-19 -4 -47 -35q-9 -12 -15 -12q-7 0 -17 9.5
t-10 14.5q0 16 27.5 48.5t47.5 45.5q18 12 42 12z" />
    <glyph glyph-name="Odieresis" unicode="&#xd6;" horiz-adv-x="715" 
d="M453 616q103 0 172 -69.5t69 -177.5q0 -78 -35 -160t-99 -138q-103 -89 -253 -89q-106 0 -167 61q-67 67 -67 171t49 197t132 147q44 29 87.5 43.5t111.5 14.5zM446 566q-53 0 -101 -53q-55 -61 -86.5 -158.5t-31.5 -194.5q0 -54 22 -91q24 -40 65 -40q50 0 92 38
q56 50 94 164.5t38 203.5q0 51 -22 91t-70 40zM383 785q30 0 42 -18.5t12 -37.5q0 -36 -21.5 -54.5t-44.5 -18.5q-20 0 -36.5 15.5t-16.5 42.5q0 31 20.5 51t44.5 20zM589 785q30 0 42.5 -18.5t12.5 -37.5q0 -36 -22 -54.5t-45 -18.5q-20 0 -36.5 15.5t-16.5 42.5
q0 31 20.5 51t44.5 20z" />
    <glyph glyph-name="multiply" unicode="&#xd7;" horiz-adv-x="646" 
d="M577 23q-4 -4 -13 -6t-14 2l-190 179q-4 4 -10 0l-174 -168q-4 -4 -15.5 -3t-17.5 6q-10 9 -16.5 24.5t-2.5 20.5l175 170q1 1 1 5t-1 5l-172 165q-6 6 6 26t23 31q9 5 18 2.5t15 -8.5l168 -162q2 -2 6.5 -2.5t5.5 1.5l170 168q6 7 15.5 9t13.5 -2q15 -14 23 -31.5
t0 -25.5l-174 -170q-1 -1 0 -3.5t2 -3.5l181 -177q5 -5 -3 -22.5t-20 -29.5z" />
    <glyph glyph-name="Oslash" unicode="&#xd8;" horiz-adv-x="715" 
d="M452 616q62 0 106 -22q6 -3 13 4l21 30q9 12 33 12q16 0 18 -11q2 -7 -3 -13l-29 -44q-5 -7 0 -12q36 -29 59.5 -78.5t23.5 -107.5q0 -100 -55.5 -201t-148.5 -149q-83 -43 -184 -43q-52 0 -109 23q-9 4 -14 -2l-38 -45q-3 -4 -9.5 -4.5t-10.5 2.5q-11 9 -15 17
q-3 7 1 13l28 39q3 5 3 10.5t-2 7.5q-67 65 -67 173q0 89 45 179.5t126 152.5q91 69 208 69zM244 67q22 -39 74 -39q62 0 114 59q45 51 80 149t35 201q0 13 -3 34q0 2 -4 4.5t-6 -0.5l-288 -392q-7 -9 -2 -16zM448 566q-30 0 -50 -11t-49 -38q-61 -58 -96 -153.5t-35 -189.5
q0 -7 3 -31q0 -3 3.5 -5t5.5 1l283 386q2 5 -1 10q-9 13 -27 22t-37 9z" />
    <glyph glyph-name="Ugrave" unicode="&#xd9;" horiz-adv-x="713" 
d="M123 585q0 18 30 18q11 0 66 -2.5t75 -2.5q21 0 64.5 2.5t51.5 2.5q32 0 32 -20q0 -19 -37 -28q-30 -7 -43 -19t-23 -45q-32 -105 -72 -266q-11 -44 -9 -72t22 -50q37 -42 99 -42q125 0 174 147q40 120 70 250q13 55 5.5 72t-51.5 28q-32 8 -32 25q0 20 36 20
q11 0 47 -2.5t58 -2.5q16 0 47 2t37 2q12 0 21 -6t9 -16q0 -16 -36 -24q-34 -7 -47 -21.5t-26 -52.5q-38 -115 -80 -268q-24 -86 -64 -138q-30 -40 -86 -67t-131 -27q-54 0 -104.5 17.5t-77.5 48.5q-26 30 -34 63.5t0 84.5q6 39 43.5 174.5t38.5 145.5q2 15 -8 24.5
t-40 18.5q-25 8 -25 26zM411 811q23 0 38 -15q63 -73 89 -111q7 -11 10 -25.5t-3 -21.5q-18 -11 -52 7q-81 43 -126 76q-25 20 -25 38q0 16 25.5 34t43.5 18z" />
    <glyph glyph-name="Uacute" unicode="&#xda;" horiz-adv-x="713" 
d="M123 585q0 18 30 18q11 0 66 -2.5t75 -2.5q21 0 64.5 2.5t51.5 2.5q32 0 32 -20q0 -19 -37 -28q-30 -7 -43 -19t-23 -45q-32 -105 -72 -266q-11 -44 -9 -72t22 -50q37 -42 99 -42q125 0 174 147q40 120 70 250q13 55 5.5 72t-51.5 28q-32 8 -32 25q0 20 36 20
q11 0 47 -2.5t58 -2.5q16 0 47 2t37 2q12 0 21 -6t9 -16q0 -16 -36 -24q-34 -7 -47 -21.5t-26 -52.5q-38 -115 -80 -268q-24 -86 -64 -138q-30 -40 -86 -67t-131 -27q-54 0 -104.5 17.5t-77.5 48.5q-26 30 -34 63.5t0 84.5q6 39 43.5 174.5t38.5 145.5q2 15 -8 24.5
t-40 18.5q-25 8 -25 26zM690 753q0 -23 -31 -42q-52 -26 -180 -73q-9 -5 -24.5 -3.5t-21.5 9.5q-5 6 -2.5 18.5t12.5 21.5q66 53 161 119q8 6 24 6t19 -4q11 -4 27 -21.5t16 -30.5z" />
    <glyph glyph-name="Ucircumflex" unicode="&#xdb;" horiz-adv-x="713" 
d="M123 585q0 18 30 18q11 0 66 -2.5t75 -2.5q21 0 64.5 2.5t51.5 2.5q32 0 32 -20q0 -19 -37 -28q-30 -7 -43 -19t-23 -45q-32 -105 -72 -266q-11 -44 -9 -72t22 -50q37 -42 99 -42q125 0 174 147q40 120 70 250q13 55 5.5 72t-51.5 28q-32 8 -32 25q0 20 36 20
q11 0 47 -2.5t58 -2.5q16 0 47 2t37 2q12 0 21 -6t9 -16q0 -16 -36 -24q-34 -7 -47 -21.5t-26 -52.5q-38 -115 -80 -268q-24 -86 -64 -138q-30 -40 -86 -67t-131 -27q-54 0 -104.5 17.5t-77.5 48.5q-26 30 -34 63.5t0 84.5q6 39 43.5 174.5t38.5 145.5q2 15 -8 24.5
t-40 18.5q-25 8 -25 26zM528 805q6 0 18.5 -8.5t18.5 -15.5q8 -12 34.5 -42.5t43.5 -56.5q10 -17 5.5 -24.5t-17.5 -7.5q-19 0 -41 11q-46 26 -80 48q-2 1 -10.5 1t-9.5 -1q-85 -42 -115 -53q-16 -7 -41 -7q-5 0 -7.5 5.5t0.5 15t13 19.5q7 7 28.5 21.5t55.5 37.5t58 40
q22 17 46 17z" />
    <glyph glyph-name="Udieresis" unicode="&#xdc;" horiz-adv-x="713" 
d="M123 585q0 18 30 18q11 0 66 -2.5t75 -2.5q21 0 64.5 2.5t51.5 2.5q32 0 32 -20q0 -19 -37 -28q-30 -7 -43 -19t-23 -45q-32 -105 -72 -266q-11 -44 -9 -72t22 -50q37 -42 99 -42q125 0 174 147q40 120 70 250q13 55 5.5 72t-51.5 28q-32 8 -32 25q0 20 36 20
q11 0 47 -2.5t58 -2.5q16 0 47 2t37 2q12 0 21 -6t9 -16q0 -16 -36 -24q-34 -7 -47 -21.5t-26 -52.5q-38 -115 -80 -268q-24 -86 -64 -138q-30 -40 -86 -67t-131 -27q-54 0 -104.5 17.5t-77.5 48.5q-26 30 -34 63.5t0 84.5q6 39 43.5 174.5t38.5 145.5q2 15 -8 24.5
t-40 18.5q-25 8 -25 26zM404 785q30 0 42 -18.5t12 -37.5q0 -36 -21.5 -54.5t-44.5 -18.5q-20 0 -36.5 15.5t-16.5 42.5q0 31 20.5 51t44.5 20zM610 785q30 0 42.5 -18.5t12.5 -37.5q0 -36 -22 -54.5t-45 -18.5q-20 0 -36.5 15.5t-16.5 42.5q0 31 20.5 51t44.5 20z" />
    <glyph glyph-name="Yacute" unicode="&#xdd;" horiz-adv-x="639" 
d="M96 582q0 9 9.5 15.5t24.5 6.5q10 0 56 -3t66 -3q33 0 74 2.5t46 2.5q34 0 34 -18q0 -19 -26 -27q-26 -7 -34 -15t-4 -21q2 -6 20 -74.5t28 -101.5q1 -3 5.5 -4.5t8.5 1.5q13 13 66.5 80t68.5 92q19 32 -18 43q-12 4 -19 11t-7 14q0 6 8.5 12.5t21.5 6.5q3 0 31 -2t53 -2
q11 0 50.5 2.5t51.5 2.5q33 0 33 -19q0 -8 -9.5 -16t-22.5 -11q-41 -10 -64.5 -21t-51.5 -41q-89 -94 -172 -202q-14 -17 -24 -48q-18 -51 -38 -146q-6 -26 2.5 -37.5t46.5 -20.5q29 -7 29 -25q0 -21 -37 -21q-24 0 -79 2.5t-63 2.5q-15 0 -63.5 -3t-73.5 -3q-18 0 -26.5 8
t-8.5 15q0 19 32 25q44 10 60 21.5t27 48.5l37 121q5 16 8 40t1 30q-32 124 -54 182q-15 38 -28 49.5t-45 22.5q-31 10 -31 25zM648 755q0 -23 -31 -42q-52 -26 -180 -73q-9 -5 -24.5 -3.5t-21.5 9.5q-5 6 -2.5 18.5t12.5 21.5q66 53 161 119q8 6 24 6t19 -4q11 -4 27 -21.5
t16 -30.5z" />
    <glyph glyph-name="Thorn" unicode="&#xde;" horiz-adv-x="604" 
d="M137 580q0 6 10.5 12.5t24.5 6.5q6 0 31.5 -0.5t48.5 -0.5q28 0 93 2t73 2q11 0 21.5 -5.5t10.5 -12.5q0 -20 -31 -26q-35 -5 -47.5 -17t-25.5 -60q-3 -10 6 -10q13 1 50 1q39 0 81.5 -12.5t61.5 -30.5q50 -47 50 -112q0 -95 -92 -156q-63 -40 -168 -40q-30 0 -38 4
q-18 10 -18 22q0 4 9 11.5t16 8.5q30 5 51.5 12.5t44 23t34.5 44t12 68.5q0 56 -27.5 84t-68.5 28q-5 0 -14.5 -9t-11.5 -16q-49 -166 -75 -275q-11 -43 -1.5 -59.5t51.5 -26.5q23 -6 23 -24q1 -5 -8.5 -12.5t-17.5 -7.5q-1 0 -58 1.5t-75 1.5q-16 0 -77 -1t-72 -1
q-13 0 -21.5 7t-8.5 15q0 18 39 25q57 10 72 58q23 77 48.5 172t39 151t16.5 71q7 28 2 40t-33 18q-31 8 -31 25z" />
    <glyph glyph-name="germandbls" unicode="&#xdf;" horiz-adv-x="526" 
d="M447 664q85 0 124 -33t40 -72q1 -49 -35 -69l-86 -44q-49 -24 -66 -45.5t-17 -52.5q0 -24 40 -102q32 -60 34 -106q0 -50 -51 -95q-26 -23 -66 -41t-61 -18q-43 0 -70.5 14.5t-27.5 36.5q-1 23 28 50q5 6 17.5 6t19.5 -6q47 -41 68 -41q35 0 35 44q-1 28 -44 117
q-37 74 -38 100q0 41 28 74t119 88q42 26 53.5 44t11.5 40q-1 22 -21 42.5t-58 20.5q-119 0 -188 -231q-37 -126 -68 -367q-6 -46 -16 -77t-31.5 -55.5t-38.5 -38t-55 -38.5q-8 -5 -12 -8q-48 -31 -98 -31q-37 0 -59.5 15.5t-22.5 34.5q0 36 23 55q5 4 20 6.5t20 -0.5
q49 -43 72 -43q20 0 31.5 15t20.5 62q17 84 39 211q25 151 54 245t80 159q105 134 252 134z" />
    <glyph glyph-name="agrave" unicode="&#xe0;" horiz-adv-x="507" 
d="M310 402q23 0 35 -6q1 -1 3.5 1t3.5 4q13 32 16 36q8 10 30 10q25 0 51 -18q17 -12 17 -27q0 -3 -18.5 -67.5t-39 -137.5t-23.5 -93q-1 -7 2 -9q4 -3 11 -3q19 0 75 49q6 6 14.5 2t8.5 -14q0 -14 -12 -36q-22 -40 -69 -73.5t-107 -33.5q-18 0 -35.5 12t-17.5 27
q0 5 26 88q2 6 -4 5.5t-10 -5.5q-33 -42 -90 -84.5t-104 -42.5q-9 0 -25.5 6.5t-23.5 12.5q-18 15 -18 41q0 56 64 147q93 131 192 191q30 18 48 18zM286 329q-34 0 -67 -34q-35 -38 -52 -84t-17 -82q0 -10 7.5 -21.5t18.5 -11.5q23 0 68 52q33 38 46 64t30 85q3 14 -5 22
q-10 10 -29 10zM318 673q17 0 30 -45q14 -50 25 -129q2 -16 -6 -28t-17 -12q-6 0 -19 7.5t-18 12.5q-58 75 -83 122q-7 15 -4.5 29.5t9.5 20.5q6 5 37.5 13.5t45.5 8.5z" />
    <glyph glyph-name="aacute" unicode="&#xe1;" horiz-adv-x="507" 
d="M310 402q23 0 35 -6q1 -1 3.5 1t3.5 4q13 32 16 36q8 10 30 10q25 0 51 -18q17 -12 17 -27q0 -3 -18.5 -67.5t-39 -137.5t-23.5 -93q-1 -7 2 -9q4 -3 11 -3q19 0 75 49q6 6 14.5 2t8.5 -14q0 -14 -12 -36q-22 -40 -69 -73.5t-107 -33.5q-18 0 -35.5 12t-17.5 27
q0 5 26 88q2 6 -4 5.5t-10 -5.5q-33 -42 -90 -84.5t-104 -42.5q-9 0 -25.5 6.5t-23.5 12.5q-18 15 -18 41q0 56 64 147q93 131 192 191q30 18 48 18zM286 329q-34 0 -67 -34q-35 -38 -52 -84t-17 -82q0 -10 7.5 -21.5t18.5 -11.5q23 0 68 52q33 38 46 64t30 85q3 14 -5 22
q-10 10 -29 10zM411 660q15 0 43.5 -6.5t36.5 -16.5q5 -6 5.5 -19t-7.5 -25q-42 -52 -125 -126q-21 -19 -46 -19q-9 0 -16 12t0 29q25 62 75 146q5 9 17 17t17 8z" />
    <glyph glyph-name="acircumflex" unicode="&#xe2;" horiz-adv-x="507" 
d="M310 402q23 0 35 -6q1 -1 3.5 1t3.5 4q13 32 16 36q8 10 30 10q25 0 51 -18q17 -12 17 -27q0 -3 -18.5 -67.5t-39 -137.5t-23.5 -93q-1 -7 2 -9q4 -3 11 -3q19 0 75 49q6 6 14.5 2t8.5 -14q0 -14 -12 -36q-22 -40 -69 -73.5t-107 -33.5q-18 0 -35.5 12t-17.5 27
q0 5 26 88q2 6 -4 5.5t-10 -5.5q-33 -42 -90 -84.5t-104 -42.5q-9 0 -25.5 6.5t-23.5 12.5q-18 15 -18 41q0 56 64 147q93 131 192 191q30 18 48 18zM286 329q-34 0 -67 -34q-35 -38 -52 -84t-17 -82q0 -10 7.5 -21.5t18.5 -11.5q23 0 68 52q33 38 46 64t30 85q3 14 -5 22
q-10 10 -29 10zM408 678q5 0 12 -8t11 -23q31 -135 31 -152q1 -11 -4.5 -22.5t-17.5 -11.5q-14 0 -25 21q-27 50 -35 65q-5 12 -14 3q-10 -8 -35.5 -32.5t-39.5 -35.5q-22 -19 -41 -19q-6 0 -10.5 7t-2.5 18.5t11 21.5q19 22 68 79.5t53 61.5q23 27 39 27z" />
    <glyph glyph-name="atilde" unicode="&#xe3;" horiz-adv-x="507" 
d="M310 402q23 0 35 -6q1 -1 3.5 1t3.5 4q13 32 16 36q8 10 30 10q25 0 51 -18q17 -12 17 -27q0 -3 -18.5 -67.5t-39 -137.5t-23.5 -93q-1 -7 2 -9q4 -3 11 -3q19 0 75 49q6 6 14.5 2t8.5 -14q0 -14 -12 -36q-22 -40 -69 -73.5t-107 -33.5q-18 0 -35.5 12t-17.5 27
q0 5 26 88q2 6 -4 5.5t-10 -5.5q-33 -42 -90 -84.5t-104 -42.5q-9 0 -25.5 6.5t-23.5 12.5q-18 15 -18 41q0 56 64 147q93 131 192 191q30 18 48 18zM286 329q-34 0 -67 -34q-35 -38 -52 -84t-17 -82q0 -10 7.5 -21.5t18.5 -11.5q23 0 68 52q33 38 46 64t30 85q3 14 -5 22
q-10 10 -29 10zM314 503q-4 0 -9 -3t-8 -5.5t-9.5 -9.5t-8.5 -9q-10 -10 -17 -10q-6 0 -16 12t-10 19q0 1 12 17t34.5 38.5t44.5 35.5q14 11 26 9q33 -15 84 -15q28 0 37 9q9 7 36 34q4 7 19.5 -4t15.5 -18q0 -8 -7 -15q-3 -2 -21.5 -22.5t-38.5 -43t-22 -24.5
q-10 -10 -18 -10q-6 0 -49.5 7.5t-74.5 7.5z" />
    <glyph glyph-name="adieresis" unicode="&#xe4;" horiz-adv-x="507" 
d="M310 402q23 0 35 -6q1 -1 3.5 1t3.5 4q13 32 16 36q8 10 30 10q25 0 51 -18q17 -12 17 -27q0 -3 -18.5 -67.5t-39 -137.5t-23.5 -93q-1 -7 2 -9q4 -3 11 -3q19 0 75 49q6 6 14.5 2t8.5 -14q0 -14 -12 -36q-22 -40 -69 -73.5t-107 -33.5q-18 0 -35.5 12t-17.5 27
q0 5 26 88q2 6 -4 5.5t-10 -5.5q-33 -42 -90 -84.5t-104 -42.5q-9 0 -25.5 6.5t-23.5 12.5q-18 15 -18 41q0 56 64 147q93 131 192 191q30 18 48 18zM286 329q-34 0 -67 -34q-35 -38 -52 -84t-17 -82q0 -10 7.5 -21.5t18.5 -11.5q23 0 68 52q33 38 46 64t30 85q3 14 -5 22
q-10 10 -29 10zM278 602q30 0 42.5 -19t12.5 -38q0 -41 -33 -62q-17 -10 -34 -10q-20 0 -36.5 15.5t-16.5 42.5q0 33 24 54q19 17 41 17zM464 602q30 0 42.5 -19t12.5 -38q0 -36 -24 -56q-19 -16 -43 -16q-20 0 -36.5 15.5t-16.5 42.5q0 36 28 57q17 14 37 14z" />
    <glyph glyph-name="aring" unicode="&#xe5;" horiz-adv-x="507" 
d="M310 402q23 0 35 -6q1 -1 3.5 1t3.5 4q13 32 16 36q8 10 30 10q25 0 51 -18q17 -12 17 -27q0 -3 -18.5 -67.5t-39 -137.5t-23.5 -93q-1 -7 2 -9q4 -3 11 -3q19 0 75 49q6 6 14.5 2t8.5 -14q0 -14 -12 -36q-22 -40 -69 -73.5t-107 -33.5q-18 0 -35.5 12t-17.5 27
q0 5 26 88q2 6 -4 5.5t-10 -5.5q-33 -42 -90 -84.5t-104 -42.5q-9 0 -25.5 6.5t-23.5 12.5q-18 15 -18 41q0 56 64 147q93 131 192 191q30 18 48 18zM286 329q-34 0 -67 -34q-35 -38 -52 -84t-17 -82q0 -10 7.5 -21.5t18.5 -11.5q23 0 68 52q33 38 46 64t30 85q3 14 -5 22
q-10 10 -29 10zM383 647q39 0 61.5 -28.5t16.5 -64.5q-5 -36 -33.5 -60t-67.5 -24t-61 28t-16 64q5 36 33 60.5t67 24.5zM379 606q-17 0 -30.5 -12.5t-16.5 -31.5q-4 -22 6.5 -36.5t27.5 -14.5t29.5 11.5t16.5 33.5q3 19 -6.5 34.5t-26.5 15.5z" />
    <glyph glyph-name="ae" unicode="&#xe6;" horiz-adv-x="579" 
d="M478 425q38 0 59.5 -24.5t21.5 -52.5t-13 -52.5t-30 -40t-47.5 -32t-50.5 -24.5t-55 -20q-3 -1 -6 -5.5t-3 -6.5q-4 -98 59 -98q41 0 95 52q12 12 23 12q7 0 10 -15t-2 -25q-64 -108 -191 -108q-36 0 -69 21.5t-41 60.5q-3 9 -12 1q-31 -26 -49 -39.5t-49.5 -27.5
t-60.5 -14q-21 0 -39.5 24t-18.5 45q0 82 71 155.5t183 131.5l39 22q104 60 176 60zM166 90q13 0 29.5 9t25.5 19q8 9 8 21q0 27 12.5 73t30.5 76q2 5 0.5 8.5t-4.5 3.5q-53 -37 -92 -92t-39 -87q0 -31 29 -31zM433 376q-23 0 -45.5 -46.5t-28.5 -96.5q-1 -3 2.5 -5.5
t6.5 -1.5q38 15 63 47.5t25 64.5q0 38 -23 38z" />
    <glyph glyph-name="ccedilla" unicode="&#xe7;" horiz-adv-x="379" 
d="M308 425q17 0 39 -7t31 -15q15 -15 15 -28q0 -31 -17.5 -52t-30.5 -21q-11 0 -25 8t-21 23q-18 42 -37 42q-14 0 -22 -6q-15 -9 -34 -55q-36 -86 -36 -185q0 -22 18 -42t39 -20q24 0 73 50q14 15 22 15q6 0 10 -6.5t4 -12.5q0 -19 -12 -36q-38 -55 -97 -77
q-22 -15 -31.5 -22t-19 -20t-9.5 -26q1 -11 24 -45q15 -23 15 -44q0 -31 -40.5 -58t-70.5 -27q-31 0 -46.5 14.5t-16.5 37.5q-1 10 5.5 18.5t11.5 8.5q10 0 19 -8q26 -23 42 -23q18 0 18 13q0 7 -4 14t-12.5 18t-11.5 15q-12 17 -13.5 36.5t7.5 29.5q18 25 64 54h-10
q-35 0 -64 19t-40 48q-8 19 -8 68q0 79 40 152q45 83 116 122q55 30 116 30z" />
    <glyph glyph-name="egrave" unicode="&#xe8;" horiz-adv-x="415" 
d="M302 425q25 0 55 -13q54 -28 54 -78q0 -27 -17.5 -52t-41.5 -40q-64 -41 -170 -50q-7 0 -11 -11q-6 -24 -6 -65q0 -15 11 -27q20 -24 53 -24q13 0 41 15.5t54 38.5q12 12 23 12q4 0 8 -8.5t4 -15.5q0 -22 -30 -52q-69 -69 -171 -69q-45 0 -78.5 29t-45.5 75q-3 12 -3 29
q0 73 40.5 151t100.5 117q79 38 130 38zM289 382q-23 0 -52.5 -41.5t-46.5 -91.5q0 -11 6 -11q33 3 72 40.5t39 78.5q0 11 -6.5 18t-11.5 7zM292 673q17 0 30 -45q14 -50 25 -129q2 -16 -6 -28t-17 -12q-6 0 -19 7.5t-18 12.5q-58 75 -83 122q-7 15 -4.5 29.5t9.5 20.5
q6 5 37.5 13.5t45.5 8.5z" />
    <glyph glyph-name="eacute" unicode="&#xe9;" horiz-adv-x="415" 
d="M302 425q25 0 55 -13q54 -28 54 -78q0 -27 -17.5 -52t-41.5 -40q-64 -41 -170 -50q-7 0 -11 -11q-6 -24 -6 -65q0 -15 11 -27q20 -24 53 -24q13 0 41 15.5t54 38.5q12 12 23 12q4 0 8 -8.5t4 -15.5q0 -22 -30 -52q-69 -69 -171 -69q-45 0 -78.5 29t-45.5 75q-3 12 -3 29
q0 73 40.5 151t100.5 117q79 38 130 38zM289 382q-23 0 -52.5 -41.5t-46.5 -91.5q0 -11 6 -11q33 3 72 40.5t39 78.5q0 11 -6.5 18t-11.5 7zM369 670q15 0 43.5 -6.5t36.5 -16.5q5 -6 5.5 -19t-7.5 -25q-42 -52 -125 -126q-21 -19 -46 -19q-9 0 -16 12t0 29q25 62 75 146
q5 9 17 17t17 8z" />
    <glyph glyph-name="ecircumflex" unicode="&#xea;" horiz-adv-x="415" 
d="M302 425q25 0 55 -13q54 -28 54 -78q0 -27 -17.5 -52t-41.5 -40q-64 -41 -170 -50q-7 0 -11 -11q-6 -24 -6 -65q0 -15 11 -27q20 -24 53 -24q13 0 41 15.5t54 38.5q12 12 23 12q4 0 8 -8.5t4 -15.5q0 -22 -30 -52q-69 -69 -171 -69q-45 0 -78.5 29t-45.5 75q-3 12 -3 29
q0 73 40.5 151t100.5 117q79 38 130 38zM289 382q-23 0 -52.5 -41.5t-46.5 -91.5q0 -11 6 -11q33 3 72 40.5t39 78.5q0 11 -6.5 18t-11.5 7zM357 660q5 0 12 -8t11 -23q31 -135 31 -152q1 -11 -5 -22.5t-17 -11.5q-5 0 -13 6.5t-12 14.5q-27 50 -35 65q-5 12 -14 3
q-10 -8 -35.5 -32.5t-39.5 -35.5q-22 -19 -41 -19q-6 0 -10.5 7t-2.5 18.5t11 21.5q19 22 68 79.5t53 61.5q23 27 39 27z" />
    <glyph glyph-name="edieresis" unicode="&#xeb;" horiz-adv-x="415" 
d="M302 425q25 0 55 -13q54 -28 54 -78q0 -27 -17.5 -52t-41.5 -40q-64 -41 -170 -50q-7 0 -11 -11q-6 -24 -6 -65q0 -15 11 -27q20 -24 53 -24q13 0 41 15.5t54 38.5q12 12 23 12q4 0 8 -8.5t4 -15.5q0 -22 -30 -52q-69 -69 -171 -69q-45 0 -78.5 29t-45.5 75q-3 12 -3 29
q0 73 40.5 151t100.5 117q79 38 130 38zM289 382q-23 0 -52.5 -41.5t-46.5 -91.5q0 -11 6 -11q33 3 72 40.5t39 78.5q0 11 -6.5 18t-11.5 7zM215 612q30 0 42.5 -19t12.5 -38q0 -41 -33 -62q-17 -10 -34 -10q-20 0 -36.5 15.5t-16.5 42.5q0 33 24 54q19 17 41 17zM401 612
q30 0 42.5 -19t12.5 -38q0 -36 -24 -56q-19 -16 -43 -16q-20 0 -36.5 15.5t-16.5 42.5q0 36 28 57q17 14 37 14z" />
    <glyph glyph-name="igrave" unicode="&#xec;" horiz-adv-x="305" 
d="M231 425q10 0 24.5 -17.5t14.5 -36.5q0 -5 -2 -11t-5 -14t-4 -13l-78 -223q-1 -2 1 -6.5t5 -4.5q22 0 63 33q13 10 21 10q3 0 6.5 -4.5t3.5 -8.5q0 -23 -26 -56q-27 -34 -78.5 -60.5t-94.5 -26.5q-12 0 -27 14.5t-15 25.5q0 21 10 46q20 43 79 223q4 10 3 16t-2.5 8
t-3.5 2q-15 0 -68 -39q-3 -2 -10 6t-7 12q0 21 16 40q22 26 76.5 55.5t97.5 29.5zM207 673q17 0 30 -45q14 -50 25 -129q2 -16 -6 -28t-17 -12q-6 0 -19 7.5t-18 12.5q-58 75 -83 122q-7 15 -4.5 29.5t9.5 20.5q6 5 37.5 13.5t45.5 8.5z" />
    <glyph glyph-name="iacute" unicode="&#xed;" horiz-adv-x="305" 
d="M231 425q10 0 24.5 -17.5t14.5 -36.5q0 -5 -2 -11t-5 -14t-4 -13l-78 -223q-1 -2 1 -6.5t5 -4.5q22 0 63 33q13 10 21 10q3 0 6.5 -4.5t3.5 -8.5q0 -23 -26 -56q-27 -34 -78.5 -60.5t-94.5 -26.5q-12 0 -27 14.5t-15 25.5q0 21 10 46q20 43 79 223q4 10 3 16t-2.5 8
t-3.5 2q-15 0 -68 -39q-3 -2 -10 6t-7 12q0 21 16 40q22 26 76.5 55.5t97.5 29.5zM286 660q15 0 43.5 -6.5t36.5 -16.5q5 -6 5.5 -19t-7.5 -25q-42 -52 -125 -126q-21 -19 -46 -19q-9 0 -16 12t0 29q25 62 75 146q5 9 17 17t17 8z" />
    <glyph glyph-name="icircumflex" unicode="&#xee;" horiz-adv-x="305" 
d="M231 425q10 0 24.5 -17.5t14.5 -36.5q0 -5 -2 -11t-5 -14t-4 -13l-78 -223q-1 -2 1 -6.5t5 -4.5q22 0 63 33q13 10 21 10q3 0 6.5 -4.5t3.5 -8.5q0 -23 -26 -56q-27 -34 -78.5 -60.5t-94.5 -26.5q-12 0 -27 14.5t-15 25.5q0 21 10 46q20 43 79 223q4 10 3 16t-2.5 8
t-3.5 2q-15 0 -68 -39q-3 -2 -10 6t-7 12q0 21 16 40q22 26 76.5 55.5t97.5 29.5zM270 660q5 0 12 -8t11 -23q31 -135 31 -152q1 -11 -4.5 -22.5t-17.5 -11.5q-14 0 -25 21q-27 50 -35 65q-5 12 -14 3q-10 -8 -35.5 -32.5t-39.5 -35.5q-22 -19 -41 -19q-6 0 -10.5 7
t-2.5 18.5t11 21.5q19 22 68 79.5t53 61.5q23 27 39 27z" />
    <glyph glyph-name="idieresis" unicode="&#xef;" horiz-adv-x="305" 
d="M231 425q10 0 24.5 -17.5t14.5 -36.5q0 -5 -2 -11t-5 -14t-4 -13l-78 -223q-1 -2 1 -6.5t5 -4.5q22 0 63 33q13 10 21 10q3 0 6.5 -4.5t3.5 -8.5q0 -23 -26 -56q-27 -34 -78.5 -60.5t-94.5 -26.5q-12 0 -27 14.5t-15 25.5q0 21 10 46q20 43 79 223q4 10 3 16t-2.5 8
t-3.5 2q-15 0 -68 -39q-3 -2 -10 6t-7 12q0 21 16 40q22 26 76.5 55.5t97.5 29.5zM143 612q30 0 42.5 -19t12.5 -38q0 -41 -33 -62q-17 -10 -34 -10q-20 0 -36.5 15.5t-16.5 42.5q0 33 24 54q19 17 41 17zM329 612q30 0 42.5 -19t12.5 -38q0 -36 -24 -56q-19 -16 -43 -16
q-20 0 -36.5 15.5t-16.5 42.5q0 36 28 57q17 14 37 14z" />
    <glyph glyph-name="eth" unicode="&#xf0;" horiz-adv-x="468" 
d="M284 425q16 0 20 -1q5 -1 7.5 2t2.5 8q0 31 -11 59q-4 10 -10 8l-88 -34q-5 -2 -12 3q-12 10 -12 26q0 5 3 8t17 9l70 34q5 3 2 10q-25 43 -53 64q-21 15 -18 26q0 5 11.5 12t15.5 7q25 0 59 -22t64 -55q7 -7 10 -4l91 37q4 2 9 -5q14 -16 16 -27q0 -9 -17 -15l-69 -32
q-2 -1 -3 -4.5t0 -4.5q21 -35 35.5 -88.5t14.5 -101.5q0 -131 -54.5 -218.5t-134.5 -122.5q-44 -19 -94 -19q-53 0 -87 40.5t-34 99.5q0 61 26 131t89 119q66 51 134 51zM295 381q-29 0 -51 -30q-86 -117 -86 -275q0 -19 10.5 -31t21.5 -12q16 0 42 30q40 46 64 128t22 153
q-2 37 -23 37z" />
    <glyph glyph-name="ntilde" unicode="&#xf1;" horiz-adv-x="540" 
d="M427 425q23 0 42.5 -22t19.5 -52q0 -26 -11 -66q-15 -52 -60 -172q-2 -5 1 -10.5t7 -5.5q18 0 69 41q5 4 12 -1.5t7 -14.5q0 -23 -22 -45q-33 -36 -83.5 -63.5t-99.5 -27.5q-16 0 -27.5 11t-13.5 20q-5 21 9 51q19 43 53 134.5t39 117.5q1 6 -2 14t-13 8q-29 0 -90 -98
q-31 -50 -76.5 -135t-46.5 -87q-22 -36 -34 -36q-26 0 -46 18.5t-20 35.5q0 28 15 63q29 67 72 193q4 9 2 15t-4.5 9t-4.5 3q-13 0 -63 -27q-27 -14 -27 12q0 12 6 26q17 35 59.5 63t92.5 28q22 0 34.5 -16t12.5 -32q0 -20 -29 -98q-2 -3 1.5 -4t6.5 3q56 68 119 113
q48 34 93 34zM266 503q-4 0 -9 -3t-8 -5.5t-9.5 -9.5t-8.5 -9q-10 -10 -17 -10q-6 0 -16 12t-10 19q0 1 12 17t34.5 38.5t44.5 35.5q14 11 26 9q33 -15 84 -15q28 0 37 9q9 7 36 34q4 7 19.5 -4t15.5 -18q0 -8 -7 -15q-3 -2 -21.5 -22.5t-38.5 -43t-22 -24.5
q-10 -10 -18 -10q-6 0 -49.5 7.5t-74.5 7.5z" />
    <glyph glyph-name="ograve" unicode="&#xf2;" horiz-adv-x="462" 
d="M278 425q70 0 110.5 -47.5t40.5 -117.5q0 -68 -33.5 -135t-88.5 -103q-56 -36 -122 -36q-63 0 -105.5 48.5t-42.5 110.5q0 72 33 136.5t83 101.5q18 14 58 28t67 14zM281 376q-24 0 -55 -51q-34 -57 -50.5 -123t-16.5 -114q0 -23 14 -36.5t25 -13.5q10 0 16.5 5.5
t19.5 21.5q29 37 54.5 118t25.5 143q0 17 -10 33.5t-23 16.5zM284 663q17 0 30 -45q14 -50 25 -129q2 -16 -6 -28t-17 -12q-6 0 -19 7.5t-18 12.5q-58 75 -83 122q-7 15 -4.5 29.5t9.5 20.5q6 5 37.5 13.5t45.5 8.5z" />
    <glyph glyph-name="oacute" unicode="&#xf3;" horiz-adv-x="462" 
d="M278 425q70 0 110.5 -47.5t40.5 -117.5q0 -68 -33.5 -135t-88.5 -103q-56 -36 -122 -36q-63 0 -105.5 48.5t-42.5 110.5q0 72 33 136.5t83 101.5q18 14 58 28t67 14zM281 376q-24 0 -55 -51q-34 -57 -50.5 -123t-16.5 -114q0 -23 14 -36.5t25 -13.5q10 0 16.5 5.5
t19.5 21.5q29 37 54.5 118t25.5 143q0 17 -10 33.5t-23 16.5zM364 660q15 0 43.5 -6.5t36.5 -16.5q5 -6 5.5 -19t-7.5 -25q-42 -52 -125 -126q-21 -19 -46 -19q-9 0 -16 12t0 29q25 62 75 146q5 9 17 17t17 8z" />
    <glyph glyph-name="ocircumflex" unicode="&#xf4;" horiz-adv-x="462" 
d="M278 425q70 0 110.5 -47.5t40.5 -117.5q0 -68 -33.5 -135t-88.5 -103q-56 -36 -122 -36q-63 0 -105.5 48.5t-42.5 110.5q0 72 33 136.5t83 101.5q18 14 58 28t67 14zM281 376q-24 0 -55 -51q-34 -57 -50.5 -123t-16.5 -114q0 -23 14 -36.5t25 -13.5q10 0 16.5 5.5
t19.5 21.5q29 37 54.5 118t25.5 143q0 17 -10 33.5t-23 16.5zM356 660q5 0 12 -8t11 -23q31 -135 31 -152q1 -11 -4.5 -22.5t-17.5 -11.5q-14 0 -25 21q-27 50 -35 65q-5 12 -14 3q-10 -8 -35.5 -32.5t-39.5 -35.5q-22 -19 -41 -19q-6 0 -10.5 7t-2.5 18.5t11 21.5
q19 22 68 79.5t53 61.5q23 27 39 27z" />
    <glyph glyph-name="otilde" unicode="&#xf5;" horiz-adv-x="462" 
d="M278 425q70 0 110.5 -47.5t40.5 -117.5q0 -68 -33.5 -135t-88.5 -103q-56 -36 -122 -36q-63 0 -105.5 48.5t-42.5 110.5q0 72 33 136.5t83 101.5q18 14 58 28t67 14zM281 376q-24 0 -55 -51q-34 -57 -50.5 -123t-16.5 -114q0 -23 14 -36.5t25 -13.5q10 0 16.5 5.5
t19.5 21.5q29 37 54.5 118t25.5 143q0 17 -10 33.5t-23 16.5zM253 503q-4 0 -9 -3t-8 -5.5t-9.5 -9.5t-8.5 -9q-10 -10 -17 -10q-6 0 -16 12t-10 19q0 1 12 17t34.5 38.5t44.5 35.5q14 11 26 9q32 -15 84 -15q28 0 37 9q9 7 36 34q4 7 19.5 -4t15.5 -18q0 -8 -7 -15
q-3 -2 -21.5 -22.5t-38.5 -43t-22 -24.5q-10 -10 -18 -10q-6 0 -49.5 7.5t-74.5 7.5z" />
    <glyph glyph-name="odieresis" unicode="&#xf6;" horiz-adv-x="462" 
d="M278 425q70 0 110.5 -47.5t40.5 -117.5q0 -68 -33.5 -135t-88.5 -103q-56 -36 -122 -36q-63 0 -105.5 48.5t-42.5 110.5q0 72 33 136.5t83 101.5q18 14 58 28t67 14zM281 376q-24 0 -55 -51q-34 -57 -50.5 -123t-16.5 -114q0 -23 14 -36.5t25 -13.5q10 0 16.5 5.5
t19.5 21.5q29 37 54.5 118t25.5 143q0 17 -10 33.5t-23 16.5zM233 612q30 0 42.5 -19t12.5 -38q0 -41 -33 -62q-17 -10 -34 -10q-20 0 -36.5 15.5t-16.5 42.5q0 33 24 54q19 17 41 17zM419 612q30 0 42.5 -19t12.5 -38q0 -36 -24 -56q-19 -16 -43 -16q-20 0 -36.5 15.5
t-16.5 42.5q0 36 28 57q17 14 37 14z" />
    <glyph glyph-name="divide" unicode="&#xf7;" horiz-adv-x="646" 
d="M349 368q-25 0 -44 18t-19 43t20.5 44.5t42.5 19.5q28 0 47 -19t19 -45t-19 -43.5t-47 -17.5zM605 220l-522 -1q-3 0 -6.5 7.5t-3.5 15.5q0 10 5.5 30t9.5 20l528 4q3 0 7 -7.5t4 -14.5q0 -21 -6.5 -37.5t-15.5 -16.5zM349 15q-28 0 -46.5 19.5t-18.5 46.5q0 24 19 42
t46 18q26 0 45 -18.5t19 -41.5q0 -27 -18.5 -46.5t-45.5 -19.5z" />
    <glyph glyph-name="oslash" unicode="&#xf8;" horiz-adv-x="468" 
d="M285 425q23 0 48 -10q1 -1 3.5 0t3.5 2l11 17q9 14 16 14q11 0 21 -12q3 -3 3 -8t-1 -5l-15 -26q-2 -3 1 -6q26 -22 42.5 -59t16.5 -67q0 -77 -32.5 -141t-92.5 -102q-56 -36 -131 -36q-14 0 -40 7q-3 1 -5 -1l-23 -35q-6 -6 -13 -3q-17 9 -21 16q-3 5 2 13l18 29
q3 2 -3 8q-24 18 -40.5 52t-16.5 73q0 71 32.5 135.5t84.5 102.5q57 42 131 42zM290 380q-34 0 -72 -51q-39 -53 -57 -117t-14 -108q1 -5 2 -6t2 2l157 265q1 1 1 3.5t-1 3.5q-8 8 -18 8zM171 43q7 -5 17 -5q33 0 57 29q31 38 58.5 113.5t26.5 137.5q-1 3 -4 1l-156 -267
q-4 -7 1 -9z" />
    <glyph glyph-name="ugrave" unicode="&#xf9;" horiz-adv-x="544" 
d="M221 425q25 0 34.5 -22.5t6.5 -42.5q-4 -22 -76 -232q-4 -13 -1.5 -21.5t10.5 -8.5q14 0 31 19t52 68q30 42 110 195q23 44 40 44q24 0 47.5 -14t23.5 -31q0 -24 -15 -72l-64 -201q-1 -1 0 -4t4 -6t8 -3q14 0 67 43q11 7 19.5 0.5t8.5 -13.5q0 -11 -14 -39
q-19 -39 -67 -70.5t-109 -31.5q-20 0 -32 13.5t-12 25.5q0 13 18 58q8 19 18 52.5t13 42.5q3 6 -3.5 7t-7.5 -1q-95 -133 -151 -169q-35 -22 -73 -22q-37 0 -54 25q-16 25 -5 62q3 17 30 94.5t46 123.5q5 10 3 15.5t-4 7t-4 1.5q-8 0 -18.5 -4.5t-27.5 -15.5l-17 -10
q-7 -4 -14.5 3t-7.5 15q0 11 22 37q26 31 76 56.5t89 25.5zM321 663q17 0 30 -45q14 -50 25 -129q2 -16 -6 -28t-17 -12q-6 0 -19 7.5t-18 12.5q-58 75 -83 122q-7 15 -4.5 29.5t9.5 20.5q6 5 37.5 13.5t45.5 8.5z" />
    <glyph glyph-name="uacute" unicode="&#xfa;" horiz-adv-x="544" 
d="M221 425q25 0 34.5 -22.5t6.5 -42.5q-4 -22 -76 -232q-4 -13 -1.5 -21.5t10.5 -8.5q14 0 31 19t52 68q30 42 110 195q23 44 40 44q24 0 47.5 -14t23.5 -31q0 -24 -15 -72l-64 -201q-1 -1 0 -4t4 -6t8 -3q14 0 67 43q11 7 19.5 0.5t8.5 -13.5q0 -11 -14 -39
q-19 -39 -67 -70.5t-109 -31.5q-20 0 -32 13.5t-12 25.5q0 13 18 58q8 19 18 52.5t13 42.5q3 6 -3.5 7t-7.5 -1q-95 -133 -151 -169q-35 -22 -73 -22q-37 0 -54 25q-16 25 -5 62q3 17 30 94.5t46 123.5q5 10 3 15.5t-4 7t-4 1.5q-8 0 -18.5 -4.5t-27.5 -15.5l-17 -10
q-7 -4 -14.5 3t-7.5 15q0 11 22 37q26 31 76 56.5t89 25.5zM403 660q15 0 43.5 -6.5t36.5 -16.5q5 -6 5.5 -19t-7.5 -25q-42 -52 -125 -126q-21 -19 -46 -19q-9 0 -16 12t0 29q25 62 75 146q5 9 17 17t17 8z" />
    <glyph glyph-name="ucircumflex" unicode="&#xfb;" horiz-adv-x="544" 
d="M221 425q25 0 34.5 -22.5t6.5 -42.5q-4 -22 -76 -232q-4 -13 -1.5 -21.5t10.5 -8.5q14 0 31 19t52 68q30 42 110 195q23 44 40 44q24 0 47.5 -14t23.5 -31q0 -24 -15 -72l-64 -201q-1 -1 0 -4t4 -6t8 -3q14 0 67 43q11 7 19.5 0.5t8.5 -13.5q0 -11 -14 -39
q-19 -39 -67 -70.5t-109 -31.5q-20 0 -32 13.5t-12 25.5q0 13 18 58q8 19 18 52.5t13 42.5q3 6 -3.5 7t-7.5 -1q-95 -133 -151 -169q-35 -22 -73 -22q-37 0 -54 25q-16 25 -5 62q3 17 30 94.5t46 123.5q5 10 3 15.5t-4 7t-4 1.5q-8 0 -18.5 -4.5t-27.5 -15.5l-17 -10
q-7 -4 -14.5 3t-7.5 15q0 11 22 37q26 31 76 56.5t89 25.5zM394 670q5 0 12 -8t11 -23q31 -135 31 -152q1 -11 -4.5 -22.5t-17.5 -11.5q-14 0 -25 21q-28 50 -35 65q-5 12 -14 3q-10 -8 -35.5 -32.5t-39.5 -35.5q-22 -19 -41 -19q-6 0 -10.5 7t-2.5 18.5t11 21.5
q19 22 68 79.5t53 61.5q23 27 39 27z" />
    <glyph glyph-name="udieresis" unicode="&#xfc;" horiz-adv-x="544" 
d="M221 425q25 0 34.5 -22.5t6.5 -42.5q-4 -22 -76 -232q-4 -13 -1.5 -21.5t10.5 -8.5q14 0 31 19t52 68q30 42 110 195q23 44 40 44q24 0 47.5 -14t23.5 -31q0 -24 -15 -72l-64 -201q-1 -1 0 -4t4 -6t8 -3q14 0 67 43q11 7 19.5 0.5t8.5 -13.5q0 -11 -14 -39
q-19 -39 -67 -70.5t-109 -31.5q-20 0 -32 13.5t-12 25.5q0 13 18 58q8 19 18 52.5t13 42.5q3 6 -3.5 7t-7.5 -1q-95 -133 -151 -169q-35 -22 -73 -22q-37 0 -54 25q-16 25 -5 62q3 17 30 94.5t46 123.5q5 10 3 15.5t-4 7t-4 1.5q-8 0 -18.5 -4.5t-27.5 -15.5l-17 -10
q-7 -4 -14.5 3t-7.5 15q0 11 22 37q26 31 76 56.5t89 25.5zM265 612q30 0 42.5 -19t12.5 -38q0 -41 -33 -62q-17 -10 -34 -10q-20 0 -36.5 15.5t-16.5 42.5q0 33 24 54q19 17 41 17zM451 612q30 0 42.5 -19t12.5 -38q0 -36 -24 -56q-19 -16 -43 -16q-20 0 -36.5 15.5
t-16.5 42.5q0 36 28 57q17 14 37 14z" />
    <glyph glyph-name="yacute" unicode="&#xfd;" horiz-adv-x="446" 
d="M175 425q29 0 57.5 -30.5t37.5 -78.5q12 -61 6 -192q-1 -5 3 -6.5t8 3.5q44 108 87 289q1 5 7.5 12t13.5 7q17 0 34 -16.5t17 -39.5q0 -18 -23.5 -75t-52 -117t-28.5 -61q-9 -22 -34 -64t-27 -46q-29 -59 -70.5 -111.5t-77.5 -80.5q-58 -44 -110 -44q-36 0 -58.5 20.5
t-22.5 48.5q0 25 20.5 46t48.5 21q13 0 25 -14q29 -35 48 -35q52 0 81 104q5 22 10 107q4 91 -19 180q-14 58 -37 58q-21 0 -45 -33q-14 -20 -41 -20q-3 0 -6 6.5t-3 11.5q2 49 49 99.5t102 50.5zM366 650q15 0 43.5 -6.5t36.5 -16.5q5 -6 5.5 -19t-7.5 -25
q-42 -52 -125 -126q-21 -19 -46 -19q-9 0 -16 12t0 29q25 62 75 146q5 9 17 17t17 8z" />
    <glyph glyph-name="thorn" unicode="&#xfe;" horiz-adv-x="532" 
d="M423 424q39 0 62 -32.5t23 -75.5q0 -66 -47.5 -147.5t-123.5 -131.5q-77 -51 -133 -51q-26 0 -48 9q-2 1 -5.5 -3t-4.5 -7q-20 -71 -25 -101q-4 -21 5 -32t41 -20q27 -7 27 -26q0 -23 -37 -23q-1 0 -19.5 1t-47.5 2t-51 1q-16 0 -61 -2t-51 -2q-15 0 -24.5 8.5t-9.5 18.5
q0 6 10 12.5t20 8.5q34 8 47 18t21 32q31 88 115 422q12 48 28.5 111t25.5 98t12 52q2 11 -6.5 19t-31.5 15q-19 6 -19 23q0 12 26 20q24 6 81.5 12.5t85.5 6.5q10 0 14.5 -10.5t0.5 -21.5q-65 -192 -90 -293q-1 -3 3.5 -6.5t6.5 -0.5q95 96 180 96zM352 338q-43 0 -103 -73
q-28 -33 -50.5 -88.5t-22.5 -89.5q0 -19 13.5 -34.5t25.5 -15.5q7 0 23.5 8t25.5 15q38 32 75.5 108t37.5 128q0 42 -25 42z" />
    <glyph glyph-name="ydieresis" unicode="&#xff;" horiz-adv-x="446" 
d="M175 425q29 0 57.5 -30.5t37.5 -78.5q12 -61 6 -192q-1 -5 3 -6.5t8 3.5q44 108 87 289q1 5 7.5 12t13.5 7q17 0 34 -16.5t17 -39.5q0 -18 -23.5 -75t-52 -117t-28.5 -61q-9 -22 -34 -64t-27 -46q-29 -59 -70.5 -111.5t-77.5 -80.5q-58 -44 -110 -44q-36 0 -58.5 20.5
t-22.5 48.5q0 25 20.5 46t48.5 21q13 0 25 -14q29 -35 48 -35q52 0 81 104q5 22 10 107q4 91 -19 180q-14 58 -37 58q-21 0 -45 -33q-14 -20 -41 -20q-3 0 -6 6.5t-3 11.5q2 49 49 99.5t102 50.5zM213 612q30 0 42.5 -19t12.5 -38q0 -41 -33 -62q-17 -10 -34 -10
q-20 0 -36.5 15.5t-16.5 42.5q0 33 24 54q19 17 41 17zM399 612q30 0 42.5 -19t12.5 -38q0 -36 -24 -56q-19 -16 -43 -16q-20 0 -36.5 15.5t-16.5 42.5q0 36 28 57q17 14 37 14z" />
    <glyph glyph-name="Amacron" unicode="&#x100;" horiz-adv-x="668" 
d="M577 616q23 0 16 -42q-14 -79 -34 -243t-22 -219q-1 -39 6.5 -50t36.5 -19q30 -8 30 -25q0 -2 -4 -7.5t-11.5 -11t-16.5 -5.5q-14 0 -80 3t-87 3q-17 0 -42 -2t-42 -2q-14 0 -24 7.5t-10 14.5q0 16 30 24q32 9 41 15.5t15 29.5q18 67 21 116q1 16 -9 16q-65 0 -125 -6
q-14 -2 -25 -13q-16 -17 -41 -56t-36 -64q-8 -13 -4.5 -22.5t24.5 -15.5q27 -7 27 -24q0 -8 -9.5 -14.5t-21.5 -6.5q-21 0 -48 1.5t-40 1.5q-15 0 -54.5 -3.5t-58.5 -3.5q-35 0 -35 20q0 19 35 26q56 11 76.5 24.5t55.5 56.5q84 104 187 242t130 186q2 5 11.5 13.5t13.5 8.5
q12 0 45 9t50 24q15 13 29 13zM303 265q36 0 94 5q12 1 15 18q10 40 19 135q4 30 -5 30q-8 0 -27 -24q-22 -27 -59.5 -80t-46.5 -71q-7 -13 10 -13zM430 735l264 1q1 0 3 -3.5t4.5 -8.5t2.5 -10q0 -6 -3 -13.5t-8.5 -16.5t-6.5 -12q-2 -3 -8 -8t-8 -5l-256 -5q-3 0 -10 7
t-7 12q0 12 17 49q6 13 16 13z" />
    <glyph glyph-name="amacron" unicode="&#x101;" horiz-adv-x="507" 
d="M310 402q23 0 35 -6q1 -1 3.5 1t3.5 4q13 32 16 36q8 10 30 10q25 0 51 -18q17 -12 17 -27q0 -3 -18.5 -67.5t-39 -137.5t-23.5 -93q-1 -7 2 -9q4 -3 11 -3q19 0 75 49q6 6 14.5 2t8.5 -14q0 -14 -12 -36q-22 -40 -69 -73.5t-107 -33.5q-18 0 -35.5 12t-17.5 27
q0 5 26 88q2 6 -4 5.5t-10 -5.5q-33 -42 -90 -84.5t-104 -42.5q-9 0 -25.5 6.5t-23.5 12.5q-18 15 -18 41q0 56 64 147q93 131 192 191q30 18 48 18zM286 329q-34 0 -67 -34q-35 -38 -52 -84t-17 -82q0 -10 7.5 -21.5t18.5 -11.5q23 0 68 52q33 38 46 64t30 85q3 14 -5 22
q-10 10 -29 10zM262 520q0 12 5 33.5t11 29.5q4 9 10 9q14 1 112 1t111 -1q3 0 6.5 -9.5t3.5 -15.5q0 -26 -16 -52q-6 -10 -8 -10q-15 -1 -108.5 -3.5t-111.5 -1.5q-5 0 -10 6.5t-5 13.5z" />
    <glyph glyph-name="Abreve" unicode="&#x102;" horiz-adv-x="668" 
d="M577 616q23 0 16 -42q-14 -79 -34 -243t-22 -219q-1 -39 6.5 -50t36.5 -19q30 -8 30 -25q0 -2 -4 -7.5t-11.5 -11t-16.5 -5.5q-14 0 -80 3t-87 3q-17 0 -42 -2t-42 -2q-14 0 -24 7.5t-10 14.5q0 16 30 24q32 9 41 15.5t15 29.5q18 67 21 116q1 16 -9 16q-65 0 -125 -6
q-14 -2 -25 -13q-16 -17 -41 -56t-36 -64q-8 -13 -4.5 -22.5t24.5 -15.5q27 -7 27 -24q0 -8 -9.5 -14.5t-21.5 -6.5q-21 0 -48 1.5t-40 1.5q-15 0 -54.5 -3.5t-58.5 -3.5q-35 0 -35 20q0 19 35 26q56 11 76.5 24.5t55.5 56.5q84 104 187 242t130 186q2 5 11.5 13.5t13.5 8.5
q12 0 45 9t50 24q15 13 29 13zM303 265q36 0 94 5q12 1 15 18q10 40 19 135q4 30 -5 30q-8 0 -27 -24q-22 -27 -59.5 -80t-46.5 -71q-7 -13 10 -13zM537 643q-56 0 -90.5 32.5t-30.5 91.5q1 9 10 19t16 10q16 0 25 -20q25 -48 92 -48q62 0 111 44q19 19 31 19q20 0 16 -24
q-9 -42 -56.5 -83t-123.5 -41z" />
    <glyph glyph-name="abreve" unicode="&#x103;" horiz-adv-x="507" 
d="M310 402q23 0 35 -6q1 -1 3.5 1t3.5 4q13 32 16 36q8 10 30 10q25 0 51 -18q17 -12 17 -27q0 -3 -18.5 -67.5t-39 -137.5t-23.5 -93q-1 -7 2 -9q4 -3 11 -3q19 0 75 49q6 6 14.5 2t8.5 -14q0 -14 -12 -36q-22 -40 -69 -73.5t-107 -33.5q-18 0 -35.5 12t-17.5 27
q0 5 26 88q2 6 -4 5.5t-10 -5.5q-33 -42 -90 -84.5t-104 -42.5q-9 0 -25.5 6.5t-23.5 12.5q-18 15 -18 41q0 56 64 147q93 131 192 191q30 18 48 18zM286 329q-34 0 -67 -34q-35 -38 -52 -84t-17 -82q0 -10 7.5 -21.5t18.5 -11.5q23 0 68 52q33 38 46 64t30 85q3 14 -5 22
q-10 10 -29 10zM370 465q-49 0 -78.5 37t-9.5 107q3 11 10 18t12 7q20 0 22 -27q4 -57 64 -57q57 0 88 62q5 9 15 16t16 7q10 0 13 -11.5t-1 -23.5q-6 -21 -16 -41.5t-27.5 -43t-45.5 -36.5t-62 -14z" />
    <glyph glyph-name="Aogonek" unicode="&#x104;" horiz-adv-x="668" 
d="M577 616q23 0 16 -42q-14 -79 -34 -243t-22 -219q-1 -39 6.5 -50t36.5 -19q30 -8 30 -25q0 -2 -4 -7.5t-11.5 -11t-16.5 -5.5q-10 0 -60 2q-111 -82 -111 -132q0 -19 11 -30.5t30 -11.5q23 0 55 15q5 2 10 -4.5t6 -13.5q1 -5 -5 -17.5t-13 -19.5q-42 -45 -110 -45
q-44 0 -66.5 25t-22.5 54q0 91 161 183q-17 4 -69.5 0.5t-66.5 -3.5t-24 7.5t-10 14.5q0 16 30 24q32 9 41 15.5t15 29.5q18 67 21 116q1 16 -9 16q-65 0 -125 -6q-14 -2 -25 -13q-16 -17 -41 -56t-36 -64q-8 -13 -4.5 -22.5t24.5 -15.5q27 -7 27 -24q0 -8 -9.5 -14.5
t-21.5 -6.5q-21 0 -48 1.5t-40 1.5q-15 0 -54.5 -3.5t-58.5 -3.5q-35 0 -35 20q0 19 35 26q56 11 76.5 24.5t55.5 56.5q84 104 187 242t130 186q2 5 11.5 13.5t13.5 8.5q12 0 45 9t50 24q15 13 29 13zM303 265q36 0 94 5q12 1 15 18q10 40 19 135q4 30 -5 30q-8 0 -27 -24
q-22 -27 -59.5 -80t-46.5 -71q-7 -13 10 -13z" />
    <glyph glyph-name="aogonek" unicode="&#x105;" horiz-adv-x="507" 
d="M310 402q23 0 35 -6q1 -1 3.5 1t3.5 4q13 32 16 36q8 10 30 10q25 0 51 -18q17 -12 17 -27q0 -3 -18.5 -67.5t-39 -137.5t-23.5 -93q-1 -7 2 -9q4 -3 11 -3q19 0 75 49q6 6 14.5 2t8.5 -14q0 -14 -12 -36q-28 -50 -80 -80q-136 -97 -136 -153q0 -19 11 -30.5t30 -11.5
q23 0 55 15q5 2 11 -3t7 -11q1 -5 -5 -17.5t-13 -19.5q-42 -45 -110 -45q-40 0 -64.5 25t-24.5 52q0 79 147 172q-21 0 -39 12t-18 27q0 5 26 88q2 6 -4 5.5t-10 -5.5q-33 -42 -90 -84.5t-104 -42.5q-9 0 -25.5 6.5t-23.5 12.5q-18 15 -18 41q0 56 64 147q93 131 192 191
q30 18 48 18zM286 329q-34 0 -67 -34q-35 -38 -52 -84t-17 -82q0 -10 7.5 -21.5t18.5 -11.5q23 0 68 52q33 38 46 64t30 85q3 14 -5 22q-10 10 -29 10z" />
    <glyph glyph-name="Cacute" unicode="&#x106;" horiz-adv-x="657" 
d="M476 615q27 0 54 -4.5t41.5 -9.5t30.5 -12t17 -7q20 -6 35 5q21 14 29 9q4 -3 9.5 -16t3.5 -17q-35 -67 -46 -119q-3 -14 -14.5 -24.5t-18.5 -10.5q-16 0 -17 35q-2 48 -18 71q-17 25 -45.5 39t-51.5 14q-43 0 -80.5 -19t-80.5 -68q-40 -45 -63 -117.5t-23 -137.5
q0 -24 7 -60.5t15 -51.5q15 -34 48.5 -56t71.5 -21q59 1 110 50q7 7 26 27t31 30q18 16 29 16q8 0 12 -9t2 -20q-5 -25 -68 -130q-11 -16 -27 -4q-19 15 -41 7q-61 -23 -120 -23q-122 0 -190 68t-68 185q0 104 48 186t130 136q89 59 222 59zM676 763q0 -23 -31 -42
q-52 -26 -180 -73q-9 -5 -24.5 -3.5t-21.5 9.5q-5 6 -2.5 18.5t12.5 21.5q66 53 161 119q8 6 24 6t19 -4q11 -4 27 -21.5t16 -30.5z" />
    <glyph glyph-name="cacute" unicode="&#x107;" horiz-adv-x="379" 
d="M308 425q17 0 39 -7t31 -15q15 -15 15 -28q0 -31 -17.5 -52t-30.5 -21q-11 0 -25 8t-21 23q-18 42 -37 42q-14 0 -22 -6q-15 -9 -34 -55q-36 -86 -36 -185q0 -22 18 -42t39 -20q24 0 73 50q14 15 22 15q6 0 10 -6.5t4 -12.5q0 -19 -12 -36q-62 -91 -176 -91q-35 0 -64 19
t-40 48q-8 19 -8 68q0 79 40 152q45 83 116 122q55 30 116 30zM358 660q15 0 43.5 -6.5t36.5 -16.5q5 -6 5.5 -19t-7.5 -25q-42 -52 -125 -126q-21 -19 -46 -19q-9 0 -16 12t0 29q25 62 75 146q5 9 17 17t17 8z" />
    <glyph glyph-name="Ccircumflex" unicode="&#x108;" horiz-adv-x="657" 
d="M476 615q27 0 54 -4.5t41.5 -9.5t30.5 -12t17 -7q20 -6 35 5q21 14 29 9q4 -3 9.5 -16t3.5 -17q-35 -67 -46 -119q-3 -14 -14.5 -24.5t-18.5 -10.5q-16 0 -17 35q-2 48 -18 71q-17 25 -45.5 39t-51.5 14q-43 0 -80.5 -19t-80.5 -68q-40 -45 -63 -117.5t-23 -137.5
q0 -24 7 -60.5t15 -51.5q15 -34 48.5 -56t71.5 -21q59 1 110 50q7 7 26 27t31 30q18 16 29 16q8 0 12 -9t2 -20q-5 -25 -68 -130q-11 -16 -27 -4q-19 15 -41 7q-61 -23 -120 -23q-122 0 -190 68t-68 185q0 104 48 186t130 136q89 59 222 59zM526 805q6 0 18.5 -8.5
t18.5 -15.5q8 -12 34.5 -42.5t43.5 -56.5q10 -17 5.5 -24.5t-17.5 -7.5q-19 0 -41 11q-46 26 -80 48q-2 1 -10.5 1t-9.5 -1q-85 -42 -115 -53q-16 -7 -41 -7q-5 0 -7.5 5.5t0.5 15t13 19.5q7 7 28.5 21.5t55.5 37.5t58 40q22 17 46 17z" />
    <glyph glyph-name="ccircumflex" unicode="&#x109;" horiz-adv-x="379" 
d="M308 425q17 0 39 -7t31 -15q15 -15 15 -28q0 -31 -17.5 -52t-30.5 -21q-11 0 -25 8t-21 23q-18 42 -37 42q-14 0 -22 -6q-15 -9 -34 -55q-36 -86 -36 -185q0 -22 18 -42t39 -20q24 0 73 50q14 15 22 15q6 0 10 -6.5t4 -12.5q0 -19 -12 -36q-62 -91 -176 -91q-35 0 -64 19
t-40 48q-8 19 -8 68q0 79 40 152q45 83 116 122q55 30 116 30zM347 660q5 0 12 -8t11 -23q31 -135 31 -152q1 -11 -5 -22.5t-17 -11.5q-5 0 -13 6.5t-12 14.5q-27 50 -35 65q-5 12 -14 3q-10 -8 -35.5 -32.5t-39.5 -35.5q-22 -19 -41 -19q-6 0 -10.5 7t-2.5 18.5t11 21.5
q19 22 68 79.5t53 61.5q23 27 39 27z" />
    <glyph glyph-name="Cdotaccent" unicode="&#x10a;" horiz-adv-x="657" 
d="M476 615q27 0 54 -4.5t41.5 -9.5t30.5 -12t17 -7q20 -6 35 5q21 14 29 9q4 -3 9.5 -16t3.5 -17q-35 -67 -46 -119q-3 -14 -14.5 -24.5t-18.5 -10.5q-16 0 -17 35q-2 48 -18 71q-17 25 -45.5 39t-51.5 14q-43 0 -80.5 -19t-80.5 -68q-40 -45 -63 -117.5t-23 -137.5
q0 -24 7 -60.5t15 -51.5q15 -34 48.5 -56t71.5 -21q59 1 110 50q7 7 26 27t31 30q18 16 29 16q8 0 12 -9t2 -20q-5 -25 -68 -130q-11 -16 -27 -4q-19 15 -41 7q-61 -23 -120 -23q-122 0 -190 68t-68 185q0 104 48 186t130 136q89 59 222 59zM516 789q31 0 44 -19.5t13 -40.5
q0 -38 -23 -57t-47 -19q-21 0 -38.5 16t-17.5 45q0 33 21.5 54t47.5 21z" />
    <glyph glyph-name="cdotaccent" unicode="&#x10b;" horiz-adv-x="379" 
d="M308 425q17 0 39 -7t31 -15q15 -15 15 -28q0 -31 -17.5 -52t-30.5 -21q-11 0 -25 8t-21 23q-18 42 -37 42q-14 0 -22 -6q-15 -9 -34 -55q-36 -86 -36 -185q0 -22 18 -42t39 -20q24 0 73 50q14 15 22 15q6 0 10 -6.5t4 -12.5q0 -19 -12 -36q-62 -91 -176 -91q-35 0 -64 19
t-40 48q-8 19 -8 68q0 79 40 152q45 83 116 122q55 30 116 30zM314 618q32 0 46 -20.5t14 -40.5q0 -14 -11 -35.5t-19 -26.5q-20 -13 -40 -13q-21 0 -38.5 15.5t-17.5 39.5q0 47 33 71q12 10 33 10z" />
    <glyph glyph-name="Ccaron" unicode="&#x10c;" horiz-adv-x="657" 
d="M476 615q27 0 54 -4.5t41.5 -9.5t30.5 -12t17 -7q20 -6 35 5q21 14 29 9q4 -3 9.5 -16t3.5 -17q-35 -67 -46 -119q-3 -14 -14.5 -24.5t-18.5 -10.5q-16 0 -17 35q-2 48 -18 71q-17 25 -45.5 39t-51.5 14q-43 0 -80.5 -19t-80.5 -68q-40 -45 -63 -117.5t-23 -137.5
q0 -24 7 -60.5t15 -51.5q15 -34 48.5 -56t71.5 -21q59 1 110 50q7 7 26 27t31 30q18 16 29 16q8 0 12 -9t2 -20q-5 -25 -68 -130q-11 -16 -27 -4q-19 15 -41 7q-61 -23 -120 -23q-122 0 -190 68t-68 185q0 104 48 186t130 136q89 59 222 59zM476 646q-17 0 -33 20l-77 96
q-12 16 -7.5 26.5t17.5 10.5q20 0 40 -11q43 -23 78 -46q2 -1 10.5 -1t9.5 1q70 34 121 52q16 7 41 7q5 0 8.5 -5t1 -14.5t-12.5 -19.5q-7 -7 -32.5 -23t-62 -38.5t-61.5 -40.5q-18 -14 -41 -14z" />
    <glyph glyph-name="ccaron" unicode="&#x10d;" horiz-adv-x="379" 
d="M308 425q17 0 39 -7t31 -15q15 -15 15 -28q0 -31 -17.5 -52t-30.5 -21q-11 0 -25 8t-21 23q-18 42 -37 42q-14 0 -22 -6q-15 -9 -34 -55q-36 -86 -36 -185q0 -22 18 -42t39 -20q24 0 73 50q14 15 22 15q6 0 10 -6.5t4 -12.5q0 -19 -12 -36q-62 -91 -176 -91q-35 0 -64 19
t-40 48q-8 19 -8 68q0 79 40 152q45 83 116 122q55 30 116 30zM284 453q-6 0 -13.5 8t-10.5 23q-33 144 -33 152q-3 10 2.5 22t17.5 12q5 0 13 -6.5t12 -14.5q8 -18 18.5 -37t16.5 -30q5 -13 14 -3q12 10 38.5 35t38.5 35q24 19 39 19q6 0 10.5 -7t3 -18.5t-10.5 -21.5
q-19 -22 -67 -79.5t-52 -61.5q-21 -27 -37 -27z" />
    <glyph glyph-name="Dcaron" unicode="&#x10e;" horiz-adv-x="745" 
d="M416 606q144 0 229 -78q36 -34 55 -87t19 -105q0 -103 -68 -195t-188 -125q-83 -23 -180 -23q-37 0 -96.5 3.5t-64.5 3.5q-9 0 -53 -2.5t-58 -2.5q-15 0 -28 6.5t-14 17.5q0 9 12 17t30 9q49 5 64 19t31 72q71 252 89 347q9 42 1 53.5t-50 18.5q-36 7 -36 17
q-1 11 9.5 19t25.5 8h17h20h16q200 7 218 7zM410 557q-6 0 -19 -4t-16 -9q-15 -26 -37 -107l-85 -318q-10 -26 2 -44q10 -14 27.5 -23.5t28.5 -9.5q27 0 59 11t54 27q65 49 98 111q13 24 25.5 74t12.5 79q0 72 -18 116q-16 40 -55 68.5t-77 28.5zM422 644q-17 0 -33 20
l-77 96q-12 16 -7.5 26.5t17.5 10.5q20 0 40 -11q43 -23 78 -46q2 -1 10.5 -1t9.5 1q70 34 121 52q16 7 41 7q5 0 8.5 -5t1 -14.5t-12.5 -19.5q-7 -7 -32.5 -23t-62 -38.5t-61.5 -40.5q-18 -14 -41 -14z" />
    <glyph glyph-name="dcaron" unicode="&#x10f;" horiz-adv-x="553" 
d="M28 93q0 74 48.5 156.5t121.5 133.5q60 42 111 42q7 0 29 -6t32 -11t12 3q26 90 36 152q2 11 -6 18t-33 16q-8 3 -14.5 12.5t-6.5 13.5q0 12 26 18q30 7 86 13t68 6q3 0 8 -4.5t8.5 -15t1.5 -23.5q-3 -13 -68 -268q-46 -173 -61 -245q-2 -8 1 -11q6 -8 18 -8q19 0 61 40
q11 11 23 11q8 0 9.5 -10.5t-0.5 -20t-4 -14.5q-19 -38 -65.5 -71.5t-112.5 -33.5q-31 0 -51 18q-2 2 -7 15t-5 18t3 15t9 28t11 36q1 3 -2.5 5.5t-6.5 -0.5q-6 -13 -51 -56.5t-75 -59.5q-36 -19 -68 -19q-42 0 -64 30t-22 77zM162 100q0 -8 7.5 -14.5t17.5 -6.5q31 0 75 53
q66 84 95 188q1 3 1 13t-2 14q-12 29 -25 29q-24 0 -60.5 -42t-59.5 -80q-16 -27 -32.5 -74.5t-16.5 -79.5zM688 667q5 0 12.5 -9.5t6.5 -22.5q-5 -29 -25 -73.5t-44 -78.5q-9 -12 -25.5 -22t-28.5 -10q-6 0 -10 5t-3 9q2 13 15.5 77.5t15.5 80.5q0 2 5 8t8 8q50 28 73 28z
" />
    <glyph glyph-name="Dcroat" unicode="&#x110;" horiz-adv-x="745" 
d="M416 606q144 0 229 -78q36 -34 55 -87t19 -105q0 -103 -68 -195t-188 -125q-83 -23 -180 -23q-37 0 -96.5 3.5t-64.5 3.5q-9 0 -53 -2.5t-58 -2.5q-15 0 -28 6.5t-14 17.5q0 9 12 17t30 9q49 5 64 19t31 72l41 153q1 2 -2.5 6t-5.5 4h-61q-2 0 -5.5 5t-3.5 8q0 17 8 28
q6 8 13 8l65 1q7 0 10 12q26 98 30 122q9 42 1 53.5t-50 18.5q-36 7 -36 17q-1 11 9.5 19t25.5 8h17h20h16q200 7 218 7zM410 557q-6 0 -19 -4t-16 -9q-6 -10 -27 -77.5t-31 -107.5q-3 -10 5 -10l117 -1q10 0 10 -18q0 -16 -7 -23t-13 -7l-120 -1q-7 0 -11 -9l-45 -171
q-10 -26 2 -44q10 -14 27.5 -23.5t28.5 -9.5q27 0 59 11t54 27q136 103 136 264q0 72 -18 116q-16 40 -55 68.5t-77 28.5z" />
    <glyph glyph-name="dcroat" unicode="&#x111;" horiz-adv-x="553" 
d="M162 100q0 -8 7.5 -14.5t17.5 -6.5q31 0 75 53q66 84 95 188q1 3 1 13t-2 14q-12 29 -25 29q-24 0 -60.5 -42t-59.5 -80q-16 -27 -32.5 -74.5t-16.5 -79.5zM542 660q7 0 10 -13.5t1 -28.5q-4 -18 -20 -80q-2 -13 3 -13l55 -1q3 0 6 -5.5t3 -9.5q0 -16 -10 -26
q-7 -7 -13 -7l-56 -2q-3 0 -5 -4t-2 -6q-2 -7 -38 -148.5t-51 -217.5q-2 -8 3.5 -13.5t15.5 -5.5q8 0 17.5 5.5t15.5 11t16 16t14 13.5q11 11 23 11q20 0 3 -42q-19 -39 -64.5 -73.5t-111.5 -34.5q-26 0 -44.5 13t-18.5 38q0 5 3 15t9 28t11 36q1 3 -2.5 5.5t-6.5 -0.5
q-18 -33 -83.5 -84t-110.5 -51q-43 0 -64.5 30t-21.5 77q0 74 48.5 156.5t121.5 133.5q60 42 111 42q7 0 29 -6t32 -11q9 -4 12 3q10 31 14 51q3 10 -5 10h-75q-6 0 -11 3.5t-5 5.5q0 25 11 33q7 5 14 5l80 4q5 0 7 9q4 17 6 29q1 9 -9.5 17t-29.5 17q-7 3 -12.5 10t-5.5 11
q0 5 7.5 13.5t16.5 11.5q31 10 84 14.5t73 4.5z" />
    <glyph glyph-name="Emacron" unicode="&#x112;" horiz-adv-x="613" 
d="M318 343h83q19 0 29 5t23 23q25 34 31 34q8 0 18 -10t5 -24q-38 -108 -44 -138q-2 -12 -5.5 -17.5t-6 -6t-6.5 -0.5q-13 0 -19 9.5t-6 18.5q-1 27 -6 36t-17 12q-17 5 -43 5q-15 0 -51 -6q-5 0 -11 -12q-21 -59 -38 -172q-2 -15 1 -30t10 -17q18 -5 81 -5q48 0 73 7
t53 29q15 13 44 52q14 21 32 21q14 0 14 -27q-1 -28 -25.5 -73.5t-37.5 -54.5q-15 -11 -34 -11q-16 0 -119.5 5.5t-191.5 3.5q-18 0 -76.5 -2.5t-78.5 -2.5q-16 0 -26 6.5t-10 16.5q0 19 36 24q50 8 65.5 18.5t25.5 37.5q12 36 34 114t47 169.5t34 122.5q8 27 -2 38t-47 18
q-34 7 -34 25q0 7 12 13.5t29 6.5l52 -3q52 -4 78 -4h95q112 0 220 8q5 0 9 -8.5t1 -17.5q-13 -32 -34 -106q-3 -13 -11.5 -22.5t-16.5 -9.5q-16 0 -16 33q-1 61 -24 68q-29 9 -67 9q-41 0 -61 -5q-8 -3 -19 -26q-20 -42 -56 -171q0 -7 5 -7zM291 747l264 1q1 0 3 -3.5
t4.5 -8.5t2.5 -10q0 -6 -3 -13.5t-8.5 -16.5t-6.5 -12q-2 -3 -8 -8t-8 -5l-256 -5q-3 0 -10 7t-7 12q0 12 17 49q7 13 16 13z" />
    <glyph glyph-name="emacron" unicode="&#x113;" horiz-adv-x="415" 
d="M302 425q25 0 55 -13q54 -28 54 -78q0 -27 -17.5 -52t-41.5 -40q-64 -41 -170 -50q-7 0 -11 -11q-6 -24 -6 -65q0 -15 11 -27q20 -24 53 -24q13 0 41 15.5t54 38.5q12 12 23 12q4 0 8 -8.5t4 -15.5q0 -22 -30 -52q-69 -69 -171 -69q-45 0 -78.5 29t-45.5 75q-3 12 -3 29
q0 73 40.5 151t100.5 117q79 38 130 38zM289 382q-23 0 -52.5 -41.5t-46.5 -91.5q0 -11 6 -11q33 3 72 40.5t39 78.5q0 11 -6.5 18t-11.5 7zM192 520q0 12 5 33.5t11 29.5q4 9 10 9q13 1 111.5 1t111.5 -1q3 0 6.5 -9.5t3.5 -15.5q0 -26 -16 -52q-6 -10 -8 -10
q-15 -1 -108.5 -3.5t-111.5 -1.5q-5 0 -10 6.5t-5 13.5z" />
    <glyph glyph-name="Ebreve" unicode="&#x114;" horiz-adv-x="613" 
d="M318 343h83q19 0 29 5t23 23q25 34 31 34q8 0 18 -10t5 -24q-38 -108 -44 -138q-2 -12 -5.5 -17.5t-6 -6t-6.5 -0.5q-13 0 -19 9.5t-6 18.5q-1 27 -6 36t-17 12q-17 5 -43 5q-15 0 -51 -6q-5 0 -11 -12q-21 -59 -38 -172q-2 -15 1 -30t10 -17q18 -5 81 -5q48 0 73 7
t53 29q15 13 44 52q14 21 32 21q14 0 14 -27q-1 -28 -25.5 -73.5t-37.5 -54.5q-15 -11 -34 -11q-16 0 -119.5 5.5t-191.5 3.5q-18 0 -76.5 -2.5t-78.5 -2.5q-16 0 -26 6.5t-10 16.5q0 19 36 24q50 8 65.5 18.5t25.5 37.5q12 36 34 114t47 169.5t34 122.5q8 27 -2 38t-47 18
q-34 7 -34 25q0 7 12 13.5t29 6.5l52 -3q52 -4 78 -4h95q112 0 220 8q5 0 9 -8.5t1 -17.5q-13 -32 -34 -106q-3 -13 -11.5 -22.5t-16.5 -9.5q-16 0 -16 33q-1 61 -24 68q-29 9 -67 9q-41 0 -61 -5q-8 -3 -19 -26q-20 -42 -56 -171q0 -7 5 -7zM396 649q-56 0 -90.5 32.5
t-30.5 91.5q1 9 10 19t16 10q16 0 25 -20q25 -48 92 -48q62 0 111 44q19 19 31 19q20 0 16 -24q-9 -42 -56.5 -83t-123.5 -41z" />
    <glyph glyph-name="ebreve" unicode="&#x115;" horiz-adv-x="415" 
d="M302 425q25 0 55 -13q54 -28 54 -78q0 -27 -17.5 -52t-41.5 -40q-64 -41 -170 -50q-7 0 -11 -11q-6 -24 -6 -65q0 -15 11 -27q20 -24 53 -24q13 0 41 15.5t54 38.5q12 12 23 12q4 0 8 -8.5t4 -15.5q0 -22 -30 -52q-69 -69 -171 -69q-45 0 -78.5 29t-45.5 75q-3 12 -3 29
q0 73 40.5 151t100.5 117q79 38 130 38zM289 382q-23 0 -52.5 -41.5t-46.5 -91.5q0 -11 6 -11q33 3 72 40.5t39 78.5q0 11 -6.5 18t-11.5 7zM286 465q-49 0 -78.5 37t-9.5 107q3 11 10 18t12 7q20 0 22 -27q4 -57 64 -57q57 0 88 62q5 9 15 16t16 7q10 0 13 -11.5t-1 -23.5
q-6 -21 -16 -41.5t-27.5 -43t-45.5 -36.5t-62 -14z" />
    <glyph glyph-name="Edotaccent" unicode="&#x116;" horiz-adv-x="613" 
d="M318 343h83q19 0 29 5t23 23q25 34 31 34q8 0 18 -10t5 -24q-38 -108 -44 -138q-2 -12 -5.5 -17.5t-6 -6t-6.5 -0.5q-13 0 -19 9.5t-6 18.5q-1 27 -6 36t-17 12q-17 5 -43 5q-15 0 -51 -6q-5 0 -11 -12q-21 -59 -38 -172q-2 -15 1 -30t10 -17q18 -5 81 -5q48 0 73 7
t53 29q15 13 44 52q14 21 32 21q14 0 14 -27q-1 -28 -25.5 -73.5t-37.5 -54.5q-15 -11 -34 -11q-16 0 -119.5 5.5t-191.5 3.5q-18 0 -76.5 -2.5t-78.5 -2.5q-16 0 -26 6.5t-10 16.5q0 19 36 24q50 8 65.5 18.5t25.5 37.5q12 36 34 114t47 169.5t34 122.5q8 27 -2 38t-47 18
q-34 7 -34 25q0 7 12 13.5t29 6.5l52 -3q52 -4 78 -4h95q112 0 220 8q5 0 9 -8.5t1 -17.5q-13 -32 -34 -106q-3 -13 -11.5 -22.5t-16.5 -9.5q-16 0 -16 33q-1 61 -24 68q-29 9 -67 9q-41 0 -61 -5q-8 -3 -19 -26q-20 -42 -56 -171q0 -7 5 -7zM429 785q31 0 44 -19.5
t13 -40.5q0 -38 -23 -57t-47 -19q-21 0 -38.5 16t-17.5 45q0 33 21.5 54t47.5 21z" />
    <glyph glyph-name="edotaccent" unicode="&#x117;" horiz-adv-x="415" 
d="M302 425q25 0 55 -13q54 -28 54 -78q0 -27 -17.5 -52t-41.5 -40q-64 -41 -170 -50q-7 0 -11 -11q-6 -24 -6 -65q0 -15 11 -27q20 -24 53 -24q13 0 41 15.5t54 38.5q12 12 23 12q4 0 8 -8.5t4 -15.5q0 -22 -30 -52q-69 -69 -171 -69q-45 0 -78.5 29t-45.5 75q-3 12 -3 29
q0 73 40.5 151t100.5 117q79 38 130 38zM289 382q-23 0 -52.5 -41.5t-46.5 -91.5q0 -11 6 -11q33 3 72 40.5t39 78.5q0 11 -6.5 18t-11.5 7zM321 618q32 0 46 -20.5t14 -40.5q0 -14 -11 -35.5t-19 -26.5q-20 -13 -40 -13q-21 0 -38.5 15.5t-17.5 39.5q0 47 33 71
q13 10 33 10z" />
    <glyph glyph-name="Eogonek" unicode="&#x118;" horiz-adv-x="613" 
d="M122 585q0 7 12 13.5t29 6.5l52 -3q52 -4 78 -4h95q112 0 220 8q5 0 9 -8.5t1 -17.5q-13 -32 -34 -106q-3 -13 -11.5 -22.5t-16.5 -9.5q-16 0 -16 33q-1 61 -24 68q-29 9 -67 9q-41 0 -61 -5q-8 -3 -19 -26q-20 -42 -56 -171q0 -7 5 -7h83q19 0 29 5t23 23q25 34 31 34
q8 0 18 -10t5 -24q-38 -108 -44 -138q-2 -12 -5.5 -17.5t-6 -6t-6.5 -0.5q-13 0 -19 9.5t-6 18.5q-1 27 -6 36t-17 12q-17 5 -43 5q-15 0 -51 -6q-5 0 -11 -12q-21 -59 -38 -172q-2 -15 1 -30t10 -17q18 -5 81 -5q48 0 73 7t53 29q15 13 44 52q14 21 32 21q14 0 14 -27
q-1 -28 -25.5 -73.5t-37.5 -54.5q-15 -11 -34 -11q-17 0 -26 1q-105 -80 -105 -128q0 -19 11 -30.5t30 -11.5q23 0 55 15q5 2 10 -4.5t6 -13.5q1 -5 -5 -17.5t-13 -19.5q-42 -45 -110 -45q-44 0 -66.5 25t-22.5 54q0 90 154 179q-134 7 -229 5q-18 0 -76.5 -2.5t-78.5 -2.5
q-16 0 -26 6.5t-10 16.5q0 19 36 24q50 8 65.5 18.5t25.5 37.5q12 36 34 114t47 169.5t34 122.5q8 27 -2 38t-47 18q-34 7 -34 25z" />
    <glyph glyph-name="eogonek" unicode="&#x119;" horiz-adv-x="415" 
d="M139 -140q0 -19 11 -30.5t30 -11.5q23 0 55 15q5 2 11 -3t7 -11q1 -5 -5 -17.5t-13 -19.5q-42 -45 -110 -45q-40 0 -64.5 25t-24.5 52q0 79 144 173q-3 0 -10.5 -0.5t-11.5 -0.5q-45 0 -78.5 29t-45.5 75q-3 12 -3 29q0 73 40.5 151t100.5 117q79 38 130 38q25 0 55 -13
q54 -28 54 -78q0 -27 -17.5 -52t-41.5 -40q-64 -41 -170 -50q-8 0 -11 -11q-6 -24 -6 -65q0 -15 11 -27q20 -24 53 -24q13 0 41 15.5t54 38.5q12 12 23 12q4 0 8 -8.5t4 -15.5q0 -22 -30 -52q-21 -21 -49 -38q-141 -103 -141 -157zM289 382q-23 0 -52.5 -41.5t-46.5 -91.5
q0 -11 6 -11q33 3 72 40.5t39 78.5q0 11 -6.5 18t-11.5 7z" />
    <glyph glyph-name="Ecaron" unicode="&#x11a;" horiz-adv-x="613" 
d="M318 343h83q19 0 29 5t23 23q25 34 31 34q8 0 18 -10t5 -24q-38 -108 -44 -138q-2 -12 -5.5 -17.5t-6 -6t-6.5 -0.5q-13 0 -19 9.5t-6 18.5q-1 27 -6 36t-17 12q-17 5 -43 5q-15 0 -51 -6q-5 0 -11 -12q-21 -59 -38 -172q-2 -15 1 -30t10 -17q18 -5 81 -5q48 0 73 7
t53 29q15 13 44 52q14 21 32 21q14 0 14 -27q-1 -28 -25.5 -73.5t-37.5 -54.5q-15 -11 -34 -11q-16 0 -119.5 5.5t-191.5 3.5q-18 0 -76.5 -2.5t-78.5 -2.5q-16 0 -26 6.5t-10 16.5q0 19 36 24q50 8 65.5 18.5t25.5 37.5q12 36 34 114t47 169.5t34 122.5q8 27 -2 38t-47 18
q-34 7 -34 25q0 7 12 13.5t29 6.5l52 -3q52 -4 78 -4h95q112 0 220 8q5 0 9 -8.5t1 -17.5q-13 -32 -34 -106q-3 -13 -11.5 -22.5t-16.5 -9.5q-16 0 -16 33q-1 61 -24 68q-29 9 -67 9q-41 0 -61 -5q-8 -3 -19 -26q-20 -42 -56 -171q0 -7 5 -7zM382 638q-17 0 -33 20l-77 96
q-12 16 -7.5 26.5t17.5 10.5q20 0 40 -11q43 -23 78 -46q2 -1 10.5 -1t9.5 1q70 34 121 52q16 7 41 7q5 0 8.5 -5t1 -14.5t-12.5 -19.5q-7 -7 -32.5 -23t-62 -38.5t-61.5 -40.5q-18 -14 -41 -14z" />
    <glyph glyph-name="ecaron" unicode="&#x11b;" horiz-adv-x="415" 
d="M302 425q25 0 55 -13q54 -28 54 -78q0 -27 -17.5 -52t-41.5 -40q-64 -41 -170 -50q-7 0 -11 -11q-6 -24 -6 -65q0 -15 11 -27q20 -24 53 -24q13 0 41 15.5t54 38.5q12 12 23 12q4 0 8 -8.5t4 -15.5q0 -22 -30 -52q-69 -69 -171 -69q-45 0 -78.5 29t-45.5 75q-3 12 -3 29
q0 73 40.5 151t100.5 117q79 38 130 38zM289 382q-23 0 -52.5 -41.5t-46.5 -91.5q0 -11 6 -11q33 3 72 40.5t39 78.5q0 11 -6.5 18t-11.5 7zM280 445q-6 0 -13.5 8t-10.5 23q-33 144 -33 152q-3 10 2.5 22t17.5 12q5 0 13 -6.5t12 -14.5q8 -18 18.5 -37t16.5 -30
q5 -13 14 -3q12 10 38.5 35t38.5 35q24 19 39 19q6 0 10.5 -7t3 -18.5t-10.5 -21.5q-19 -22 -67 -79.5t-52 -61.5q-21 -27 -37 -27z" />
    <glyph glyph-name="Gcircumflex" unicode="&#x11c;" horiz-adv-x="734" 
d="M507 616q73 0 138 -23q24 -8 39 -8q6 0 21 1.5t16 1.5q5 0 11 -10t1 -17q-44 -61 -64 -126q-3 -10 -11.5 -17.5t-18.5 -7.5q-8 0 -12 11.5t-4 20.5t1.5 26.5t0 28.5t-8.5 20q-14 20 -44 36.5t-60 16.5q-81 0 -158 -73q-49 -46 -78.5 -126.5t-29.5 -143.5q0 -34 9.5 -80.5
t27.5 -66.5q47 -52 90 -52q13 0 31 12.5t30 33.5q36 63 44 132q1 13 -0.5 21t-9.5 13t-13 7t-21.5 5t-24.5 5q-11 3 -18 10t-7 13q0 8 10 14.5t20 6.5q17 0 77.5 -3t81.5 -3q22 0 71 3l48 3q10 0 17.5 -10t7.5 -21q0 -10 -22 -15q-30 -6 -40.5 -14.5t-18.5 -26.5
q-14 -35 -54 -171q-6 -19 -28 -29q-102 -32 -188 -32q-128 0 -207.5 71t-79.5 183q0 78 43.5 166t131.5 144q110 70 253 70zM553 806q6 0 18.5 -8.5t18.5 -15.5q8 -12 34.5 -42.5t43.5 -56.5q10 -17 5.5 -24.5t-17.5 -7.5q-19 0 -41 11q-46 26 -80 48q-2 1 -10.5 1t-9.5 -1
q-85 -42 -115 -53q-16 -7 -41 -7q-5 0 -7.5 5.5t0.5 15t13 19.5q7 7 28.5 21.5t55.5 37.5t58 40q22 17 46 17z" />
    <glyph glyph-name="gcircumflex" unicode="&#x11d;" horiz-adv-x="420" 
d="M261 425q39 0 73 -17q6 -4 17 -4q4 0 24.5 3.5t43 6.5t35.5 3q2 0 5.5 -2t7.5 -9.5t4 -19.5q0 -17 -9.5 -33.5t-19.5 -16.5l-60 12q-3 1 -5 -3.5t-1 -6.5q5 -11 5 -33q0 -60 -39 -108t-71 -62q-33 -14 -88 -24q-5 -1 -9 -5t-4 -7q0 -16 46 -38q111 -55 139 -93
q20 -24 20 -57q0 -29 -27.5 -61t-68.5 -51q-67 -30 -158 -30q-30 0 -74.5 14t-74.5 36q-38 27 -38 67q0 43 62 75q16 8 81 31q1 0 2.5 5t0.5 6q-14 20 -13 38q0 15 12 25q6 7 26 22.5t23 18.5q1 0 0 2t-3.5 4t-3.5 2q-75 37 -75 111q0 61 37.5 109t85.5 71q38 19 92 19z
M251 380q-23 0 -48 -40q-23 -34 -35 -78t-13 -76q0 -16 9.5 -26t20.5 -10q7 0 28 25t39 78.5t18 86.5q-2 40 -19 40zM169 -178q92 0 94 50q0 14 -18 29q-27 21 -116 61q-14 7 -24 3q-24 -9 -42 -26t-18 -31q0 -31 18 -45q43 -41 106 -41zM329 665q5 0 12 -8t11 -23
q31 -135 31 -152q1 -11 -5 -22.5t-17 -11.5q-5 0 -13 6.5t-12 14.5q-28 50 -35 65q-5 12 -14 3q-10 -8 -35.5 -32.5t-39.5 -35.5q-22 -19 -41 -19q-6 0 -10.5 7t-2.5 18.5t11 21.5q19 22 68 79.5t53 61.5q23 27 39 27z" />
    <glyph glyph-name="Gbreve" unicode="&#x11e;" horiz-adv-x="734" 
d="M507 616q73 0 138 -23q24 -8 39 -8q6 0 21 1.5t16 1.5q5 0 11 -10t1 -17q-44 -61 -64 -126q-3 -10 -11.5 -17.5t-18.5 -7.5q-8 0 -12 11.5t-4 20.5t1.5 26.5t0 28.5t-8.5 20q-14 20 -44 36.5t-60 16.5q-81 0 -158 -73q-49 -46 -78.5 -126.5t-29.5 -143.5q0 -34 9.5 -80.5
t27.5 -66.5q47 -52 90 -52q13 0 31 12.5t30 33.5q36 63 44 132q1 13 -0.5 21t-9.5 13t-13 7t-21.5 5t-24.5 5q-11 3 -18 10t-7 13q0 8 10 14.5t20 6.5q17 0 77.5 -3t81.5 -3q22 0 71 3l48 3q10 0 17.5 -10t7.5 -21q0 -10 -22 -15q-30 -6 -40.5 -14.5t-18.5 -26.5
q-14 -35 -54 -171q-6 -19 -28 -29q-102 -32 -188 -32q-128 0 -207.5 71t-79.5 183q0 78 43.5 166t131.5 144q110 70 253 70zM507 666q-56 0 -90.5 32.5t-30.5 91.5q1 9 10 19t16 10q16 0 25 -20q25 -48 92 -48q62 0 111 44q19 19 31 19q20 0 16 -24q-9 -42 -56.5 -83
t-123.5 -41z" />
    <glyph glyph-name="gbreve" unicode="&#x11f;" horiz-adv-x="420" 
d="M261 425q39 0 73 -17q6 -4 17 -4q4 0 24.5 3.5t43 6.5t35.5 3q2 0 5.5 -2t7.5 -9.5t4 -19.5q0 -17 -9.5 -33.5t-19.5 -16.5l-60 12q-3 1 -5 -3.5t-1 -6.5q5 -11 5 -33q0 -60 -39 -108t-71 -62q-33 -14 -88 -24q-5 -1 -9 -5t-4 -7q0 -16 46 -38q111 -55 139 -93
q20 -24 20 -57q0 -29 -27.5 -61t-68.5 -51q-67 -30 -158 -30q-30 0 -74.5 14t-74.5 36q-38 27 -38 67q0 43 62 75q16 8 81 31q1 0 2.5 5t0.5 6q-14 20 -13 38q0 15 12 25q6 7 26 22.5t23 18.5q1 0 0 2t-3.5 4t-3.5 2q-75 37 -75 111q0 61 37.5 109t85.5 71q38 19 92 19z
M251 380q-23 0 -48 -40q-23 -34 -35 -78t-13 -76q0 -16 9.5 -26t20.5 -10q7 0 28 25t39 78.5t18 86.5q-2 40 -19 40zM169 -178q92 0 94 50q0 14 -18 29q-27 21 -116 61q-14 7 -24 3q-24 -9 -42 -26t-18 -31q0 -31 18 -45q43 -41 106 -41zM265 465q-49 0 -78.5 37t-9.5 107
q3 11 10 18t12 7q20 0 22 -27q4 -57 64 -57q57 0 88 62q5 9 15 16t16 7q10 0 13 -11.5t-1 -23.5q-6 -21 -16 -41.5t-27.5 -43t-45.5 -36.5t-62 -14z" />
    <glyph glyph-name="Gdotaccent" unicode="&#x120;" horiz-adv-x="734" 
d="M507 616q73 0 138 -23q24 -8 39 -8q6 0 21 1.5t16 1.5q5 0 11 -10t1 -17q-44 -61 -64 -126q-3 -10 -11.5 -17.5t-18.5 -7.5q-8 0 -12 11.5t-4 20.5t1.5 26.5t0 28.5t-8.5 20q-14 20 -44 36.5t-60 16.5q-81 0 -158 -73q-49 -46 -78.5 -126.5t-29.5 -143.5q0 -34 9.5 -80.5
t27.5 -66.5q47 -52 90 -52q13 0 31 12.5t30 33.5q36 63 44 132q1 13 -0.5 21t-9.5 13t-13 7t-21.5 5t-24.5 5q-11 3 -18 10t-7 13q0 8 10 14.5t20 6.5q17 0 77.5 -3t81.5 -3q22 0 71 3l48 3q10 0 17.5 -10t7.5 -21q0 -10 -22 -15q-30 -6 -40.5 -14.5t-18.5 -26.5
q-14 -35 -54 -171q-6 -19 -28 -29q-102 -32 -188 -32q-128 0 -207.5 71t-79.5 183q0 78 43.5 166t131.5 144q110 70 253 70zM545 789q31 0 44 -19.5t13 -40.5q0 -38 -23 -57t-47 -19q-21 0 -38.5 16t-17.5 45q0 33 21.5 54t47.5 21z" />
    <glyph glyph-name="gdotaccent" unicode="&#x121;" horiz-adv-x="420" 
d="M261 425q39 0 73 -17q6 -4 17 -4q4 0 24.5 3.5t43 6.5t35.5 3q2 0 5.5 -2t7.5 -9.5t4 -19.5q0 -17 -9.5 -33.5t-19.5 -16.5l-60 12q-3 1 -5 -3.5t-1 -6.5q5 -11 5 -33q0 -60 -39 -108t-71 -62q-33 -14 -88 -24q-5 -1 -9 -5t-4 -7q0 -16 46 -38q111 -55 139 -93
q20 -24 20 -57q0 -29 -27.5 -61t-68.5 -51q-67 -30 -158 -30q-30 0 -74.5 14t-74.5 36q-38 27 -38 67q0 43 62 75q16 8 81 31q1 0 2.5 5t0.5 6q-14 20 -13 38q0 15 12 25q6 7 26 22.5t23 18.5q1 0 0 2t-3.5 4t-3.5 2q-75 37 -75 111q0 61 37.5 109t85.5 71q38 19 92 19z
M251 380q-23 0 -48 -40q-23 -34 -35 -78t-13 -76q0 -16 9.5 -26t20.5 -10q7 0 28 25t39 78.5t18 86.5q-2 40 -19 40zM169 -178q92 0 94 50q0 14 -18 29q-27 21 -116 61q-14 7 -24 3q-24 -9 -42 -26t-18 -31q0 -31 18 -45q43 -41 106 -41zM280 618q32 0 46 -20.5t14 -40.5
q0 -14 -11 -35.5t-19 -26.5q-20 -13 -40 -13q-21 0 -38.5 15.5t-17.5 39.5q0 47 33 71q13 10 33 10z" />
    <glyph glyph-name="Gcommaaccent" unicode="&#x122;" horiz-adv-x="734" 
d="M507 616q73 0 138 -23q24 -8 39 -8q6 0 21 1.5t16 1.5q5 0 11 -10t1 -17q-44 -61 -64 -126q-3 -10 -11.5 -17.5t-18.5 -7.5q-8 0 -12 11.5t-4 20.5t1.5 26.5t0 28.5t-8.5 20q-14 20 -44 36.5t-60 16.5q-81 0 -158 -73q-49 -46 -78.5 -126.5t-29.5 -143.5q0 -34 9.5 -80.5
t27.5 -66.5q47 -52 90 -52q13 0 31 12.5t30 33.5q36 63 44 132q1 13 -0.5 21t-9.5 13t-13 7t-21.5 5t-24.5 5q-11 3 -18 10t-7 13q0 8 10 14.5t20 6.5q17 0 77.5 -3t81.5 -3q22 0 71 3l48 3q10 0 17.5 -10t7.5 -21q0 -10 -22 -15q-30 -6 -40.5 -14.5t-18.5 -26.5
q-14 -35 -54 -171q-6 -19 -28 -29q-102 -32 -188 -32q-128 0 -207.5 71t-79.5 183q0 78 43.5 166t131.5 144q110 70 253 70zM252 -265q-9 0 -19.5 7t-10.5 15q0 5 5.5 12t12.5 9q28 7 50 26.5t22 37.5q0 17 -19 24q-17 5 -24 14t-7 27q0 17 20 36t48 19q26 0 47.5 -23.5
t21.5 -59.5q0 -67 -48.5 -105.5t-98.5 -38.5z" />
    <glyph glyph-name="gcommaaccent" unicode="&#x123;" horiz-adv-x="420" 
d="M351 644q24 0 24 -12t-23 -21q-59 -27 -59 -51q0 -12 13 -16q12 -5 16 -7.5t8 -9t4 -16.5q0 -17 -17 -30.5t-43 -13.5q-24 0 -41 18t-17 46q0 48 47 80.5t88 32.5zM261 425q39 0 73 -17q6 -4 17 -4q4 0 24.5 3.5t43 6.5t35.5 3q2 0 5.5 -2t7.5 -9.5t4 -19.5
q0 -17 -9.5 -33.5t-19.5 -16.5l-60 12q-3 1 -5 -3.5t-1 -6.5q5 -11 5 -33q0 -60 -39 -108t-71 -62q-33 -14 -88 -24q-5 -1 -9 -5t-4 -7q0 -16 46 -38q111 -55 139 -93q20 -24 20 -57q0 -29 -27.5 -61t-68.5 -51q-67 -30 -158 -30q-30 0 -74.5 14t-74.5 36q-38 27 -38 67
q0 43 62 75q16 8 81 31q1 0 2.5 5t0.5 6q-14 20 -13 38q0 15 12 25q6 7 26 22.5t23 18.5q1 0 0 2t-3.5 4t-3.5 2q-75 37 -75 111q0 61 37.5 109t85.5 71q38 19 92 19zM251 380q-23 0 -48 -40q-23 -34 -35 -78t-13 -76q0 -16 9.5 -26t20.5 -10q7 0 28 25t39 78.5t18 86.5
q-2 40 -19 40zM169 -178q92 0 94 50q0 14 -18 29q-27 21 -116 61q-14 7 -24 3q-24 -9 -42 -26t-18 -31q0 -31 18 -45q43 -41 106 -41z" />
    <glyph glyph-name="Hcircumflex" unicode="&#x124;" horiz-adv-x="784" 
d="M132 579q0 9 9 15.5t26 6.5q13 0 54 -1.5t61 -1.5t70.5 2.5t67.5 2.5q32 0 32 -20q0 -16 -34 -25q-33 -9 -42.5 -17t-18.5 -35q-39 -119 -39 -155q0 -13 10 -13q72 5 116 5q18 0 81 -3q7 0 18 14q8 11 24.5 68.5t19.5 77.5q4 27 -1.5 34.5t-39.5 21.5q-30 13 -30 25
q0 20 31 20q12 0 65.5 -1.5t67.5 -1.5q12 0 60 1.5t64 1.5q37 0 37 -20q0 -17 -38 -28q-45 -13 -54 -37q-14 -35 -58.5 -195.5t-54.5 -208.5q-2 -13 -3 -22t2 -16t5.5 -11t10.5 -7.5t13 -5.5t17 -6q31 -10 31 -28q0 -7 -9.5 -13t-25.5 -6q-11 0 -68 1.5t-79 1.5
q-14 0 -56.5 -1.5t-61.5 -1.5q-17 0 -27 7t-10 16t9.5 16.5t24.5 9.5q20 3 32.5 10.5t16.5 14t10 19.5q11 24 31 94.5t20 87.5q0 15 -5 15q-28 2 -73 2q-63 0 -125 -4q-2 0 -10 -4.5t-9 -7.5q-10 -23 -24.5 -80.5t-17.5 -82.5q-5 -37 2.5 -47.5t36.5 -18.5t29 -26
q0 -9 -11 -15t-22 -6q-17 0 -64 1.5t-69 1.5q-24 0 -80.5 -2.5t-67.5 -2.5q-14 0 -23.5 7t-9.5 15q-1 16 30 25q41 10 55.5 21.5t27.5 39.5q21 47 61 189t52 205q5 26 -2.5 37.5t-37.5 18.5q-11 2 -20.5 10t-9.5 16zM551 800q6 0 18.5 -8.5t18.5 -15.5q8 -12 34.5 -42.5
t43.5 -56.5q10 -17 5.5 -24.5t-17.5 -7.5q-19 0 -41 11q-46 26 -80 48q-2 1 -10.5 1t-9.5 -1q-85 -42 -115 -53q-16 -7 -41 -7q-5 0 -7.5 5.5t0.5 15t13 19.5q7 7 28.5 21.5t55.5 37.5t58 40q22 17 46 17z" />
    <glyph glyph-name="hcircumflex" unicode="&#x125;" horiz-adv-x="541" 
d="M433 425q26 0 49 -28.5t23 -70.5q0 -118 -70 -235q-26 -41 -93 -82q-17 -11 -42 -21t-32 -10q-20 0 -36.5 12.5t-17.5 24.5q0 11 11.5 29t21.5 25q1 1 6 2t7 0q1 -1 21 -13.5t27 -12.5q5 0 7.5 1.5t4.5 3.5t6 9q16 31 34 107.5t18 126.5q0 45 -28 45q-26 0 -62 -40
q-62 -69 -149 -274q-7 -17 -16 -26.5t-15 -9.5q-13 0 -32.5 7.5t-28.5 18.5q-12 14 -3 56q1 5 56 229.5t62 256.5q4 14 -4 22q-49 26 -50 35q0 5 6.5 14.5t12.5 11.5q22 8 82.5 14.5t83.5 6.5q3 0 7 -4t7 -12.5t-1 -22.5q-8 -34 -40.5 -144t-46.5 -170q0 -3 2.5 -7t6.5 0
q60 63 103 92q49 33 102 33zM276 825q6 0 18.5 -8.5t18.5 -15.5q8 -12 34.5 -42.5t43.5 -56.5q10 -17 5.5 -24.5t-17.5 -7.5q-19 0 -41 11q-46 26 -80 48q-2 1 -10.5 1t-9.5 -1q-85 -42 -115 -53q-16 -7 -41 -7q-5 0 -7.5 5.5t0.5 15t13 19.5q7 7 28.5 21.5t55.5 37.5t58 40
q22 17 46 17z" />
    <glyph glyph-name="Hbar" unicode="&#x126;" horiz-adv-x="784" 
d="M132 579q0 9 9 15.5t26 6.5q13 0 54 -1.5t61 -1.5t70.5 2.5t67.5 2.5q32 0 32 -20q0 -16 -34 -25q-33 -9 -42.5 -17t-18.5 -35l-16 -50q-2 -5 1.5 -9.5t7.5 -4.5l214 2q9 0 13 12q9 40 10 44q4 27 -1.5 34.5t-39.5 21.5q-30 13 -30 25q0 20 31 20q12 0 65.5 -1.5
t67.5 -1.5q12 0 60 1.5t64 1.5q37 0 37 -20q0 -17 -38 -28q-45 -13 -54 -37q-5 -13 -20 -61q-1 -2 0 -6t4 -4h46q11 0 11 -14q0 -15 -11 -26q-5 -5 -15 -5l-45 -2q-7 0 -11 -12q-57 -204 -72 -274q-2 -13 -3 -22t2 -16t5.5 -11t10.5 -7.5t13 -5.5t17 -6q31 -10 31 -28
q0 -7 -9.5 -13t-25.5 -6q-11 0 -68 1.5t-79 1.5q-14 0 -56.5 -1.5t-61.5 -1.5q-17 0 -27 7t-10 16t9.5 16.5t24.5 9.5q20 3 32.5 10.5t16.5 14t10 19.5q11 24 26.5 78t15.5 71q0 15 -5 15q-155 0 -199 -3q-2 0 -10 -4.5t-9 -7.5q-21 -50 -32 -129q-5 -37 2.5 -47.5
t36.5 -18.5t29 -26q0 -9 -11 -15t-22 -6q-17 0 -64 1.5t-69 1.5q-24 0 -80.5 -2.5t-67.5 -2.5q-14 0 -23.5 7t-9.5 15q-1 16 30 25q41 10 55.5 21.5t27.5 39.5q30 71 84 277q4 15 -6 15h-47q-9 0 -9 14q0 12 9 23q6 8 15 8l46 2q7 0 12 16l9 39q5 26 -2.5 37.5t-37.5 18.5
q-11 2 -20.5 10t-9.5 16zM555 385q3 12 -8 12l-210 -3q-9 0 -15 -14q-14 -61 -14 -63q0 -13 10 -13q33 2 104 2t94 1q7 0 18 14q1 2 5.5 14.5t9.5 29.5t6 20z" />
    <glyph glyph-name="hbar" unicode="&#x127;" horiz-adv-x="541" 
d="M433 425q26 0 49 -28.5t23 -70.5q0 -118 -70 -235q-26 -41 -93 -82q-17 -11 -42 -21t-32 -10q-20 0 -36.5 12.5t-17.5 24.5q0 11 11.5 29t21.5 25q1 1 6 2t7 0q1 -1 21 -13.5t27 -12.5q5 0 7.5 1.5t4.5 3.5t6 9q16 31 34 107.5t18 126.5q0 45 -28 45q-26 0 -62 -40
q-62 -69 -149 -274q-7 -17 -16 -26.5t-15 -9.5q-13 0 -32.5 7.5t-28.5 18.5q-12 14 -3 56l90 391q2 11 -6 11l-45 -1q-6 0 -10.5 3t-4.5 6q0 20 12 32q9 9 13 9l49 2q7 0 10 9l5 24q1 3 1 6v5t-1.5 4.5t-2.5 3.5t-3.5 3t-3 2t-3.5 2l-4 2q-32 18 -34 24q-1 2 -1 5
q0 5 6.5 13.5t13.5 10.5q22 8 82.5 15.5t81.5 7.5q6 0 9 -14t0 -25q-20 -81 -22 -87q-2 -11 8 -11h96q3 0 5.5 -5.5t2.5 -9.5q0 -18 -7 -25q-9 -7 -15 -7l-97 -4q-10 0 -12 -8q-5 -17 -20.5 -84t-17.5 -73q0 -3 2.5 -7t6.5 0q60 63 103 92q49 33 102 33z" />
    <glyph glyph-name="Itilde" unicode="&#x128;" horiz-adv-x="390" 
d="M134 579q0 21 34 21q6 0 39.5 -1t56.5 -1q28 0 91.5 2.5t70.5 2.5q32 0 32 -18q0 -17 -29 -25q-35 -8 -46.5 -19t-22.5 -42q-39 -112 -107 -366q-12 -34 -6.5 -54t15 -27t32.5 -14q26 -8 26 -23q0 -22 -36 -22q-13 0 -89.5 3t-91.5 3q-16 0 -45 -0.5t-39 -0.5
q-16 0 -28 5.5t-12 12.5q0 10 9 19t27 12q63 10 74 44q23 74 52 175t46.5 167t20.5 78q4 21 -4 29.5t-42 14.5q-12 2 -20 9.5t-8 14.5zM254 764q28 0 85.5 -7t71.5 -7q23 0 60 40q5 4 14 4q3 0 10 -7.5t11 -14.5q3 -9 0 -14q-3 -4 -21 -24.5t-30.5 -33.5t-23.5 -20
q-25 -15 -54 -15q-12 0 -75.5 9.5t-75.5 6.5q-19 -4 -47 -35q-9 -12 -15 -12q-7 0 -17 9.5t-10 14.5q0 16 27.5 48.5t47.5 45.5q18 12 42 12z" />
    <glyph glyph-name="itilde" unicode="&#x129;" horiz-adv-x="305" 
d="M231 425q10 0 24.5 -17.5t14.5 -36.5q0 -5 -2 -11t-5 -14t-4 -13l-78 -223q-1 -2 1 -6.5t5 -4.5q22 0 63 33q13 10 21 10q3 0 6.5 -4.5t3.5 -8.5q0 -23 -26 -56q-27 -34 -78.5 -60.5t-94.5 -26.5q-12 0 -27 14.5t-15 25.5q0 21 10 46q20 43 79 223q4 10 3 16t-2.5 8
t-3.5 2q-15 0 -68 -39q-3 -2 -10 6t-7 12q0 21 16 40q22 26 76.5 55.5t97.5 29.5zM148 503q-4 0 -9 -3t-8 -5.5t-9.5 -9.5t-8.5 -9q-10 -10 -17 -10q-6 0 -16 12t-10 19q0 1 12 17t34.5 38.5t44.5 35.5q14 11 26 9q32 -15 84 -15q28 0 37 9q9 7 36 34q4 7 19.5 -4t15.5 -18
q0 -8 -7 -15q-3 -2 -21.5 -22.5t-38.5 -43t-22 -24.5q-10 -10 -18 -10q-6 0 -49.5 7.5t-74.5 7.5z" />
    <glyph glyph-name="Imacron" unicode="&#x12a;" horiz-adv-x="390" 
d="M134 579q0 21 34 21q6 0 39.5 -1t56.5 -1q28 0 91.5 2.5t70.5 2.5q32 0 32 -18q0 -17 -29 -25q-35 -8 -46.5 -19t-22.5 -42q-39 -112 -107 -366q-12 -34 -6.5 -54t15 -27t32.5 -14q26 -8 26 -23q0 -22 -36 -22q-13 0 -89.5 3t-91.5 3q-16 0 -45 -0.5t-39 -0.5
q-16 0 -28 5.5t-12 12.5q0 10 9 19t27 12q63 10 74 44q23 74 52 175t46.5 167t20.5 78q4 21 -4 29.5t-42 14.5q-12 2 -20 9.5t-8 14.5zM202 750l264 1q1 0 3 -3.5t4.5 -8.5t2.5 -10q0 -6 -3 -13.5t-8.5 -16.5t-6.5 -12q-2 -3 -8 -8t-8 -5l-256 -5q-3 0 -10 7t-7 12
q0 12 17 49q6 13 16 13z" />
    <glyph glyph-name="imacron" unicode="&#x12b;" horiz-adv-x="305" 
d="M231 425q10 0 24.5 -17.5t14.5 -36.5q0 -5 -2 -11t-5 -14t-4 -13l-78 -223q-1 -2 1 -6.5t5 -4.5q22 0 63 33q13 10 21 10q3 0 6.5 -4.5t3.5 -8.5q0 -23 -26 -56q-27 -34 -78.5 -60.5t-94.5 -26.5q-12 0 -27 14.5t-15 25.5q0 21 10 46q20 43 79 223q4 10 3 16t-2.5 8
t-3.5 2q-15 0 -68 -39q-3 -2 -10 6t-7 12q0 21 16 40q22 26 76.5 55.5t97.5 29.5zM97 520q0 12 5 33.5t11 29.5q5 9 10 9q13 1 111.5 1t111.5 -1q3 0 6.5 -9.5t3.5 -15.5q0 -26 -16 -52q-6 -10 -8 -10q-15 -1 -108.5 -3.5t-111.5 -1.5q-5 0 -10 6.5t-5 13.5z" />
    <glyph glyph-name="Ibreve" unicode="&#x12c;" horiz-adv-x="390" 
d="M134 579q0 21 34 21q6 0 39.5 -1t56.5 -1q28 0 91.5 2.5t70.5 2.5q32 0 32 -18q0 -17 -29 -25q-35 -8 -46.5 -19t-22.5 -42q-39 -112 -107 -366q-12 -34 -6.5 -54t15 -27t32.5 -14q26 -8 26 -23q0 -22 -36 -22q-13 0 -89.5 3t-91.5 3q-16 0 -45 -0.5t-39 -0.5
q-16 0 -28 5.5t-12 12.5q0 10 9 19t27 12q63 10 74 44q23 74 52 175t46.5 167t20.5 78q4 21 -4 29.5t-42 14.5q-12 2 -20 9.5t-8 14.5zM308 646q-56 0 -90.5 32.5t-30.5 91.5q1 9 10 19t16 10q16 0 25 -20q25 -48 92 -48q62 0 111 44q19 19 31 19q20 0 16 -24
q-9 -42 -56.5 -83t-123.5 -41z" />
    <glyph glyph-name="ibreve" unicode="&#x12d;" horiz-adv-x="305" 
d="M231 425q10 0 24.5 -17.5t14.5 -36.5q0 -5 -2 -11t-5 -14t-4 -13l-78 -223q-1 -2 1 -6.5t5 -4.5q22 0 63 33q13 10 21 10q3 0 6.5 -4.5t3.5 -8.5q0 -23 -26 -56q-27 -34 -78.5 -60.5t-94.5 -26.5q-12 0 -27 14.5t-15 25.5q0 21 10 46q20 43 79 223q4 10 3 16t-2.5 8
t-3.5 2q-15 0 -68 -39q-3 -2 -10 6t-7 12q0 21 16 40q22 26 76.5 55.5t97.5 29.5zM208 465q-49 0 -78.5 37t-9.5 107q3 11 10 18t12 7q20 0 22 -27q4 -57 64 -57q57 0 88 62q5 9 15 16t16 7q10 0 13 -11.5t-1 -23.5q-6 -21 -16 -41.5t-27.5 -43t-45.5 -36.5t-62 -14z" />
    <glyph glyph-name="Iogonek" unicode="&#x12e;" horiz-adv-x="390" 
d="M134 579q0 21 34 21q6 0 39.5 -1t56.5 -1q28 0 91.5 2.5t70.5 2.5q32 0 32 -18q0 -17 -29 -25q-35 -8 -46.5 -19t-22.5 -42q-39 -112 -107 -366q-12 -34 -6.5 -54t15 -27t32.5 -14q26 -8 26 -23q0 -22 -36 -22q-7 0 -38.5 1.5t-49.5 1.5q-40 -34 -65.5 -71t-25.5 -61
q0 -19 11 -30.5t30 -11.5q23 0 55 15q5 2 10 -4.5t6 -13.5q1 -5 -5 -17.5t-13 -19.5q-42 -45 -110 -45q-44 0 -66.5 25t-22.5 54q0 88 142 182q-17 1 -39 1q-16 0 -45 -0.5t-39 -0.5q-16 0 -28 5.5t-12 12.5q0 10 9 19t27 12q63 10 74 44q23 74 52 175t46.5 167t20.5 78
q4 21 -4 29.5t-42 14.5q-12 2 -20 9.5t-8 14.5z" />
    <glyph glyph-name="iogonek" unicode="&#x12f;" horiz-adv-x="303" 
d="M228 425q10 0 24.5 -17.5t14.5 -36.5q0 -5 -2 -11t-5 -14t-4 -13l-78 -223q-1 -2 1 -6.5t5 -4.5q22 0 63 33q13 10 21 10q3 0 6.5 -4.5t3.5 -8.5q0 -23 -26 -56q-16 -19 -48 -43l-20 -15q-119 -94 -119 -155q0 -19 11 -30.5t30 -11.5q23 0 55 15q5 2 11 -3t7 -11
q1 -5 -5 -17.5t-13 -19.5q-42 -45 -110 -45q-40 0 -64.5 25t-24.5 52q0 77 134 173q-16 -7 -37.5 7.5t-21.5 31.5q0 21 10 46q20 43 79 223q4 10 3 16t-2.5 8t-3.5 2q-15 0 -68 -39q-3 -2 -10 6t-7 12q0 21 16 40q22 26 76.5 55.5t97.5 29.5zM231 618q32 0 46 -20.5
t14 -40.5q0 -14 -11 -35.5t-19 -26.5q-20 -13 -40 -13q-21 0 -38.5 15.5t-17.5 39.5q0 47 33 71q13 10 33 10z" />
    <glyph glyph-name="Idotaccent" unicode="&#x130;" horiz-adv-x="390" 
d="M134 579q0 21 34 21q6 0 39.5 -1t56.5 -1q28 0 91.5 2.5t70.5 2.5q32 0 32 -18q0 -17 -29 -25q-35 -8 -46.5 -19t-22.5 -42q-39 -112 -107 -366q-12 -34 -6.5 -54t15 -27t32.5 -14q26 -8 26 -23q0 -22 -36 -22q-13 0 -89.5 3t-91.5 3q-16 0 -45 -0.5t-39 -0.5
q-16 0 -28 5.5t-12 12.5q0 10 9 19t27 12q63 10 74 44q23 74 52 175t46.5 167t20.5 78q4 21 -4 29.5t-42 14.5q-12 2 -20 9.5t-8 14.5zM326 790q31 0 44 -19.5t13 -40.5q0 -38 -23 -57t-47 -19q-21 0 -38.5 16t-17.5 45q0 33 21.5 54t47.5 21z" />
    <glyph glyph-name="dotlessi" unicode="&#x131;" horiz-adv-x="305" 
d="M231 425q10 0 24.5 -17.5t14.5 -36.5q0 -5 -2 -11t-5 -14t-4 -13l-78 -223q-1 -2 1 -6.5t5 -4.5q22 0 63 33q13 10 21 10q3 0 6.5 -4.5t3.5 -8.5q0 -23 -26 -56q-27 -34 -78.5 -60.5t-94.5 -26.5q-12 0 -27 14.5t-15 25.5q0 21 10 46q20 43 79 223q4 10 3 16t-2.5 8
t-3.5 2q-15 0 -68 -39q-3 -2 -10 6t-7 12q0 21 16 40q22 26 76.5 55.5t97.5 29.5z" />
    <glyph glyph-name="IJ" unicode="&#x132;" horiz-adv-x="776" 
d="M134 579q0 21 34 21q6 0 39.5 -1t56.5 -1q28 0 91.5 2.5t70.5 2.5q32 0 32 -18q0 -17 -29 -25q-35 -8 -46.5 -19t-22.5 -42q-39 -112 -107 -366q-12 -34 -6.5 -54t15 -27t32.5 -14q26 -8 26 -23q0 -22 -36 -22q-13 0 -89.5 3t-91.5 3q-16 0 -45 -0.5t-39 -0.5
q-16 0 -28 5.5t-12 12.5q0 10 9 19t27 12q63 10 74 44q23 74 52 175t46.5 167t20.5 78q4 21 -4 29.5t-42 14.5q-12 2 -20 9.5t-8 14.5zM353 -206q-59 0 -83 22q-18 18 -18 65q0 20 8.5 34t18.5 14q6 0 14 -4.5t12.5 -9t14.5 -15t13 -13.5l9.5 -9.5t9.5 -10t9 -8.5t10 -7.5
t9 -4.5t10 -2q14 0 27.5 21.5t32.5 86.5q25 82 75 269t63 246q9 51 1 64t-47 24q-31 9 -31 26q0 8 9.5 14.5t22.5 6.5q20 0 65.5 -2.5t63.5 -2.5q28 0 82 2t60 2q14 0 23 -7t9 -14q0 -21 -33 -29q-31 -8 -43.5 -18.5t-20.5 -42.5l-103 -374q-4 -16 -29 -99
q-34 -110 -111 -167t-153 -57z" />
    <glyph glyph-name="ij" unicode="&#x133;" horiz-adv-x="602" 
d="M228 425q10 0 24.5 -17.5t14.5 -36.5q0 -5 -2 -11t-5 -14t-4 -13l-78 -223q-1 -2 1 -6.5t5 -4.5q22 0 63 33q13 10 21 10q3 0 6.5 -4.5t3.5 -8.5q0 -23 -26 -56q-27 -34 -78.5 -60.5t-94.5 -26.5q-12 0 -27 14.5t-15 25.5q0 21 10 46q20 43 79 223q4 10 3 16t-2.5 8
t-3.5 2q-15 0 -68 -39q-3 -2 -10 6t-7 12q0 21 16 40q22 26 76.5 55.5t97.5 29.5zM231 618q32 0 46 -20.5t14 -40.5q0 -14 -11 -35.5t-19 -26.5q-20 -13 -40 -13q-21 0 -38.5 15.5t-17.5 39.5q0 47 33 71q13 10 33 10zM544 425q9 0 22 -14t12 -35q0 -16 -47.5 -185
t-67.5 -235q-11 -36 -31.5 -65.5t-47.5 -50t-39.5 -28t-33.5 -18.5q-47 -25 -96 -25q-27 0 -43.5 14t-16.5 30q0 8 17 29.5t29 29.5q2 2 11.5 2t11.5 -1q8 -6 20 -17.5t21 -17.5t18 -6q21 0 40 55q13 38 62 217t55 206q1 4 -0.5 7t-3.5 4t-3 1q-16 0 -71 -41
q-5 -3 -9.5 -2.5t-8 3.5t-2.5 5q0 24 11 39q22 29 83 64t108 35zM553 618q32 0 45 -19.5t13 -39.5q0 -35 -23 -56t-48 -21q-21 0 -38 14.5t-17 36.5q0 57 32 75q17 10 36 10z" />
    <glyph glyph-name="Jcircumflex" unicode="&#x134;" horiz-adv-x="386" 
d="M-37 -206q-59 0 -83 22q-18 18 -18 65q0 20 8.5 34t18.5 14q6 0 14 -4.5t12.5 -9t14.5 -15t13 -13.5l9.5 -9.5t9.5 -10t9 -8.5t10 -7.5t9 -4.5t10 -2q14 0 27.5 21.5t32.5 86.5q25 82 75 269t63 246q9 51 1 64t-47 24q-31 9 -31 26q0 8 9.5 14.5t22.5 6.5q20 0 65.5 -2.5
t63.5 -2.5q28 0 82 2t60 2q14 0 23 -7t9 -14q0 -21 -33 -29q-31 -8 -43.5 -18.5t-20.5 -42.5l-103 -374q-4 -16 -29 -99q-34 -110 -111 -167t-153 -57zM346 798q6 0 18.5 -8.5t18.5 -15.5q8 -12 34.5 -42.5t43.5 -56.5q10 -17 5.5 -24.5t-17.5 -7.5q-19 0 -41 11
q-46 26 -80 48q-2 1 -10.5 1t-9.5 -1q-85 -42 -115 -53q-16 -7 -41 -7q-5 0 -7.5 5.5t0.5 15t13 19.5q7 7 28.5 21.5t55.5 37.5t58 40q22 17 46 17z" />
    <glyph glyph-name="jcircumflex" unicode="&#x135;" horiz-adv-x="299" 
d="M241 425q9 0 22 -14t12 -35q0 -16 -47.5 -185t-67.5 -235q-11 -36 -31.5 -65.5t-47.5 -50t-39.5 -28t-33.5 -18.5q-47 -25 -96 -25q-27 0 -43.5 14t-16.5 30q0 8 17 29.5t29 29.5q2 2 11.5 2t11.5 -1q8 -6 20 -17.5t21 -17.5t18 -6q21 0 40 55q13 38 62 217t55 206
q1 4 -0.5 7t-3.5 4t-3 1q-16 0 -71 -41q-5 -3 -9.5 -2.5t-8 3.5t-2.5 5q0 24 11 39q22 29 83 64t108 35zM283 660q5 0 12 -8t11 -23q31 -135 31 -152q1 -11 -5 -22.5t-17 -11.5q-5 0 -13 6.5t-12 14.5q-28 50 -35 65q-5 12 -14 3q-10 -8 -35.5 -32.5t-39.5 -35.5
q-22 -19 -41 -19q-6 0 -10.5 7t-2.5 18.5t11 21.5q19 22 68 79.5t53 61.5q23 27 39 27z" />
    <glyph glyph-name="Kcommaaccent" unicode="&#x136;" horiz-adv-x="717" 
d="M132 579q0 8 12 15t24 7q19 0 58 -1.5t56 -1.5q23 0 78 1.5t62 1.5q32 0 32 -19q0 -21 -35 -27q-28 -5 -42 -14.5t-23 -34.5q-9 -24 -27.5 -88.5t-19.5 -82.5q0 -12 5 -12q19 0 70 38q20 16 54 44t79 69t53 55q7 14 5.5 17t-14.5 6q-31 8 -29 27q1 19 37 19
q31 0 111.5 3.5t91.5 3.5q14 0 24.5 -6.5t10.5 -12.5q0 -20 -37 -27q-29 -5 -56.5 -16t-42.5 -19.5t-48 -29.5q-53 -34 -170 -131q-3 -2 -3.5 -10t1.5 -12q20 -60 51 -130t49 -100q35 -59 93 -71q12 -2 23 -10t11 -16q0 -10 -13 -16t-27 -6q-115 0 -172 12q-14 3 -33.5 23.5
t-30.5 44.5q-38 83 -73 186q-9 24 -23 24q-6 0 -15 -15q-7 -13 -22.5 -74t-18.5 -89q-3 -26 4 -38.5t35 -20.5q34 -10 32 -26q0 -8 -11 -15.5t-24 -7.5q-14 0 -48 2t-53 2q-18 0 -81 -3t-78 -3q-44 0 -44 23q0 19 40 28q22 5 30.5 8t20.5 14.5t20 30.5q18 48 114 400
q12 43 -43 56q-13 3 -22 10.5t-8 14.5zM268 -255q-9 0 -19.5 7t-10.5 15q0 5 5.5 12t12.5 9q28 7 50 26.5t22 37.5q0 17 -19 24q-17 5 -24 14t-7 27q0 17 20 36t48 19q26 0 47.5 -23.5t21.5 -59.5q0 -67 -48.5 -105.5t-98.5 -38.5z" />
    <glyph glyph-name="kcommaaccent" unicode="&#x137;" horiz-adv-x="525" 
d="M411 425q28 0 53.5 -19t25.5 -53q0 -50 -47 -92q-9 -9 -27.5 -20.5t-33 -19t-32.5 -17t-19 -9.5q-9 -6 -4 -13q11 -14 46 -67q14 -22 31 -22q24 0 64 40q14 14 24 14q6 0 9 -14.5t-2 -25.5q-29 -62 -66.5 -92t-75.5 -30q-29 0 -47.5 16t-44.5 59q-7 12 -16 31.5t-14 27.5
q-18 30 -35 30q-5 0 -14 -15q-8 -13 -18 -36t-22.5 -54t-19.5 -47q-1 -4 -10.5 -7.5t-15.5 -3.5q-19 0 -42 18.5t-23 33.5q0 5 5 27q5 17 29 104t56 209t45 182q1 5 1 9t0.5 6.5t-2 5t-3.5 4t-6 3t-7.5 2.5t-10.5 3.5t-12 3.5q-22 7 -22 16q0 17 26 29q11 4 74.5 11t92.5 7
q3 0 6.5 -4.5t6 -13.5t-0.5 -23q-2 -9 -14.5 -52t-33 -113.5t-36.5 -128.5q-1 -3 2 -6.5t6 -0.5q59 54 108 83q43 24 66 24zM341 336q-25 0 -58.5 -27.5t-61.5 -96.5q-1 -4 1.5 -10t8.5 -6q38 0 86 39.5t48 76.5q0 24 -24 24zM131 -250q-9 0 -19.5 7t-10.5 15q0 5 5.5 12
t12.5 9q28 7 50 26.5t22 37.5q0 17 -19 24q-17 5 -24 14t-7 27q0 17 20 36t48 19q26 0 47.5 -23.5t21.5 -59.5q0 -67 -48.5 -105.5t-98.5 -38.5z" />
    <glyph glyph-name="kgreenlandic" unicode="&#x138;" horiz-adv-x="504" 
d="M202 424q23 0 45 -19.5t7 -59.5q-8 -21 -23 -68.5t-16 -49.5q-3 -8 0.5 -10t8.5 4q9 9 43 49t55 62q86 92 147 92q25 0 38.5 -21.5t9.5 -50.5q-1 -4 -6 -8.5t-10 -3.5q-12 3 -33 3q-48 0 -90.5 -27t-71.5 -66q-1 -1 -2 -6.5t1 -8.5q19 -22 33 -65q9 -28 12.5 -37.5
t11 -26.5t13.5 -23t13 -6q4 0 8 1t9 4t8.5 5.5t9 7.5t8.5 7.5t9.5 9l8.5 8.5q5 4 12 -1.5t7 -14.5q0 -16 -9 -34q-20 -39 -62.5 -62.5t-73.5 -23.5q-25 0 -43.5 20t-27.5 50q-2 7 -6 20.5t-8.5 29.5t-6.5 22q-5 19 -15 23.5t-16 -6.5q-7 -10 -23 -45l-24 -52
q-23 -61 -53 -61q-19 0 -40.5 16t-21.5 34q0 25 14 59q17 40 81 215q8 22 -8 22q-14 0 -70 -39q-4 -4 -13 -1t-9 15q0 20 17 40q65 78 152 78z" />
    <glyph glyph-name="Lacute" unicode="&#x139;" horiz-adv-x="635" 
d="M286 47q124 0 145 4q22 4 102 91q28 30 38 30q6 0 11 -8t5 -17q0 -16 -19.5 -62.5t-38.5 -69.5q-13 -17 -33 -19q-36 -4 -62 -4q-13 0 -124.5 4t-127.5 4q-20 0 -85 -2t-74 -2q-35 0 -35 14q0 8 8 18t20 12q44 9 60.5 21t21.5 29q10 36 52.5 200.5t52.5 200.5q3 13 3 22
t-1 14t-7 10t-8.5 7t-11.5 6q-3 2 -12.5 6t-14 6.5t-9 7t-4.5 10.5q0 8 13 15t27 7q12 0 63.5 -2t70.5 -2q24 0 67 2t52 2q16 0 25.5 -7t9.5 -15t-7 -15t-20 -9q-42 -8 -56 -18t-24 -40q-24 -74 -99 -397q-6 -22 3 -38t23 -16zM530 751q0 -23 -31 -42q-52 -26 -180 -73
q-9 -5 -24.5 -3.5t-21.5 9.5q-5 6 -2.5 18.5t12.5 21.5q66 53 161 119q8 6 24 6t19 -4q11 -4 27 -21.5t16 -30.5z" />
    <glyph glyph-name="lacute" unicode="&#x13a;" horiz-adv-x="291" 
d="M118 617q0 8 11 17.5t26 11.5q109 14 144 14q8 0 12.5 -13.5t-0.5 -30.5q-8 -29 -45 -157t-61 -215t-33 -129q-2 -12 0.5 -23t9.5 -11q20 0 76 44q5 3 11.5 -1t6.5 -10q0 -20 -9 -34q-28 -45 -75 -69.5t-94 -24.5q-20 0 -37.5 18.5t-17.5 40.5q0 39 45 205q64 231 85 320
q2 9 -5 16.5t-29 12.5q-21 5 -21 18zM465 793q0 -23 -31 -42q-52 -26 -180 -73q-9 -5 -24.5 -3.5t-21.5 9.5q-5 6 -2.5 18.5t12.5 21.5q66 53 161 119q8 6 24 6t19 -4q11 -4 27 -21.5t16 -30.5z" />
    <glyph glyph-name="Lcommaaccent" unicode="&#x13b;" horiz-adv-x="635" 
d="M286 47q124 0 145 4q22 4 102 91q28 30 38 30q6 0 11 -8t5 -17q0 -16 -19.5 -62.5t-38.5 -69.5q-13 -17 -33 -19q-36 -4 -62 -4q-13 0 -124.5 4t-127.5 4q-20 0 -85 -2t-74 -2q-35 0 -35 14q0 8 8 18t20 12q44 9 60.5 21t21.5 29q10 36 52.5 200.5t52.5 200.5q3 13 3 22
t-1 14t-7 10t-8.5 7t-11.5 6q-3 2 -12.5 6t-14 6.5t-9 7t-4.5 10.5q0 8 13 15t27 7q12 0 63.5 -2t70.5 -2q24 0 67 2t52 2q16 0 25.5 -7t9.5 -15t-7 -15t-20 -9q-42 -8 -56 -18t-24 -40q-24 -74 -99 -397q-6 -22 3 -38t23 -16zM192 -261q-9 0 -19.5 7t-10.5 15q0 5 5.5 12
t12.5 9q28 7 50 26.5t22 37.5q0 17 -19 24q-17 5 -24 14t-7 27q0 17 20 36t48 19q26 0 47.5 -23.5t21.5 -59.5q0 -67 -48.5 -105.5t-98.5 -38.5z" />
    <glyph glyph-name="lcommaaccent" unicode="&#x13c;" horiz-adv-x="291" 
d="M118 617q0 8 11 17.5t26 11.5q109 14 144 14q8 0 12.5 -13.5t-0.5 -30.5q-8 -29 -45 -157t-61 -215t-33 -129q-2 -12 0.5 -23t9.5 -11q20 0 76 44q5 3 11.5 -1t6.5 -10q0 -20 -9 -34q-28 -45 -75 -69.5t-94 -24.5q-20 0 -37.5 18.5t-17.5 40.5q0 39 45 205q64 231 85 320
q2 9 -5 16.5t-29 12.5q-21 5 -21 18zM5 -265q-9 0 -19.5 7t-10.5 15q0 5 5.5 12t12.5 9q28 7 50 26.5t22 37.5q0 17 -19 24q-17 5 -24 14t-7 27q0 17 20 36t48 19q26 0 47.5 -23.5t21.5 -59.5q0 -67 -48.5 -105.5t-98.5 -38.5z" />
    <glyph glyph-name="Lcaron" unicode="&#x13d;" horiz-adv-x="635" 
d="M286 47q124 0 145 4q22 4 102 91q28 30 38 30q6 0 11 -8t5 -17q0 -16 -19.5 -62.5t-38.5 -69.5q-13 -17 -33 -19q-36 -4 -62 -4q-13 0 -124.5 4t-127.5 4q-20 0 -85 -2t-74 -2q-35 0 -35 14q0 8 8 18t20 12q44 9 60.5 21t21.5 29q10 36 52.5 200.5t52.5 200.5q3 13 3 22
t-1 14t-7 10t-8.5 7t-11.5 6q-3 2 -12.5 6t-14 6.5t-9 7t-4.5 10.5q0 8 13 15t27 7q12 0 63.5 -2t70.5 -2q24 0 67 2t52 2q16 0 25.5 -7t9.5 -15t-7 -15t-20 -9q-42 -8 -56 -18t-24 -40q-24 -74 -99 -397q-6 -22 3 -38t23 -16zM626 621q5 0 12.5 -9.5t6.5 -22.5
q-5 -29 -25 -73.5t-44 -78.5q-9 -12 -25.5 -22t-28.5 -10q-6 0 -10 5t-3 9q2 13 15.5 77.5t15.5 80.5q0 2 5 8t8 8q50 28 73 28z" />
    <glyph glyph-name="lcaron" unicode="&#x13e;" horiz-adv-x="291" 
d="M118 617q0 8 11 17.5t26 11.5q109 14 144 14q8 0 12.5 -13.5t-0.5 -30.5q-8 -29 -45 -157t-61 -215t-33 -129q-2 -12 0.5 -23t9.5 -11q20 0 76 44q5 3 11.5 -1t6.5 -10q0 -20 -9 -34q-28 -45 -75 -69.5t-94 -24.5q-20 0 -37.5 18.5t-17.5 40.5q0 39 45 205q64 231 85 320
q2 9 -5 16.5t-29 12.5q-21 5 -21 18zM433 667q5 0 12.5 -9.5t6.5 -22.5q-5 -29 -25 -73.5t-44 -78.5q-9 -12 -25.5 -22t-28.5 -10q-6 0 -10 5t-3 9q2 13 15.5 77.5t15.5 80.5q0 2 5 8t8 8q50 28 73 28z" />
    <glyph glyph-name="Ldot" unicode="&#x13f;" horiz-adv-x="635" 
d="M286 47q124 0 145 4q22 4 102 91q28 30 38 30q6 0 11 -8t5 -17q0 -16 -19.5 -62.5t-38.5 -69.5q-13 -17 -33 -19q-36 -4 -62 -4q-13 0 -124.5 4t-127.5 4q-20 0 -85 -2t-74 -2q-35 0 -35 14q0 8 8 18t20 12q44 9 60.5 21t21.5 29q10 36 52.5 200.5t52.5 200.5q3 13 3 22
t-1 14t-7 10t-8.5 7t-11.5 6q-3 2 -12.5 6t-14 6.5t-9 7t-4.5 10.5q0 8 13 15t27 7q12 0 63.5 -2t70.5 -2q24 0 67 2t52 2q16 0 25.5 -7t9.5 -15t-7 -15t-20 -9q-42 -8 -56 -18t-24 -40q-24 -74 -99 -397q-6 -22 3 -38t23 -16zM515 392q31 0 44 -19.5t13 -40.5
q0 -38 -23 -57t-47 -19q-21 0 -38.5 16t-17.5 45q0 33 21.5 54t47.5 21z" />
    <glyph glyph-name="ldot" unicode="&#x140;" horiz-adv-x="291" 
d="M118 617q0 8 11 17.5t26 11.5q109 14 144 14q8 0 12.5 -13.5t-0.5 -30.5q-8 -29 -45 -157t-61 -215t-33 -129q-2 -12 0.5 -23t9.5 -11q20 0 76 44q5 3 11.5 -1t6.5 -10q0 -20 -9 -34q-28 -45 -75 -69.5t-94 -24.5q-20 0 -37.5 18.5t-17.5 40.5q0 39 45 205q64 231 85 320
q2 9 -5 16.5t-29 12.5q-21 5 -21 18zM319 398q32 0 46 -20.5t14 -40.5q0 -14 -11 -35.5t-19 -26.5q-20 -13 -40 -13q-21 0 -38.5 15.5t-17.5 39.5q0 47 33 71q12 10 33 10z" />
    <glyph glyph-name="Lslash" unicode="&#x141;" horiz-adv-x="635" 
d="M138 582q0 8 12 14t27 6q12 0 47.5 -2t55.5 -2q24 0 82.5 2.5t67.5 2.5q17 0 27 -7t10 -16q0 -8 -9 -15t-23 -9q-36 -6 -51.5 -17.5t-24.5 -40.5q-11 -37 -37 -145q-1 -2 2.5 -4.5t5.5 -1.5l138 23q5 1 10 -8q1 -3 1.5 -7.5t-0.5 -8.5t-1 -8l-1 -3q0 -11 -16 -15
l-147 -28q-8 -2 -11 -12q-9 -34 -17.5 -69.5t-15 -66t-9.5 -42.5q-4 -25 -2.5 -31.5t9.5 -15.5q9 -10 21 -10q93 0 135 5q11 1 19.5 5t20 13.5t18.5 17t24 27t28 30.5q27 30 40 30t13 -25q0 -18 -17 -58.5t-37 -70.5q-13 -20 -37 -23q-36 -4 -63 -4q-5 0 -120 4t-177 4
q-20 0 -62.5 -2t-51.5 -2q-15 0 -26.5 7t-11.5 15q0 7 11 14t23 9q46 7 60 18.5t24 44.5q5 17 20 73.5t21 79.5q2 6 -4 7l-69 -10q-3 0 -6 6q-1 2 -1 21q0 6 5 13.5t10 9.5l73 15q8 2 10 10q28 103 40 156q8 30 1.5 44.5t-36.5 26.5q-28 11 -28 26z" />
    <glyph glyph-name="lslash" unicode="&#x142;" horiz-adv-x="306" 
d="M123 622q0 6 11 13.5t27 9.5q116 15 143 15q22 0 11 -44q-4 -18 -25 -89t-33 -116q0 -9 5 -7l51 16q6 1 11.5 -2t5.5 -8q0 -19 -7 -29q-1 -3 -11 -9l-63 -20q-3 -1 -8 -6.5t-6 -10.5q-41 -148 -58 -224q-6 -31 12 -31q9 0 31 13t37 27q11 8 16.5 4t5.5 -14q0 -19 -9 -33
q-28 -44 -75.5 -67.5t-93.5 -23.5q-19 0 -36.5 21t-17.5 39q0 39 17 97q15 51 45 164q1 2 -1.5 5.5t-5.5 2.5l-36 -10q-6 -1 -11.5 2t-5.5 6q0 18 7 29q1 2 4 3.5l6 3t4 2.5l47 16q2 1 6.5 6t5.5 8q4 16 48 185q5 24 -29 33q-25 6 -25 23z" />
    <glyph glyph-name="Nacute" unicode="&#x143;" horiz-adv-x="713" 
d="M96 581q0 9 10.5 16.5t26.5 7.5q6 0 86 -3.5t96 -3.5q3 0 11 -8t12 -16q21 -37 102 -202t95 -185q1 -1 4 0t3 2q61 231 68 276q8 52 -1.5 67.5t-53.5 25.5q-29 6 -29 23q0 8 11 15.5t27 7.5q2 0 51.5 -3t72.5 -3q13 0 35 1.5t36 1.5q15 0 24 -7.5t9 -15.5q0 -16 -34 -23
q-42 -9 -54.5 -21t-30.5 -67q-14 -42 -44.5 -160t-43.5 -185q-4 -20 -4 -32q0 -22 34 -50q16 -14 16 -22q0 -7 -9.5 -15.5t-18.5 -8.5q-4 0 -30.5 1.5t-46 2t-36.5 -0.5h-25q-5 0 -12 6t-10 16q-1 2 -21 48q-32 74 -172 365q-1 3 -4.5 3t-4.5 -2q-57 -205 -68 -290
q-7 -53 4.5 -73t42.5 -28q34 -9 34 -19q0 -7 -9 -17.5t-21 -10.5q-10 0 -58.5 2.5t-59.5 2.5q-14 0 -53 -2t-55 -2q-6 0 -14 5t-8 10q0 10 9.5 19.5t24.5 12.5q42 8 58.5 20t22.5 31q48 143 104 363q10 36 3 53q-13 33 -86 50q-6 1 -11 9t-5 12zM650 743q0 -23 -31 -42
q-52 -26 -180 -73q-9 -5 -24.5 -3.5t-21.5 9.5q-5 6 -2.5 18.5t12.5 21.5q66 53 161 119q8 6 24 6t19 -4q11 -4 27 -21.5t16 -30.5z" />
    <glyph glyph-name="nacute" unicode="&#x144;" horiz-adv-x="540" 
d="M427 425q23 0 42.5 -22t19.5 -52q0 -26 -11 -66q-15 -52 -60 -172q-2 -5 1 -10.5t7 -5.5q18 0 69 41q5 4 12 -1.5t7 -14.5q0 -23 -22 -45q-33 -36 -83.5 -63.5t-99.5 -27.5q-16 0 -27.5 11t-13.5 20q-5 21 9 51q19 43 53 134.5t39 117.5q1 6 -2 14t-13 8q-29 0 -90 -98
q-31 -50 -76.5 -135t-46.5 -87q-22 -36 -34 -36q-26 0 -46 18.5t-20 35.5q0 28 15 63q29 67 72 193q4 9 2 15t-4.5 9t-4.5 3q-13 0 -63 -27q-27 -14 -27 12q0 12 6 26q17 35 59.5 63t92.5 28q22 0 34.5 -16t12.5 -32q0 -20 -29 -98q-2 -3 1.5 -4t6.5 3q56 68 119 113
q48 34 93 34zM389 650q15 0 43.5 -6.5t36.5 -16.5q5 -6 5.5 -19t-7.5 -25q-42 -52 -125 -126q-21 -19 -46 -19q-9 0 -16 12t0 29q25 62 75 146q5 9 17 17t17 8z" />
    <glyph glyph-name="Ncommaaccent" unicode="&#x145;" horiz-adv-x="713" 
d="M96 581q0 9 10.5 16.5t26.5 7.5q6 0 86 -3.5t96 -3.5q3 0 11 -8t12 -16q21 -37 102 -202t95 -185q1 -1 4 0t3 2q61 231 68 276q8 52 -1.5 67.5t-53.5 25.5q-29 6 -29 23q0 8 11 15.5t27 7.5q2 0 51.5 -3t72.5 -3q13 0 35 1.5t36 1.5q15 0 24 -7.5t9 -15.5q0 -16 -34 -23
q-42 -9 -54.5 -21t-30.5 -67q-14 -42 -44.5 -160t-43.5 -185q-4 -20 -4 -32q0 -22 34 -50q16 -14 16 -22q0 -7 -9.5 -15.5t-18.5 -8.5q-4 0 -30.5 1.5t-46 2t-36.5 -0.5h-25q-5 0 -12 6t-10 16q-1 2 -21 48q-32 74 -172 365q-1 3 -4.5 3t-4.5 -2q-57 -205 -68 -290
q-7 -53 4.5 -73t42.5 -28q34 -9 34 -19q0 -7 -9 -17.5t-21 -10.5q-10 0 -58.5 2.5t-59.5 2.5q-14 0 -53 -2t-55 -2q-6 0 -14 5t-8 10q0 10 9.5 19.5t24.5 12.5q42 8 58.5 20t22.5 31q48 143 104 363q10 36 3 53q-13 33 -86 50q-6 1 -11 9t-5 12zM257 -248q-9 0 -19.5 7
t-10.5 15q0 5 5.5 12t12.5 9q28 7 50 26.5t22 37.5q0 17 -19 24q-17 5 -24 14t-7 27q0 17 20 36t48 19q26 0 47.5 -23.5t21.5 -59.5q0 -67 -48.5 -105.5t-98.5 -38.5z" />
    <glyph glyph-name="ncommaaccent" unicode="&#x146;" horiz-adv-x="540" 
d="M427 425q23 0 42.5 -22t19.5 -52q0 -26 -11 -66q-15 -52 -60 -172q-2 -5 1 -10.5t7 -5.5q18 0 69 41q5 4 12 -1.5t7 -14.5q0 -23 -22 -45q-33 -36 -83.5 -63.5t-99.5 -27.5q-16 0 -27.5 11t-13.5 20q-5 21 9 51q19 43 53 134.5t39 117.5q1 6 -2 14t-13 8q-29 0 -90 -98
q-31 -50 -76.5 -135t-46.5 -87q-22 -36 -34 -36q-26 0 -46 18.5t-20 35.5q0 28 15 63q29 67 72 193q4 9 2 15t-4.5 9t-4.5 3q-13 0 -63 -27q-27 -14 -27 12q0 12 6 26q17 35 59.5 63t92.5 28q22 0 34.5 -16t12.5 -32q0 -20 -29 -98q-2 -3 1.5 -4t6.5 3q56 68 119 113
q48 34 93 34zM125 -265q-9 0 -19.5 7t-10.5 15q0 5 5.5 12t12.5 9q28 7 50 26.5t22 37.5q0 17 -19 24q-17 5 -24 14t-7 27q0 17 20 36t48 19q26 0 47.5 -23.5t21.5 -59.5q0 -67 -48.5 -105.5t-98.5 -38.5z" />
    <glyph glyph-name="Ncaron" unicode="&#x147;" horiz-adv-x="713" 
d="M96 581q0 9 10.5 16.5t26.5 7.5q6 0 86 -3.5t96 -3.5q3 0 11 -8t12 -16q21 -37 102 -202t95 -185q1 -1 4 0t3 2q61 231 68 276q8 52 -1.5 67.5t-53.5 25.5q-29 6 -29 23q0 8 11 15.5t27 7.5q2 0 51.5 -3t72.5 -3q13 0 35 1.5t36 1.5q15 0 24 -7.5t9 -15.5q0 -16 -34 -23
q-42 -9 -54.5 -21t-30.5 -67q-14 -42 -44.5 -160t-43.5 -185q-4 -20 -4 -32q0 -22 34 -50q16 -14 16 -22q0 -7 -9.5 -15.5t-18.5 -8.5q-4 0 -30.5 1.5t-46 2t-36.5 -0.5h-25q-5 0 -12 6t-10 16q-1 2 -21 48q-32 74 -172 365q-1 3 -4.5 3t-4.5 -2q-57 -205 -68 -290
q-7 -53 4.5 -73t42.5 -28q34 -9 34 -19q0 -7 -9 -17.5t-21 -10.5q-10 0 -58.5 2.5t-59.5 2.5q-14 0 -53 -2t-55 -2q-6 0 -14 5t-8 10q0 10 9.5 19.5t24.5 12.5q42 8 58.5 20t22.5 31q48 143 104 363q10 36 3 53q-13 33 -86 50q-6 1 -11 9t-5 12zM439 627q-17 0 -33 20
l-77 96q-12 17 -7.5 27t17.5 10q20 0 40 -11q43 -23 78 -46q2 -1 10.5 -1t9.5 1q70 34 121 52q16 7 41 7q5 0 8.5 -5t1 -14.5t-12.5 -19.5q-7 -7 -32.5 -23t-62 -38.5t-61.5 -40.5q-18 -14 -41 -14z" />
    </font>
</defs>
</svg>
